<?xml version="1.0" encoding="utf-8"?>
<!-- Generator: Adobe Illustrator 26.1.0, SVG Export Plug-In . SVG Version: 6.00 Build 0)  -->
<svg version="1.1" id="Capa_1" xmlns="http://www.w3.org/2000/svg" xmlns:xlink="http://www.w3.org/1999/xlink" x="0px" y="0px"
	 viewBox="0 0 258.9 121.4" style="enable-background:new 0 0 258.9 121.4;" xml:space="preserve">
<style type="text/css">
	.st0{fill:#606060;}
	.st1{fill:#191F1F;}
</style>
<g>
	<g>
		<g>
			<path d="M62.5,70.5v-8.1H68v1.5h-3.6v1.6h3.2V67h-3.2v2h3.9v1.5H62.5z"/>
			<path d="M73.9,65.9c-0.2,0-0.3-0.1-0.5-0.1s-0.4-0.1-0.7-0.1c-0.1,0-0.2,0-0.4,0c-0.2,0-0.3,0-0.3,0.1v4.7h-1.7v-5.8
				c0.3-0.1,0.7-0.2,1.1-0.3s0.9-0.1,1.4-0.1c0.1,0,0.2,0,0.3,0c0.1,0,0.3,0,0.4,0s0.3,0,0.4,0.1c0.1,0,0.2,0.1,0.3,0.1L73.9,65.9z"
				/>
			<path d="M77.7,62.6c0,0.3-0.1,0.6-0.3,0.8c-0.2,0.2-0.4,0.3-0.7,0.3s-0.5-0.1-0.7-0.3s-0.3-0.4-0.3-0.8c0-0.3,0.1-0.6,0.3-0.8
				c0.2-0.2,0.4-0.3,0.7-0.3s0.5,0.1,0.7,0.3C77.6,62,77.7,62.3,77.7,62.6z M77.6,70.5h-1.7v-6.1h1.7V70.5z"/>
			<path d="M79.6,67.4c0-0.4,0.1-0.9,0.2-1.3s0.4-0.7,0.6-1c0.3-0.3,0.6-0.5,1-0.7s0.8-0.3,1.3-0.3c0.3,0,0.6,0,0.9,0.1
				s0.5,0.1,0.8,0.3L84,65.9c-0.2-0.1-0.3-0.1-0.5-0.2s-0.4-0.1-0.7-0.1c-0.5,0-0.9,0.2-1.1,0.5c-0.3,0.3-0.4,0.7-0.4,1.3
				c0,0.6,0.1,1,0.4,1.3c0.2,0.3,0.7,0.5,1.2,0.5c0.2,0,0.4,0,0.7-0.1s0.5-0.1,0.7-0.2l0.2,1.4c-0.2,0.1-0.5,0.2-0.8,0.2
				s-0.6,0.1-1,0.1c-0.6,0-1-0.1-1.4-0.3c-0.4-0.2-0.7-0.4-1-0.7c-0.3-0.3-0.5-0.6-0.6-1C79.7,68.3,79.6,67.9,79.6,67.4z"/>
			<path d="M94.9,62.4h1.8v8.1h-1.8v-3.4h-3.1v3.4H90v-8.1h1.8v3.1h3.1V62.4z"/>
			<path d="M98.9,67.5c0-0.5,0.1-1,0.3-1.4c0.2-0.4,0.4-0.7,0.7-1s0.6-0.5,0.9-0.6c0.4-0.1,0.7-0.2,1.1-0.2c0.9,0,1.6,0.3,2.1,0.8
				s0.8,1.3,0.8,2.4c0,0.1,0,0.2,0,0.3c0,0.1,0,0.2,0,0.3h-4.1c0,0.4,0.2,0.6,0.5,0.9s0.7,0.3,1.2,0.3c0.3,0,0.6,0,0.9-0.1
				s0.6-0.1,0.8-0.2l0.2,1.4c-0.1,0-0.2,0.1-0.4,0.1c-0.2,0-0.3,0.1-0.5,0.1s-0.4,0.1-0.6,0.1s-0.4,0-0.7,0c-0.6,0-1-0.1-1.4-0.2
				c-0.4-0.2-0.7-0.4-1-0.7c-0.3-0.3-0.5-0.6-0.6-1C99,68.3,98.9,67.9,98.9,67.5z M103,66.8c0-0.1,0-0.3-0.1-0.4
				c0-0.1-0.1-0.3-0.2-0.4s-0.2-0.2-0.3-0.3c-0.1-0.1-0.3-0.1-0.5-0.1s-0.4,0-0.5,0.1s-0.3,0.2-0.3,0.3c-0.1,0.1-0.2,0.2-0.2,0.4
				c-0.1,0.1-0.1,0.3-0.1,0.4H103z"/>
			<path d="M110.4,65.9c-0.2,0-0.3-0.1-0.5-0.1s-0.4-0.1-0.7-0.1c-0.1,0-0.2,0-0.4,0c-0.2,0-0.3,0-0.3,0.1v4.7h-1.8v-5.8
				c0.3-0.1,0.7-0.2,1.1-0.3s0.9-0.1,1.4-0.1c0.1,0,0.2,0,0.3,0c0.1,0,0.3,0,0.4,0s0.3,0,0.4,0.1c0.1,0,0.2,0.1,0.3,0.1L110.4,65.9z
				"/>
			<path d="M112.3,64.6c0.3-0.1,0.7-0.2,1.1-0.2s1-0.1,1.5-0.1s1,0.1,1.3,0.2s0.6,0.3,0.8,0.6c0.2,0.2,0.3,0.5,0.4,0.9
				c0.1,0.3,0.1,0.7,0.1,1.1v3.5h-1.7v-3.3c0-0.6-0.1-1-0.2-1.2s-0.4-0.4-0.8-0.4c-0.1,0-0.3,0-0.4,0s-0.3,0-0.4,0v4.7h-1.7
				L112.3,64.6L112.3,64.6z"/>
			<path d="M122.1,64.2c0.5,0,0.9,0.1,1.3,0.2c0.3,0.1,0.6,0.3,0.8,0.5c0.2,0.2,0.4,0.5,0.4,0.8c0.1,0.3,0.1,0.7,0.1,1v3.6
				c-0.2,0.1-0.6,0.1-1,0.2s-1,0.1-1.6,0.1c-0.4,0-0.8,0-1.1-0.1c-0.3-0.1-0.6-0.2-0.8-0.3c-0.2-0.2-0.4-0.4-0.5-0.6
				c-0.1-0.3-0.2-0.6-0.2-0.9c0-0.4,0.1-0.7,0.2-0.9c0.1-0.2,0.3-0.4,0.6-0.6c0.2-0.1,0.5-0.3,0.8-0.3c0.3-0.1,0.6-0.1,1-0.1
				c0.2,0,0.4,0,0.6,0s0.3,0,0.4,0.1v-0.2c0-0.3-0.1-0.5-0.3-0.7c-0.2-0.2-0.5-0.3-0.9-0.3c-0.3,0-0.6,0-0.9,0.1
				c-0.3,0-0.5,0.1-0.7,0.2l-0.2-1.4c0.1,0,0.2-0.1,0.4-0.1c0.2,0,0.3-0.1,0.5-0.1s0.4-0.1,0.6-0.1
				C121.7,64.2,121.9,64.2,122.1,64.2z M123.7,62.1l-1.9,1.6L121,63l1.7-1.9L123.7,62.1z M122.3,69.3c0.2,0,0.3,0,0.5,0s0.3,0,0.4,0
				V68c-0.1,0-0.2,0-0.3,0c-0.1,0-0.3,0-0.4,0c-0.2,0-0.3,0-0.5,0c-0.1,0-0.3,0.1-0.4,0.1c-0.1,0.1-0.2,0.1-0.3,0.2
				c-0.1,0.1-0.1,0.2-0.1,0.3c0,0.3,0.1,0.5,0.3,0.6S121.9,69.3,122.3,69.3z"/>
			<path d="M127.1,64.6c0.3-0.1,0.7-0.2,1.1-0.2s1-0.1,1.5-0.1s1,0.1,1.3,0.2s0.6,0.3,0.8,0.6c0.2,0.2,0.3,0.5,0.4,0.9
				c0.1,0.3,0.1,0.7,0.1,1.1v3.5h-1.7v-3.3c0-0.6-0.1-1-0.2-1.2s-0.4-0.4-0.8-0.4c-0.1,0-0.3,0-0.4,0s-0.3,0-0.4,0v4.7h-1.7
				L127.1,64.6L127.1,64.6z"/>
			<path d="M140,70.3c-0.2,0-0.3,0.1-0.5,0.1s-0.4,0.1-0.6,0.1s-0.4,0.1-0.7,0.1s-0.4,0-0.7,0c-0.5,0-1-0.1-1.4-0.2s-0.7-0.4-1-0.6
				s-0.5-0.6-0.6-1s-0.2-0.8-0.2-1.3s0.1-0.9,0.2-1.3s0.3-0.7,0.5-1s0.5-0.5,0.9-0.6c0.3-0.1,0.7-0.2,1.2-0.2c0.2,0,0.5,0,0.6,0.1
				c0.2,0,0.4,0.1,0.6,0.2v-2.8l1.7-0.3V70.3z M136.1,67.4c0,0.5,0.1,1,0.4,1.3s0.6,0.5,1.1,0.5c0.2,0,0.3,0,0.4,0s0.2,0,0.3,0V66
				c-0.1-0.1-0.3-0.1-0.4-0.2s-0.4-0.1-0.5-0.1C136.5,65.7,136.1,66.2,136.1,67.4z"/>
			<path d="M142.1,67.5c0-0.5,0.1-1,0.3-1.4c0.2-0.4,0.4-0.7,0.7-1s0.6-0.5,0.9-0.6c0.4-0.1,0.7-0.2,1.1-0.2c0.9,0,1.6,0.3,2.1,0.8
				s0.8,1.3,0.8,2.4c0,0.1,0,0.2,0,0.3c0,0.1,0,0.2,0,0.3h-3.9c0,0.4,0.2,0.6,0.5,0.9s0.7,0.3,1.2,0.3c0.3,0,0.6,0,0.9-0.1
				s0.6-0.1,0.8-0.2l0.2,1.4c-0.1,0-0.2,0.1-0.4,0.1c-0.2,0-0.3,0.1-0.5,0.1s-0.4,0.1-0.6,0.1s-0.4,0-0.7,0c-0.6,0-1-0.1-1.4-0.2
				c-0.4-0.2-0.7-0.4-1-0.7c-0.3-0.3-0.5-0.6-0.6-1C142.2,68.3,142.1,67.9,142.1,67.5z M146.2,66.8c0-0.1,0-0.3-0.1-0.4
				c0-0.1-0.1-0.3-0.2-0.4s-0.2-0.2-0.3-0.3c-0.1-0.1-0.3-0.1-0.5-0.1s-0.4,0-0.5,0.1s-0.3,0.2-0.3,0.3c-0.1,0.1-0.2,0.2-0.2,0.4
				c-0.1,0.1-0.1,0.3-0.1,0.4H146.2z"/>
			<path d="M154.5,65.5c-0.1,0.2-0.3,0.4-0.6,0.6c-0.2,0.3-0.5,0.6-0.8,0.9s-0.5,0.7-0.8,1s-0.5,0.7-0.8,1h3v1.4h-5.1v-1
				c0.2-0.3,0.4-0.6,0.6-0.9s0.5-0.6,0.7-1c0.3-0.3,0.5-0.6,0.8-1c0.2-0.3,0.5-0.6,0.7-0.8h-2.6v-1.4h4.9L154.5,65.5L154.5,65.5z"/>
			<path d="M166.1,62.4V64h-2.4v6.5h-1.8V64h-2.4v-1.6H166.1z"/>
			<path d="M170.7,65.9c-0.2,0-0.3-0.1-0.5-0.1s-0.4-0.1-0.7-0.1c-0.1,0-0.2,0-0.4,0c-0.2,0-0.3,0-0.3,0.1v4.7h-1.7v-5.8
				c0.3-0.1,0.7-0.2,1.1-0.3s0.9-0.1,1.4-0.1c0.1,0,0.2,0,0.3,0c0.1,0,0.3,0,0.4,0s0.3,0,0.4,0.1c0.1,0,0.2,0.1,0.3,0.1L170.7,65.9z
				"/>
			<path d="M174.5,62.6c0,0.3-0.1,0.6-0.3,0.8c-0.2,0.2-0.4,0.3-0.7,0.3s-0.5-0.1-0.7-0.3s-0.3-0.4-0.3-0.8c0-0.3,0.1-0.6,0.3-0.8
				c0.2-0.2,0.4-0.3,0.7-0.3s0.5,0.1,0.7,0.3S174.5,62.3,174.5,62.6z M174.4,70.5h-1.7v-6.1h1.7V70.5z"/>
			<path d="M178.9,64.2c0.5,0,0.9,0.1,1.3,0.2c0.3,0.1,0.6,0.3,0.8,0.5c0.2,0.2,0.4,0.5,0.4,0.8c0.1,0.3,0.1,0.7,0.1,1v3.6
				c-0.2,0.1-0.6,0.1-1,0.2s-1,0.1-1.6,0.1c-0.4,0-0.8,0-1.1-0.1c-0.3-0.1-0.6-0.2-0.8-0.3c-0.2-0.2-0.4-0.4-0.5-0.6
				c-0.1-0.3-0.2-0.6-0.2-0.9c0-0.4,0.1-0.7,0.2-0.9c0.1-0.2,0.3-0.4,0.6-0.6c0.2-0.1,0.5-0.3,0.8-0.3c0.3-0.1,0.6-0.1,1-0.1
				c0.2,0,0.4,0,0.6,0s0.3,0,0.4,0.1v-0.2c0-0.3-0.1-0.5-0.3-0.7c-0.2-0.2-0.5-0.3-0.9-0.3c-0.3,0-0.6,0-0.9,0.1
				c-0.3,0-0.5,0.1-0.7,0.2l-0.2-1.4c0.1,0,0.2-0.1,0.4-0.1c0.2,0,0.3-0.1,0.5-0.1s0.4-0.1,0.6-0.1
				C178.5,64.2,178.7,64.2,178.9,64.2z M179,69.3c0.2,0,0.3,0,0.5,0s0.3,0,0.4,0V68c-0.1,0-0.2,0-0.3,0c-0.1,0-0.3,0-0.4,0
				c-0.2,0-0.3,0-0.5,0c-0.1,0-0.3,0.1-0.4,0.1c-0.1,0.1-0.2,0.1-0.3,0.2c-0.1,0.1-0.1,0.2-0.1,0.3c0,0.3,0.1,0.5,0.3,0.6
				S178.7,69.3,179,69.3z"/>
			<path d="M183.9,64.6c0.3-0.1,0.7-0.2,1.1-0.2s1-0.1,1.5-0.1s1,0.1,1.3,0.2s0.6,0.3,0.8,0.6c0.2,0.2,0.3,0.5,0.4,0.9
				c0.1,0.3,0.1,0.7,0.1,1.1v3.5h-1.7v-3.3c0-0.6-0.1-1-0.2-1.2s-0.4-0.4-0.8-0.4c-0.1,0-0.3,0-0.4,0s-0.3,0-0.4,0v4.7h-1.7
				L183.9,64.6L183.9,64.6z"/>
			<path d="M193.6,64.2c0.5,0,0.9,0.1,1.3,0.2c0.3,0.1,0.6,0.3,0.8,0.5c0.2,0.2,0.4,0.5,0.4,0.8c0.1,0.3,0.1,0.7,0.1,1v3.6
				c-0.2,0.1-0.6,0.1-1,0.2s-1,0.1-1.6,0.1c-0.4,0-0.8,0-1.1-0.1c-0.3-0.1-0.6-0.2-0.8-0.3c-0.2-0.2-0.4-0.4-0.5-0.6
				c-0.1-0.3-0.2-0.6-0.2-0.9c0-0.4,0.1-0.7,0.2-0.9c0.1-0.2,0.3-0.4,0.6-0.6c0.2-0.1,0.5-0.3,0.8-0.3c0.3-0.1,0.6-0.1,1-0.1
				c0.2,0,0.4,0,0.6,0s0.3,0,0.4,0.1v-0.2c0-0.3-0.1-0.5-0.3-0.7c-0.2-0.2-0.5-0.3-0.9-0.3c-0.3,0-0.6,0-0.9,0.1
				c-0.3,0-0.5,0.1-0.7,0.2l-0.2-1.4c0.1,0,0.2-0.1,0.4-0.1c0.2,0,0.3-0.1,0.5-0.1s0.4-0.1,0.6-0.1
				C193.2,64.2,193.4,64.2,193.6,64.2z M193.8,69.3c0.2,0,0.3,0,0.5,0s0.3,0,0.4,0V68c-0.1,0-0.2,0-0.3,0c-0.1,0-0.3,0-0.4,0
				c-0.2,0-0.3,0-0.5,0c-0.1,0-0.3,0.1-0.4,0.1c-0.1,0.1-0.2,0.1-0.3,0.2c-0.1,0.1-0.1,0.2-0.1,0.3c0,0.3,0.1,0.5,0.3,0.6
				S193.5,69.3,193.8,69.3z"/>
		</g>
	</g>
	<g>
		<g>
			<path class="st0" d="M103.2,83.5c-0.5,0-0.9-0.1-1.3-0.2s-0.7-0.4-0.9-0.6c-0.3-0.3-0.5-0.6-0.6-1s-0.2-0.9-0.2-1.4
				s0.1-1,0.2-1.4c0.2-0.4,0.4-0.7,0.6-1c0.3-0.3,0.6-0.5,1-0.6s0.8-0.2,1.2-0.2c0.3,0,0.5,0,0.7,0.1s0.4,0.1,0.5,0.1
				s0.3,0.1,0.4,0.2s0.2,0.1,0.2,0.1l-0.3,0.9c-0.1-0.1-0.3-0.2-0.6-0.3c-0.3-0.1-0.6-0.1-0.9-0.1s-0.5,0-0.8,0.1
				c-0.2,0.1-0.4,0.2-0.6,0.4c-0.2,0.2-0.3,0.4-0.4,0.7s-0.1,0.6-0.1,1c0,0.3,0,0.6,0.1,0.9s0.2,0.5,0.3,0.7
				c0.2,0.2,0.4,0.4,0.6,0.5s0.5,0.2,0.9,0.2s0.7,0,1-0.1s0.4-0.2,0.6-0.2l0.3,0.9c-0.1,0-0.2,0.1-0.3,0.1c-0.1,0-0.3,0.1-0.4,0.1
				c-0.2,0-0.4,0.1-0.6,0.1C103.7,83.5,103.4,83.5,103.2,83.5z"/>
			<path class="st0" d="M110.7,81c0,0.4-0.1,0.7-0.2,1s-0.3,0.6-0.5,0.8c-0.2,0.2-0.4,0.4-0.7,0.5c-0.3,0.1-0.6,0.2-0.9,0.2
				s-0.6-0.1-0.9-0.2s-0.5-0.3-0.7-0.5s-0.4-0.5-0.5-0.8s-0.2-0.6-0.2-1s0.1-0.7,0.2-1s0.3-0.6,0.5-0.8c0.2-0.2,0.4-0.4,0.7-0.5
				c0.3-0.1,0.6-0.2,0.9-0.2s0.6,0.1,0.9,0.2s0.5,0.3,0.7,0.5s0.4,0.5,0.5,0.8S110.7,80.7,110.7,81z M109.6,81
				c0-0.5-0.1-0.8-0.3-1.1c-0.2-0.3-0.5-0.4-0.8-0.4s-0.6,0.1-0.8,0.4c-0.2,0.3-0.3,0.6-0.3,1.1s0.1,0.8,0.3,1.1
				c0.2,0.3,0.5,0.4,0.8,0.4s0.6-0.1,0.8-0.4C109.5,81.9,109.6,81.5,109.6,81z"/>
			<path class="st0" d="M116.5,81c0,0.4-0.1,0.7-0.2,1s-0.3,0.6-0.5,0.8c-0.2,0.2-0.4,0.4-0.7,0.5c-0.3,0.1-0.6,0.2-0.9,0.2
				s-0.6-0.1-0.9-0.2s-0.5-0.3-0.7-0.5s-0.4-0.5-0.5-0.8s-0.2-0.6-0.2-1s0.1-0.7,0.2-1s0.3-0.6,0.5-0.8c0.2-0.2,0.4-0.4,0.7-0.5
				c0.3-0.1,0.6-0.2,0.9-0.2s0.6,0.1,0.9,0.2s0.5,0.3,0.7,0.5s0.4,0.5,0.5,0.8C116.4,80.3,116.5,80.7,116.5,81z M115.4,81
				c0-0.5-0.1-0.8-0.3-1.1c-0.2-0.3-0.5-0.4-0.8-0.4s-0.6,0.1-0.8,0.4c-0.2,0.3-0.3,0.6-0.3,1.1s0.1,0.8,0.3,1.1
				c0.2,0.3,0.5,0.4,0.8,0.4s0.6-0.1,0.8-0.4C115.3,81.9,115.4,81.5,115.4,81z"/>
			<path class="st0" d="M120.7,79.7c-0.1,0-0.2-0.1-0.4-0.1c-0.2,0-0.3,0-0.6,0c-0.1,0-0.2,0-0.4,0c-0.1,0-0.2,0-0.3,0.1v3.8h-1.1
				V79c0.2-0.1,0.5-0.2,0.8-0.2c0.3-0.1,0.7-0.1,1-0.1c0.1,0,0.2,0,0.3,0s0.2,0,0.3,0c0.1,0,0.2,0,0.3,0.1c0.1,0,0.2,0,0.2,0.1
				L120.7,79.7z"/>
			<path class="st0" d="M126.1,83.2c-0.2,0.1-0.5,0.1-0.8,0.2s-0.7,0.1-1,0.1c-0.4,0-0.7-0.1-1-0.2s-0.5-0.3-0.7-0.5
				s-0.4-0.5-0.5-0.8s-0.2-0.6-0.2-1s0-0.7,0.1-1s0.2-0.6,0.4-0.8c0.2-0.2,0.4-0.4,0.7-0.5c0.3-0.1,0.6-0.2,0.9-0.2
				c0.2,0,0.4,0,0.6,0.1s0.3,0.1,0.4,0.2v-2.2l1.1-0.2V83.2z M123,81c0,0.5,0.1,0.9,0.3,1.1c0.2,0.3,0.5,0.4,0.9,0.4
				c0.2,0,0.3,0,0.4,0s0.2,0,0.3,0v-2.7c-0.1-0.1-0.2-0.1-0.4-0.2s-0.3-0.1-0.5-0.1c-0.4,0-0.7,0.1-0.9,0.4
				C123.1,80.2,123,80.6,123,81z"/>
			<path class="st0" d="M129.1,77.3c0,0.2-0.1,0.4-0.2,0.5s-0.3,0.2-0.5,0.2s-0.3-0.1-0.5-0.2c-0.1-0.1-0.2-0.3-0.2-0.5
				s0.1-0.4,0.2-0.5s0.3-0.2,0.5-0.2s0.3,0.1,0.5,0.2C129,76.9,129.1,77.1,129.1,77.3z M129,83.4h-1.1v-4.7h1.1V83.4z"/>
			<path class="st0" d="M130.8,78.8c0.2-0.1,0.5-0.1,0.8-0.2s0.7-0.1,1.1-0.1s0.7,0.1,1,0.2s0.5,0.3,0.6,0.4
				c0.2,0.2,0.3,0.4,0.3,0.7c0.1,0.3,0.1,0.6,0.1,0.9v2.6h-1v-2.5c0-0.3,0-0.5,0-0.6c0-0.2-0.1-0.3-0.2-0.4s-0.2-0.2-0.3-0.2
				c-0.1-0.1-0.3-0.1-0.5-0.1c-0.1,0-0.3,0-0.4,0c-0.2,0-0.3,0-0.3,0v3.8h-1.1v-4.5C130.9,78.8,130.8,78.8,130.8,78.8z"/>
			<path class="st0" d="M138.1,78.6c0.4,0,0.7,0,0.9,0.1c0.2,0.1,0.4,0.2,0.6,0.4s0.3,0.4,0.3,0.6c0.1,0.2,0.1,0.5,0.1,0.8v2.8
				c-0.2,0-0.4,0.1-0.8,0.1s-0.7,0.1-1.1,0.1c-0.3,0-0.5,0-0.8-0.1s-0.4-0.1-0.6-0.3c-0.2-0.1-0.3-0.3-0.4-0.5s-0.1-0.4-0.1-0.7
				c0-0.3,0.1-0.5,0.2-0.7s0.2-0.3,0.4-0.5c0.2-0.1,0.4-0.2,0.6-0.3s0.5-0.1,0.7-0.1c0.1,0,0.2,0,0.4,0c0.1,0,0.3,0,0.4,0.1v-0.2
				c0-0.1,0-0.2,0-0.4c0-0.1-0.1-0.2-0.2-0.3c-0.1-0.1-0.2-0.2-0.3-0.2s-0.3-0.1-0.5-0.1c-0.3,0-0.5,0-0.7,0.1
				c-0.2,0-0.4,0.1-0.5,0.1l-0.1-0.9c0.1,0,0.3-0.1,0.6-0.1C137.5,78.6,137.8,78.6,138.1,78.6z M138.2,82.6c0.3,0,0.6,0,0.8-0.1
				v-1.2c-0.1,0-0.1,0-0.3-0.1c-0.1,0-0.2,0-0.4,0c-0.1,0-0.2,0-0.4,0c-0.1,0-0.2,0.1-0.3,0.1s-0.2,0.1-0.2,0.2
				c-0.1,0.1-0.1,0.2-0.1,0.3c0,0.3,0.1,0.4,0.2,0.5S137.9,82.6,138.2,82.6z"/>
			<path class="st0" d="M145.7,83.2c-0.2,0.1-0.5,0.1-0.8,0.2s-0.7,0.1-1,0.1c-0.4,0-0.7-0.1-1-0.2s-0.5-0.3-0.7-0.5
				s-0.4-0.5-0.5-0.8s-0.2-0.6-0.2-1s0-0.7,0.1-1s0.2-0.6,0.4-0.8c0.2-0.2,0.4-0.4,0.7-0.5c0.3-0.1,0.6-0.2,0.9-0.2
				c0.2,0,0.4,0,0.6,0.1s0.3,0.1,0.4,0.2v-2.2l1.1-0.2V83.2z M142.6,81c0,0.5,0.1,0.9,0.3,1.1c0.2,0.3,0.5,0.4,0.9,0.4
				c0.2,0,0.3,0,0.4,0s0.2,0,0.3,0v-2.7c-0.1-0.1-0.2-0.1-0.4-0.2s-0.3-0.1-0.5-0.1c-0.4,0-0.7,0.1-0.9,0.4
				C142.7,80.2,142.6,80.6,142.6,81z"/>
			<path class="st0" d="M151.8,81c0,0.4-0.1,0.7-0.2,1s-0.3,0.6-0.5,0.8c-0.2,0.2-0.4,0.4-0.7,0.5c-0.3,0.1-0.6,0.2-0.9,0.2
				s-0.6-0.1-0.9-0.2s-0.5-0.3-0.7-0.5s-0.4-0.5-0.5-0.8s-0.2-0.6-0.2-1s0.1-0.7,0.2-1s0.3-0.6,0.5-0.8c0.2-0.2,0.4-0.4,0.7-0.5
				c0.3-0.1,0.6-0.2,0.9-0.2s0.6,0.1,0.9,0.2s0.5,0.3,0.7,0.5s0.4,0.5,0.5,0.8S151.8,80.7,151.8,81z M150.7,81
				c0-0.5-0.1-0.8-0.3-1.1c-0.2-0.3-0.5-0.4-0.8-0.4s-0.6,0.1-0.8,0.4c-0.2,0.3-0.3,0.6-0.3,1.1s0.1,0.8,0.3,1.1
				c0.2,0.3,0.5,0.4,0.8,0.4s0.6-0.1,0.8-0.4C150.6,81.9,150.7,81.5,150.7,81z"/>
			<path class="st0" d="M156,79.7c-0.1,0-0.2-0.1-0.4-0.1c-0.2,0-0.3,0-0.6,0c-0.1,0-0.2,0-0.4,0c-0.1,0-0.2,0-0.3,0.1v3.8h-1.1V79
				c0.2-0.1,0.5-0.2,0.8-0.2c0.3-0.1,0.7-0.1,1-0.1c0.1,0,0.2,0,0.3,0s0.2,0,0.3,0c0.1,0,0.2,0,0.3,0.1c0.1,0,0.2,0,0.2,0.1
				L156,79.7z"/>
		</g>
	</g>
	<g>
		<g>
			<path class="st0" d="M37.1,96.7c-0.5,0-0.9-0.1-1.3-0.2s-0.7-0.4-0.9-0.6c-0.3-0.3-0.5-0.6-0.6-1s-0.2-0.9-0.2-1.4s0.1-1,0.2-1.4
				c0.2-0.4,0.4-0.7,0.6-1c0.3-0.3,0.6-0.5,1-0.6s0.8-0.2,1.2-0.2c0.3,0,0.5,0,0.7,0.1s0.4,0.1,0.5,0.1s0.3,0.1,0.4,0.2
				s0.2,0.1,0.2,0.1l-0.3,0.9c-0.1-0.1-0.3-0.2-0.6-0.3c-0.3-0.1-0.6-0.1-0.9-0.1s-0.5,0-0.8,0.1c-0.2,0.1-0.4,0.2-0.6,0.4
				c-0.2,0.2-0.3,0.4-0.4,0.7s-0.1,0.6-0.1,1c0,0.3,0,0.6,0.1,0.9s0.2,0.5,0.3,0.7c0.2,0.2,0.4,0.4,0.6,0.5s0.5,0.2,0.9,0.2
				s0.7,0,1-0.1s0.4-0.2,0.6-0.2l0.3,0.9c-0.1,0-0.2,0.1-0.3,0.1c-0.1,0-0.3,0.1-0.4,0.1c-0.2,0-0.4,0.1-0.6,0.1
				C37.5,96.7,37.3,96.7,37.1,96.7z"/>
			<path class="st0" d="M42.9,96.7c-0.4,0-0.8-0.1-1.1-0.2c-0.3-0.1-0.6-0.3-0.8-0.5c-0.2-0.2-0.3-0.5-0.4-0.8s-0.1-0.6-0.1-1v-3.9
				h1.1v3.8c0,0.3,0,0.5,0.1,0.7s0.2,0.4,0.3,0.5c0.1,0.1,0.3,0.2,0.4,0.3c0.2,0.1,0.3,0.1,0.5,0.1s0.4,0,0.5-0.1
				c0.2-0.1,0.3-0.2,0.4-0.3c0.1-0.1,0.2-0.3,0.3-0.5c0.1-0.2,0.1-0.4,0.1-0.7v-3.8h1.1v3.9c0,0.4,0,0.7-0.1,1S45,95.8,44.8,96
				c-0.2,0.2-0.5,0.4-0.8,0.5C43.6,96.6,43.3,96.7,42.9,96.7z"/>
			<path class="st0" d="M48.9,90.3c0.9,0,1.6,0.2,2.1,0.5s0.7,0.8,0.7,1.5c0,0.8-0.4,1.4-1.2,1.7c0.1,0.1,0.2,0.3,0.4,0.5
				s0.3,0.4,0.4,0.6s0.3,0.5,0.4,0.7s0.3,0.5,0.4,0.7h-1.3c-0.1-0.2-0.2-0.4-0.4-0.7c-0.1-0.2-0.3-0.4-0.4-0.6s-0.3-0.4-0.4-0.6
				s-0.3-0.3-0.4-0.5c-0.1,0-0.2,0-0.2,0s-0.1,0-0.2,0h-0.5v2.3h-1.1v-6.1c0.3-0.1,0.6-0.1,0.9-0.1C48.4,90.3,48.7,90.3,48.9,90.3z
				 M49,91.3c-0.2,0-0.5,0-0.7,0v2h0.5c0.3,0,0.5,0,0.7,0s0.4-0.1,0.5-0.2s0.2-0.2,0.3-0.3c0.1-0.1,0.1-0.3,0.1-0.5s0-0.4-0.1-0.5
				s-0.2-0.2-0.3-0.3c-0.1-0.1-0.3-0.1-0.5-0.2C49.4,91.3,49.2,91.3,49,91.3z"/>
			<path class="st0" d="M54.9,95.7c0.4,0,0.7-0.1,0.9-0.2c0.2-0.1,0.3-0.3,0.3-0.6c0-0.1,0-0.3-0.1-0.4s-0.2-0.2-0.3-0.3
				c-0.1-0.1-0.3-0.2-0.4-0.2c-0.2-0.1-0.4-0.1-0.6-0.2s-0.4-0.2-0.6-0.3s-0.4-0.2-0.5-0.3s-0.3-0.3-0.4-0.5s-0.1-0.4-0.1-0.7
				c0-0.6,0.2-1,0.6-1.3s0.9-0.5,1.6-0.5c0.4,0,0.7,0,1,0.1s0.5,0.2,0.7,0.3l-0.3,0.9c-0.2-0.1-0.4-0.2-0.7-0.3s-0.5-0.1-0.7-0.1
				c-0.3,0-0.5,0.1-0.7,0.2s-0.3,0.3-0.3,0.5c0,0.1,0,0.3,0.1,0.4s0.1,0.2,0.2,0.3c0.1,0.1,0.2,0.1,0.4,0.2c0.1,0.1,0.3,0.1,0.5,0.2
				c0.3,0.1,0.6,0.2,0.8,0.3c0.2,0.1,0.4,0.2,0.6,0.4s0.3,0.3,0.4,0.5s0.1,0.5,0.1,0.7c0,0.6-0.2,1-0.6,1.3s-1,0.5-1.7,0.5
				c-0.3,0-0.5,0-0.7,0s-0.4-0.1-0.6-0.1s-0.3-0.1-0.4-0.1c-0.1-0.1-0.2-0.1-0.3-0.1l0.3-0.9c0.2,0.1,0.4,0.2,0.7,0.3
				C54.2,95.7,54.5,95.7,54.9,95.7z"/>
			<path class="st0" d="M64.5,93.5c0,0.5-0.1,1-0.2,1.4c-0.2,0.4-0.4,0.7-0.6,1c-0.3,0.3-0.6,0.5-1,0.6s-0.8,0.2-1.2,0.2
				s-0.8-0.1-1.2-0.2c-0.4-0.1-0.7-0.3-1-0.6c-0.3-0.3-0.5-0.6-0.6-1c-0.2-0.4-0.2-0.9-0.2-1.4s0.1-1,0.2-1.4s0.4-0.7,0.7-1
				c0.3-0.3,0.6-0.5,1-0.6s0.8-0.2,1.2-0.2s0.8,0.1,1.2,0.2c0.4,0.1,0.7,0.3,1,0.6c0.3,0.3,0.5,0.6,0.7,1
				C64.4,92.5,64.5,92.9,64.5,93.5z M59.6,93.5c0,0.3,0,0.7,0.1,0.9c0.1,0.3,0.2,0.5,0.4,0.7c0.2,0.2,0.4,0.3,0.6,0.5
				c0.2,0.1,0.5,0.2,0.8,0.2s0.5-0.1,0.8-0.2s0.4-0.3,0.6-0.5s0.3-0.4,0.4-0.7c0.1-0.3,0.1-0.6,0.1-0.9s0-0.7-0.1-0.9
				c-0.1-0.3-0.2-0.5-0.4-0.7c-0.2-0.2-0.4-0.3-0.6-0.5s-0.5-0.2-0.8-0.2s-0.5,0.1-0.8,0.2c-0.2,0.1-0.4,0.3-0.6,0.5
				s-0.3,0.4-0.4,0.7C59.7,92.8,59.6,93.1,59.6,93.5z"/>
			<path class="st0" d="M74,93.5c0,0.5-0.1,1-0.3,1.4c-0.2,0.4-0.4,0.7-0.7,1c-0.3,0.3-0.7,0.5-1.1,0.6s-0.9,0.2-1.4,0.2
				c-0.3,0-0.5,0-0.9,0c-0.3,0-0.6-0.1-0.9-0.1v-6c0.3-0.1,0.6-0.1,0.9-0.1s0.6,0,0.9,0c0.5,0,1,0.1,1.4,0.2s0.8,0.3,1.1,0.6
				c0.3,0.3,0.5,0.6,0.7,1C73.9,92.4,74,92.9,74,93.5z M69.8,95.6c0.1,0,0.2,0,0.3,0s0.3,0,0.4,0c0.8,0,1.3-0.2,1.7-0.6
				c0.4-0.4,0.6-0.9,0.6-1.6s-0.2-1.2-0.5-1.6c-0.4-0.4-0.9-0.6-1.7-0.6c-0.3,0-0.6,0-0.7,0L69.8,95.6L69.8,95.6z"/>
			<path class="st0" d="M75.6,96.6v-6.2h4v1h-2.9v1.5h2.5v0.9h-2.5v1.8h3.1v1C79.8,96.6,75.6,96.6,75.6,96.6z"/>
			<path class="st0" d="M83.9,96.6v-6.2h4v1H85v1.5h2.5v0.9H85v1.8h3.1v1C88.1,96.6,83.9,96.6,83.9,96.6z"/>
			<path class="st0" d="M92.1,96.7c-0.5,0-0.9-0.1-1.3-0.2s-0.7-0.4-0.9-0.6c-0.3-0.3-0.5-0.6-0.6-1s-0.2-0.9-0.2-1.4s0.1-1,0.2-1.4
				c0.2-0.4,0.4-0.7,0.6-1c0.3-0.3,0.6-0.5,1-0.6s0.8-0.2,1.2-0.2c0.3,0,0.5,0,0.7,0.1s0.4,0.1,0.5,0.1s0.3,0.1,0.4,0.2
				s0.2,0.1,0.2,0.1l-0.3,0.9c-0.1-0.1-0.3-0.2-0.6-0.3c-0.3-0.1-0.6-0.1-0.9-0.1s-0.5,0-0.8,0.1c-0.2,0.1-0.4,0.2-0.6,0.4
				c-0.2,0.2-0.3,0.4-0.4,0.7s-0.1,0.6-0.1,1c0,0.3,0,0.6,0.1,0.9s0.2,0.5,0.3,0.7c0.2,0.2,0.4,0.4,0.6,0.5s0.5,0.2,0.9,0.2
				s0.7,0,1-0.1s0.4-0.2,0.6-0.2l0.3,0.9c-0.1,0-0.2,0.1-0.3,0.1c-0.1,0-0.3,0.1-0.4,0.1c-0.2,0-0.4,0.1-0.6,0.1
				C92.6,96.7,92.4,96.7,92.1,96.7z"/>
			<path class="st0" d="M101.1,93.5c0,0.5-0.1,1-0.2,1.4c-0.2,0.4-0.4,0.7-0.6,1c-0.3,0.3-0.6,0.5-1,0.6s-0.8,0.2-1.2,0.2
				s-0.8-0.1-1.2-0.2c-0.4-0.1-0.7-0.3-1-0.6c-0.3-0.3-0.5-0.6-0.6-1c-0.2-0.4-0.2-0.9-0.2-1.4s0.1-1,0.2-1.4s0.4-0.7,0.7-1
				c0.3-0.3,0.6-0.5,1-0.6s0.8-0.2,1.2-0.2s0.8,0.1,1.2,0.2c0.4,0.1,0.7,0.3,1,0.6c0.3,0.3,0.5,0.6,0.7,1
				C101.1,92.5,101.1,92.9,101.1,93.5z M96.3,93.5c0,0.3,0,0.7,0.1,0.9c0.1,0.3,0.2,0.5,0.4,0.7c0.2,0.2,0.4,0.3,0.6,0.5
				c0.2,0.1,0.5,0.2,0.8,0.2s0.5-0.1,0.8-0.2s0.4-0.3,0.6-0.5s0.3-0.4,0.4-0.7c0.1-0.3,0.1-0.6,0.1-0.9s0-0.7-0.1-0.9
				c-0.1-0.3-0.2-0.5-0.4-0.7c-0.2-0.2-0.4-0.3-0.6-0.5s-0.5-0.2-0.8-0.2s-0.5,0.1-0.8,0.2c-0.2,0.1-0.4,0.3-0.6,0.5
				s-0.3,0.4-0.4,0.7C96.3,92.8,96.3,93.1,96.3,93.5z"/>
			<path class="st0" d="M105.7,91.2c-0.6,0-1.1,0.2-1.5,0.6c-0.3,0.4-0.5,0.9-0.5,1.7c0,0.3,0,0.6,0.1,0.9s0.2,0.5,0.4,0.7
				s0.4,0.4,0.6,0.5s0.5,0.2,0.8,0.2c0.2,0,0.4,0,0.5,0s0.3,0,0.3-0.1v-2.2h1.1v3c-0.2,0.1-0.4,0.1-0.8,0.2s-0.8,0.1-1.3,0.1
				c-0.4,0-0.9-0.1-1.2-0.2c-0.4-0.1-0.7-0.4-0.9-0.6c-0.3-0.3-0.5-0.6-0.6-1s-0.2-0.9-0.2-1.4s0.1-1,0.2-1.4s0.4-0.7,0.7-1
				c0.3-0.3,0.6-0.5,1-0.6s0.8-0.2,1.2-0.2c0.3,0,0.5,0,0.8,0.1c0.2,0,0.4,0.1,0.6,0.1s0.3,0.1,0.4,0.2s0.2,0.1,0.2,0.1l-0.3,0.9
				c-0.2-0.1-0.4-0.2-0.7-0.3C106.3,91.2,106,91.2,105.7,91.2z"/>
			<path class="st0" d="M111.1,90.3c0.9,0,1.6,0.2,2.1,0.5s0.7,0.8,0.7,1.5c0,0.8-0.4,1.4-1.2,1.7c0.1,0.1,0.2,0.3,0.4,0.5
				s0.3,0.4,0.4,0.6s0.3,0.5,0.4,0.7s0.3,0.5,0.4,0.7H113c-0.1-0.2-0.2-0.4-0.4-0.7c-0.1-0.2-0.3-0.4-0.4-0.6s-0.3-0.4-0.4-0.6
				s-0.3-0.3-0.4-0.5c-0.1,0-0.2,0-0.2,0s-0.1,0-0.2,0h-0.5v2.3h-1.1v-6.1c0.3-0.1,0.6-0.1,0.9-0.1
				C110.6,90.3,110.9,90.3,111.1,90.3z M111.2,91.3c-0.2,0-0.5,0-0.7,0v2h0.5c0.3,0,0.5,0,0.7,0s0.4-0.1,0.5-0.2s0.2-0.2,0.3-0.3
				c0.1-0.1,0.1-0.3,0.1-0.5s0-0.4-0.1-0.5s-0.2-0.2-0.3-0.3c-0.1-0.1-0.3-0.1-0.5-0.2C111.6,91.3,111.4,91.3,111.2,91.3z"/>
			<path class="st0" d="M119.9,96.6c-0.1-0.2-0.2-0.5-0.3-0.7c-0.1-0.2-0.2-0.5-0.3-0.7h-2.6c-0.1,0.3-0.2,0.5-0.3,0.7
				s-0.2,0.5-0.3,0.7h-1.2c0.2-0.7,0.5-1.3,0.7-1.8c0.2-0.6,0.4-1.1,0.6-1.6s0.4-1,0.6-1.4c0.2-0.5,0.4-0.9,0.6-1.3h1.1
				c0.2,0.4,0.4,0.9,0.6,1.3c0.2,0.5,0.4,0.9,0.6,1.4s0.4,1,0.6,1.6s0.4,1.2,0.7,1.8H119.9z M118.1,91.6c-0.1,0.3-0.3,0.7-0.5,1.2
				s-0.4,0.9-0.6,1.5h2c-0.2-0.5-0.4-1-0.6-1.5C118.4,92.2,118.2,91.9,118.1,91.6z"/>
			<path class="st0" d="M122.4,96.6v-6.2h3.9v1h-2.8V93h2.5v1h-2.5v2.7L122.4,96.6L122.4,96.6z"/>
			<path class="st0" d="M127.8,90.4h1.1v6.2h-1.1V90.4z M129.8,88.5l-1.5,1.4l-0.5-0.5l1.3-1.6L129.8,88.5z"/>
			<path class="st0" d="M135,96.6c-0.1-0.2-0.2-0.5-0.3-0.7c-0.1-0.2-0.2-0.5-0.3-0.7h-2.6c-0.1,0.3-0.2,0.5-0.3,0.7
				s-0.2,0.5-0.3,0.7H130c0.2-0.7,0.5-1.3,0.7-1.8c0.2-0.6,0.4-1.1,0.6-1.6s0.4-1,0.6-1.4c0.2-0.5,0.4-0.9,0.6-1.3h1.1
				c0.2,0.4,0.4,0.9,0.6,1.3c0.2,0.5,0.4,0.9,0.6,1.4s0.4,1,0.6,1.6s0.4,1.2,0.7,1.8H135z M133.1,91.6c-0.1,0.3-0.3,0.7-0.5,1.2
				s-0.4,0.9-0.6,1.5h2c-0.2-0.5-0.4-1-0.6-1.5C133.4,92.2,133.3,91.9,133.1,91.6z"/>
			<path class="st0" d="M145.2,93.5c0,0.5-0.1,1-0.3,1.4c-0.2,0.4-0.4,0.7-0.7,1c-0.3,0.3-0.7,0.5-1.1,0.6s-0.9,0.2-1.4,0.2
				c-0.3,0-0.5,0-0.9,0c-0.3,0-0.6-0.1-0.9-0.1v-6c0.3-0.1,0.6-0.1,0.9-0.1s0.6,0,0.9,0c0.5,0,1,0.1,1.4,0.2s0.8,0.3,1.1,0.6
				c0.3,0.3,0.5,0.6,0.7,1C145.1,92.4,145.2,92.9,145.2,93.5z M141.1,95.6c0.1,0,0.2,0,0.3,0s0.3,0,0.4,0c0.8,0,1.3-0.2,1.7-0.6
				c0.4-0.4,0.6-0.9,0.6-1.6s-0.2-1.2-0.5-1.6c-0.4-0.4-0.9-0.6-1.7-0.6c-0.3,0-0.6,0-0.7,0L141.1,95.6L141.1,95.6z"/>
			<path class="st0" d="M146.9,96.6v-6.2h4v1H148v1.5h2.5v0.9H148v1.8h3.1v1C151.1,96.6,146.9,96.6,146.9,96.6z"/>
			<path class="st0" d="M159.5,90.4v1h-1.9v5.2h-1.1v-5.2h-1.9v-1H159.5z"/>
			<path class="st0" d="M160.8,90.4h1.1v6.2h-1.1V90.4z"/>
			<path class="st0" d="M165.6,90.3c0.9,0,1.6,0.2,2.1,0.5s0.7,0.8,0.7,1.5c0,0.8-0.4,1.4-1.2,1.7c0.1,0.1,0.2,0.3,0.4,0.5
				s0.3,0.4,0.4,0.6s0.3,0.5,0.4,0.7s0.3,0.5,0.4,0.7h-1.3c-0.1-0.2-0.2-0.4-0.4-0.7c-0.1-0.2-0.3-0.4-0.4-0.6s-0.3-0.4-0.4-0.6
				s-0.3-0.3-0.4-0.5c-0.1,0-0.2,0-0.2,0s-0.1,0-0.2,0H165v2.3h-1.1v-6.1c0.3-0.1,0.6-0.1,0.9-0.1C165.1,90.3,165.3,90.3,165.6,90.3
				z M165.7,91.3c-0.2,0-0.5,0-0.7,0v2h0.5c0.3,0,0.5,0,0.7,0s0.4-0.1,0.5-0.2s0.2-0.2,0.3-0.3c0.1-0.1,0.1-0.3,0.1-0.5
				s0-0.4-0.1-0.5s-0.2-0.2-0.3-0.3c-0.1-0.1-0.3-0.1-0.5-0.2C166.1,91.3,165.9,91.3,165.7,91.3z"/>
			<path class="st0" d="M175.7,93.5c0,0.5-0.1,1-0.2,1.4c-0.2,0.4-0.4,0.7-0.6,1c-0.3,0.3-0.6,0.5-1,0.6s-0.8,0.2-1.2,0.2
				s-0.8-0.1-1.2-0.2c-0.4-0.1-0.7-0.3-1-0.6c-0.3-0.3-0.5-0.6-0.6-1c-0.2-0.4-0.2-0.9-0.2-1.4s0.1-1,0.2-1.4s0.4-0.7,0.7-1
				c0.3-0.3,0.6-0.5,1-0.6s0.8-0.2,1.2-0.2s0.8,0.1,1.2,0.2c0.4,0.1,0.7,0.3,1,0.6c0.3,0.3,0.5,0.6,0.7,1
				C175.7,92.5,175.7,92.9,175.7,93.5z M170.9,93.5c0,0.3,0,0.7,0.1,0.9c0.1,0.3,0.2,0.5,0.4,0.7c0.2,0.2,0.4,0.3,0.6,0.5
				c0.2,0.1,0.5,0.2,0.8,0.2s0.5-0.1,0.8-0.2s0.4-0.3,0.6-0.5s0.3-0.4,0.4-0.7c0.1-0.3,0.1-0.6,0.1-0.9s0-0.7-0.1-0.9
				c-0.1-0.3-0.2-0.5-0.4-0.7c-0.2-0.2-0.4-0.3-0.6-0.5s-0.5-0.2-0.8-0.2s-0.5,0.1-0.8,0.2c-0.2,0.1-0.4,0.3-0.6,0.5
				s-0.3,0.4-0.4,0.7C170.9,92.8,170.9,93.1,170.9,93.5z"/>
			<path class="st0" d="M177.4,90.4h1.1v6.2h-1.1V90.4z"/>
			<path class="st0" d="M185.8,93.5c0,0.5-0.1,1-0.3,1.4c-0.2,0.4-0.4,0.7-0.7,1c-0.3,0.3-0.7,0.5-1.1,0.6s-0.9,0.2-1.4,0.2
				c-0.3,0-0.5,0-0.9,0c-0.3,0-0.6-0.1-0.9-0.1v-6c0.3-0.1,0.6-0.1,0.9-0.1s0.6,0,0.9,0c0.5,0,1,0.1,1.4,0.2s0.8,0.3,1.1,0.6
				c0.3,0.3,0.5,0.6,0.7,1C185.7,92.4,185.8,92.9,185.8,93.5z M181.6,95.6c0.1,0,0.2,0,0.3,0s0.3,0,0.4,0c0.8,0,1.3-0.2,1.7-0.6
				c0.4-0.4,0.6-0.9,0.6-1.6s-0.2-1.2-0.5-1.6c-0.4-0.4-0.9-0.6-1.7-0.6c-0.3,0-0.6,0-0.7,0L181.6,95.6L181.6,95.6z"/>
			<path class="st0" d="M187.5,96.6v-6.2h4v1h-2.9v1.5h2.5v0.9h-2.5v1.8h3.1v1C191.7,96.6,187.5,96.6,187.5,96.6z"/>
			<path class="st0" d="M194.7,95.7c0.4,0,0.7-0.1,0.9-0.2c0.2-0.1,0.3-0.3,0.3-0.6c0-0.1,0-0.3-0.1-0.4s-0.2-0.2-0.3-0.3
				c-0.1-0.1-0.3-0.2-0.4-0.2c-0.2-0.1-0.4-0.1-0.6-0.2s-0.4-0.2-0.6-0.3s-0.4-0.2-0.5-0.3s-0.3-0.3-0.4-0.5s-0.1-0.4-0.1-0.7
				c0-0.6,0.2-1,0.6-1.3s0.9-0.5,1.6-0.5c0.4,0,0.7,0,1,0.1s0.5,0.2,0.7,0.3l-0.3,0.9c-0.2-0.1-0.4-0.2-0.7-0.3s-0.5-0.1-0.7-0.1
				c-0.3,0-0.5,0.1-0.7,0.2s-0.3,0.3-0.3,0.5c0,0.1,0,0.3,0.1,0.4s0.1,0.2,0.2,0.3c0.1,0.1,0.2,0.1,0.4,0.2c0.1,0.1,0.3,0.1,0.5,0.2
				c0.3,0.1,0.6,0.2,0.8,0.3c0.2,0.1,0.4,0.2,0.6,0.4s0.3,0.3,0.4,0.5s0.1,0.5,0.1,0.7c0,0.6-0.2,1-0.6,1.3s-1,0.5-1.7,0.5
				c-0.3,0-0.5,0-0.7,0s-0.4-0.1-0.6-0.1s-0.3-0.1-0.4-0.1c-0.1-0.1-0.2-0.1-0.3-0.1l0.3-0.9c0.2,0.1,0.4,0.2,0.7,0.3
				C193.9,95.7,194.3,95.7,194.7,95.7z"/>
			<path class="st0" d="M202.7,90.3c0.9,0,1.6,0.2,2.1,0.5s0.7,0.8,0.7,1.5c0,0.4-0.1,0.7-0.2,0.9c-0.1,0.3-0.3,0.5-0.6,0.6
				c-0.2,0.2-0.5,0.3-0.9,0.4s-0.8,0.1-1.2,0.1H202v2.2h-1.1v-6.1c0.3-0.1,0.6-0.1,0.9-0.1C202.2,90.3,202.5,90.3,202.7,90.3z
				 M202.8,91.3c-0.3,0-0.5,0-0.7,0v2.1h0.5c0.5,0,1-0.1,1.3-0.2s0.4-0.4,0.4-0.9c0-0.2,0-0.4-0.1-0.5s-0.2-0.2-0.3-0.3
				c-0.1-0.1-0.3-0.1-0.5-0.2C203.2,91.3,203,91.3,202.8,91.3z"/>
			<path class="st0" d="M210.7,96.6c-0.1-0.2-0.2-0.5-0.3-0.7c-0.1-0.2-0.2-0.5-0.3-0.7h-2.6c-0.1,0.3-0.2,0.5-0.3,0.7
				s-0.2,0.5-0.3,0.7h-1.2c0.2-0.7,0.5-1.3,0.7-1.8c0.2-0.6,0.4-1.1,0.6-1.6s0.4-1,0.6-1.4c0.2-0.5,0.4-0.9,0.6-1.3h1.1
				c0.2,0.4,0.4,0.9,0.6,1.3c0.2,0.5,0.4,0.9,0.6,1.4s0.4,1,0.6,1.6s0.4,1.2,0.7,1.8H210.7z M208.9,91.6c-0.1,0.3-0.3,0.7-0.5,1.2
				s-0.4,0.9-0.6,1.5h2c-0.2-0.5-0.4-1-0.6-1.5C209.2,92.2,209,91.9,208.9,91.6z"/>
			<path class="st0" d="M214.9,90.3c0.9,0,1.6,0.2,2.1,0.5s0.7,0.8,0.7,1.5c0,0.8-0.4,1.4-1.2,1.7c0.1,0.1,0.2,0.3,0.4,0.5
				s0.3,0.4,0.4,0.6s0.3,0.5,0.4,0.7s0.3,0.5,0.4,0.7h-1.3c-0.1-0.2-0.2-0.4-0.4-0.7c-0.1-0.2-0.3-0.4-0.4-0.6s-0.3-0.4-0.4-0.6
				s-0.3-0.3-0.4-0.5c-0.1,0-0.2,0-0.2,0s-0.1,0-0.2,0h-0.5v2.3h-1.1v-6.1c0.3-0.1,0.6-0.1,0.9-0.1
				C214.4,90.3,214.7,90.3,214.9,90.3z M215,91.3c-0.2,0-0.5,0-0.7,0v2h0.5c0.3,0,0.5,0,0.7,0s0.4-0.1,0.5-0.2s0.2-0.2,0.3-0.3
				c0.1-0.1,0.1-0.3,0.1-0.5s0-0.4-0.1-0.5s-0.2-0.2-0.3-0.3c-0.1-0.1-0.3-0.1-0.5-0.2C215.4,91.3,215.2,91.3,215,91.3z"/>
			<path class="st0" d="M223.7,96.6c-0.1-0.2-0.2-0.5-0.3-0.7c-0.1-0.2-0.2-0.5-0.3-0.7h-2.6c-0.1,0.3-0.2,0.5-0.3,0.7
				s-0.2,0.5-0.3,0.7h-1.2c0.2-0.7,0.5-1.3,0.7-1.8c0.2-0.6,0.4-1.1,0.6-1.6s0.4-1,0.6-1.4c0.2-0.5,0.4-0.9,0.6-1.3h1.1
				c0.2,0.4,0.4,0.9,0.6,1.3c0.2,0.5,0.4,0.9,0.6,1.4s0.4,1,0.6,1.6s0.4,1.2,0.7,1.8H223.7z M221.9,91.6c-0.1,0.3-0.3,0.7-0.5,1.2
				s-0.4,0.9-0.6,1.5h2c-0.2-0.5-0.4-1-0.6-1.5C222.2,92.2,222,91.9,221.9,91.6z"/>
			<path class="st0" d="M22.6,102c0.1,0.2,0.3,0.5,0.4,0.8c0.2,0.3,0.3,0.7,0.5,1c0.2,0.4,0.3,0.7,0.5,1.1s0.3,0.7,0.5,1
				c0.1-0.3,0.3-0.7,0.4-1c0.2-0.4,0.3-0.7,0.5-1.1s0.3-0.7,0.5-1s0.3-0.6,0.4-0.8h1c0.1,0.5,0.1,0.9,0.2,1.4s0.1,1,0.1,1.6
				c0,0.5,0.1,1.1,0.1,1.6s0.1,1.1,0.1,1.6h-1.1c0-0.7-0.1-1.5-0.1-2.2c0-0.8-0.1-1.5-0.2-2.2c-0.1,0.1-0.1,0.3-0.2,0.5
				s-0.2,0.4-0.3,0.6c-0.1,0.2-0.2,0.5-0.3,0.7c-0.1,0.2-0.2,0.5-0.3,0.7c-0.1,0.2-0.2,0.4-0.3,0.6c-0.1,0.2-0.2,0.4-0.2,0.5H24
				c-0.1-0.1-0.1-0.3-0.2-0.5s-0.2-0.4-0.3-0.6c-0.1-0.2-0.2-0.5-0.3-0.7c-0.1-0.2-0.2-0.5-0.3-0.7c-0.1-0.2-0.2-0.4-0.3-0.6
				s-0.2-0.4-0.2-0.5c-0.1,0.7-0.1,1.5-0.2,2.2c0,0.8-0.1,1.5-0.1,2.2H21c0-0.5,0.1-1,0.1-1.6s0.1-1.1,0.1-1.6s0.1-1.1,0.1-1.6
				s0.1-1,0.2-1.4H22.6z"/>
			<path class="st0" d="M29.6,108.2V102h4v1h-2.9v1.5h2.5v0.9h-2.5v1.8h3.1v1C33.8,108.2,29.6,108.2,29.6,108.2z M33.2,100.2
				l-1.5,1.4l-0.5-0.5l1.3-1.6L33.2,100.2z"/>
			<path class="st0" d="M40.6,105.1c0,0.5-0.1,1-0.3,1.4c-0.2,0.4-0.4,0.7-0.7,1c-0.3,0.3-0.7,0.5-1.1,0.6s-0.9,0.2-1.4,0.2
				c-0.3,0-0.5,0-0.9,0c-0.3,0-0.6-0.1-0.9-0.1v-6c0.3-0.1,0.6-0.1,0.9-0.1s0.6,0,0.9,0c0.5,0,1,0.1,1.4,0.2s0.8,0.3,1.1,0.6
				c0.3,0.3,0.5,0.6,0.7,1C40.5,104.1,40.6,104.6,40.6,105.1z M36.5,107.3c0.1,0,0.2,0,0.3,0s0.3,0,0.4,0c0.8,0,1.3-0.2,1.7-0.6
				c0.4-0.4,0.6-0.9,0.6-1.6s-0.2-1.2-0.5-1.6c-0.4-0.4-0.9-0.6-1.7-0.6c-0.3,0-0.6,0-0.7,0L36.5,107.3L36.5,107.3z"/>
			<path class="st0" d="M42.3,102h1.1v6.2h-1.1V102z"/>
			<path class="st0" d="M48.1,108.4c-0.5,0-0.9-0.1-1.3-0.2s-0.7-0.4-0.9-0.6c-0.3-0.3-0.5-0.6-0.6-1s-0.2-0.9-0.2-1.4
				s0.1-1,0.2-1.4c0.2-0.4,0.4-0.7,0.6-1c0.3-0.3,0.6-0.5,1-0.6s0.8-0.2,1.2-0.2c0.3,0,0.5,0,0.7,0.1s0.4,0.1,0.5,0.1
				s0.3,0.1,0.4,0.2s0.2,0.1,0.2,0.1l-0.3,0.9c-0.1-0.1-0.3-0.2-0.6-0.3c-0.3-0.1-0.6-0.1-0.9-0.1s-0.5,0-0.8,0.1
				c-0.2,0.1-0.4,0.2-0.6,0.4c-0.2,0.2-0.3,0.4-0.4,0.7s-0.1,0.6-0.1,1c0,0.3,0,0.6,0.1,0.9s0.2,0.5,0.3,0.7
				c0.2,0.2,0.4,0.4,0.6,0.5s0.5,0.2,0.9,0.2s0.7,0,1-0.1s0.4-0.2,0.6-0.2l0.3,0.9c-0.1,0-0.2,0.1-0.3,0.1c-0.1,0-0.3,0.1-0.4,0.1
				c-0.2,0-0.4,0.1-0.6,0.1C48.6,108.3,48.4,108.4,48.1,108.4z"/>
			<path class="st0" d="M57.2,105.1c0,0.5-0.1,1-0.2,1.4c-0.2,0.4-0.4,0.7-0.6,1c-0.3,0.3-0.6,0.5-1,0.6s-0.8,0.2-1.2,0.2
				s-0.8-0.1-1.2-0.2c-0.4-0.1-0.7-0.3-1-0.6c-0.3-0.3-0.5-0.6-0.6-1c-0.2-0.4-0.2-0.9-0.2-1.4s0.1-1,0.2-1.4s0.4-0.7,0.7-1
				c0.3-0.3,0.6-0.5,1-0.6s0.8-0.2,1.2-0.2s0.8,0.1,1.2,0.2c0.4,0.1,0.7,0.3,1,0.6c0.3,0.3,0.5,0.6,0.7,1
				C57.1,104.1,57.2,104.6,57.2,105.1z M52.3,105.1c0,0.3,0,0.7,0.1,0.9c0.1,0.3,0.2,0.5,0.4,0.7c0.2,0.2,0.4,0.3,0.6,0.5
				c0.2,0.1,0.5,0.2,0.8,0.2s0.5-0.1,0.8-0.2s0.4-0.3,0.6-0.5s0.3-0.4,0.4-0.7c0.1-0.3,0.1-0.6,0.1-0.9s0-0.7-0.1-0.9
				c-0.1-0.3-0.2-0.5-0.4-0.7c-0.2-0.2-0.4-0.3-0.6-0.5s-0.5-0.2-0.8-0.2s-0.5,0.1-0.8,0.2c-0.2,0.1-0.4,0.3-0.6,0.5
				s-0.3,0.4-0.4,0.7C52.3,104.5,52.3,104.8,52.3,105.1z"/>
			<path class="st0" d="M60.3,107.4c0.4,0,0.7-0.1,0.9-0.2c0.2-0.1,0.3-0.3,0.3-0.6c0-0.1,0-0.3-0.1-0.4s-0.2-0.2-0.3-0.3
				c-0.1-0.1-0.3-0.2-0.4-0.2c-0.2-0.1-0.4-0.1-0.6-0.2s-0.4-0.2-0.6-0.3s-0.4-0.2-0.5-0.3s-0.3-0.3-0.4-0.5s-0.1-0.4-0.1-0.7
				c0-0.6,0.2-1,0.6-1.3s0.9-0.5,1.6-0.5c0.4,0,0.7,0,1,0.1s0.5,0.2,0.7,0.3l-0.3,0.9c-0.2-0.1-0.4-0.2-0.7-0.3s-0.5-0.1-0.7-0.1
				c-0.3,0-0.5,0.1-0.7,0.2s-0.3,0.3-0.3,0.5c0,0.1,0,0.3,0.1,0.4s0.1,0.2,0.2,0.3c0.1,0.1,0.2,0.1,0.4,0.2c0.1,0.1,0.3,0.1,0.5,0.2
				c0.3,0.1,0.6,0.2,0.8,0.3c0.2,0.1,0.4,0.2,0.6,0.4s0.3,0.3,0.4,0.5s0.1,0.5,0.1,0.7c0,0.6-0.2,1-0.6,1.3s-1,0.5-1.7,0.5
				c-0.3,0-0.5,0-0.7,0s-0.4-0.1-0.6-0.1s-0.3-0.1-0.4-0.1c-0.1-0.1-0.2-0.1-0.3-0.1l0.3-0.9c0.2,0.1,0.4,0.2,0.7,0.3
				C59.5,107.3,59.9,107.4,60.3,107.4z"/>
			<path class="st0" d="M66.6,108.2V102h4v1h-2.9v1.5h2.5v0.9h-2.5v1.8h3.1v1C70.8,108.2,66.6,108.2,66.6,108.2z"/>
			<path class="st0" d="M73.8,107.4c0.4,0,0.7-0.1,0.9-0.2c0.2-0.1,0.3-0.3,0.3-0.6c0-0.1,0-0.3-0.1-0.4s-0.2-0.2-0.3-0.3
				c-0.1-0.1-0.3-0.2-0.4-0.2c-0.2-0.1-0.4-0.1-0.6-0.2s-0.4-0.2-0.6-0.3s-0.4-0.2-0.5-0.3s-0.3-0.3-0.4-0.5S72,104,72,103.7
				c0-0.6,0.2-1,0.6-1.3s0.9-0.5,1.6-0.5c0.4,0,0.7,0,1,0.1s0.5,0.2,0.7,0.3l-0.3,0.9c-0.2-0.1-0.4-0.2-0.7-0.3s-0.5-0.1-0.7-0.1
				c-0.3,0-0.5,0.1-0.7,0.2s-0.3,0.3-0.3,0.5c0,0.1,0,0.3,0.1,0.4s0.1,0.2,0.2,0.3c0.1,0.1,0.2,0.1,0.4,0.2c0.1,0.1,0.3,0.1,0.5,0.2
				c0.3,0.1,0.6,0.2,0.8,0.3c0.2,0.1,0.4,0.2,0.6,0.4s0.3,0.3,0.4,0.5s0.1,0.5,0.1,0.7c0,0.6-0.2,1-0.6,1.3s-1,0.5-1.7,0.5
				c-0.3,0-0.5,0-0.7,0s-0.4-0.1-0.6-0.1s-0.3-0.1-0.4-0.1c-0.1-0.1-0.2-0.1-0.3-0.1l0.3-0.9c0.2,0.1,0.4,0.2,0.7,0.3
				C73.1,107.3,73.4,107.4,73.8,107.4z"/>
			<path class="st0" d="M79.3,101.9c0.9,0,1.6,0.2,2.1,0.5s0.7,0.8,0.7,1.5c0,0.4-0.1,0.7-0.2,0.9c-0.1,0.3-0.3,0.5-0.6,0.6
				c-0.2,0.2-0.5,0.3-0.9,0.4s-0.8,0.1-1.2,0.1h-0.5v2.2h-1.1V102c0.3-0.1,0.6-0.1,0.9-0.1C78.8,102,79.1,101.9,79.3,101.9z
				 M79.4,102.9c-0.3,0-0.5,0-0.7,0v2.1h0.5c0.5,0,1-0.1,1.3-0.2s0.4-0.4,0.4-0.9c0-0.2,0-0.4-0.1-0.5s-0.2-0.2-0.3-0.3
				c-0.1-0.1-0.3-0.1-0.5-0.2C79.8,102.9,79.6,102.9,79.4,102.9z"/>
			<path class="st0" d="M83.6,108.2V102h4v1h-2.9v1.5h2.5v0.9h-2.5v1.8h3.1v1C87.8,108.2,83.6,108.2,83.6,108.2z"/>
			<path class="st0" d="M91.9,108.4c-0.5,0-0.9-0.1-1.3-0.2s-0.7-0.4-0.9-0.6c-0.3-0.3-0.5-0.6-0.6-1s-0.2-0.9-0.2-1.4
				s0.1-1,0.2-1.4c0.2-0.4,0.4-0.7,0.6-1c0.3-0.3,0.6-0.5,1-0.6s0.8-0.2,1.2-0.2c0.3,0,0.5,0,0.7,0.1s0.4,0.1,0.5,0.1
				s0.3,0.1,0.4,0.2s0.2,0.1,0.2,0.1l-0.3,0.9c-0.1-0.1-0.3-0.2-0.6-0.3c-0.3-0.1-0.6-0.1-0.9-0.1s-0.5,0-0.8,0.1
				c-0.2,0.1-0.4,0.2-0.6,0.4c-0.2,0.2-0.3,0.4-0.4,0.7s-0.1,0.6-0.1,1c0,0.3,0,0.6,0.1,0.9s0.2,0.5,0.3,0.7
				c0.2,0.2,0.4,0.4,0.6,0.5s0.5,0.2,0.9,0.2s0.7,0,1-0.1s0.4-0.2,0.6-0.2l0.3,0.9c-0.1,0-0.2,0.1-0.3,0.1c-0.1,0-0.3,0.1-0.4,0.1
				c-0.2,0-0.4,0.1-0.6,0.1C92.3,108.3,92.1,108.4,91.9,108.4z"/>
			<path class="st0" d="M95.3,102h1.1v6.2h-1.1V102z"/>
			<path class="st0" d="M102.5,108.2c-0.1-0.2-0.2-0.5-0.3-0.7c-0.1-0.2-0.2-0.5-0.3-0.7h-2.6c-0.1,0.3-0.2,0.5-0.3,0.7
				s-0.2,0.5-0.3,0.7h-1.2c0.2-0.7,0.5-1.3,0.7-1.8c0.2-0.6,0.4-1.1,0.6-1.6s0.4-1,0.6-1.4c0.2-0.5,0.4-0.9,0.6-1.3h1.1
				c0.2,0.4,0.4,0.9,0.6,1.3c0.2,0.5,0.4,0.9,0.6,1.4s0.4,1,0.6,1.6s0.4,1.2,0.7,1.8H102.5z M100.6,103.2c-0.1,0.3-0.3,0.7-0.5,1.2
				s-0.4,0.9-0.6,1.5h2c-0.2-0.5-0.4-1-0.6-1.5C100.9,103.9,100.8,103.5,100.6,103.2z"/>
			<path class="st0" d="M108.8,107.2v1h-3.9V102h1.1v5.2H108.8z"/>
			<path class="st0" d="M110.1,102h1.1v6.2h-1.1V102z"/>
			<path class="st0" d="M114.7,107.4c0.4,0,0.7-0.1,0.9-0.2c0.2-0.1,0.3-0.3,0.3-0.6c0-0.1,0-0.3-0.1-0.4s-0.2-0.2-0.3-0.3
				c-0.1-0.1-0.3-0.2-0.4-0.2c-0.2-0.1-0.4-0.1-0.6-0.2s-0.4-0.2-0.6-0.3s-0.4-0.2-0.5-0.3s-0.3-0.3-0.4-0.5s-0.1-0.4-0.1-0.7
				c0-0.6,0.2-1,0.6-1.3s0.9-0.5,1.6-0.5c0.4,0,0.7,0,1,0.1s0.5,0.2,0.7,0.3l-0.3,0.9c-0.2-0.1-0.4-0.2-0.7-0.3s-0.5-0.1-0.7-0.1
				c-0.3,0-0.5,0.1-0.7,0.2s-0.3,0.3-0.3,0.5c0,0.1,0,0.3,0.1,0.4s0.1,0.2,0.2,0.3c0.1,0.1,0.2,0.1,0.4,0.2c0.1,0.1,0.3,0.1,0.5,0.2
				c0.3,0.1,0.6,0.2,0.8,0.3c0.2,0.1,0.4,0.2,0.6,0.4s0.3,0.3,0.4,0.5s0.1,0.5,0.1,0.7c0,0.6-0.2,1-0.6,1.3s-1,0.5-1.7,0.5
				c-0.3,0-0.5,0-0.7,0s-0.4-0.1-0.6-0.1s-0.3-0.1-0.4-0.1c-0.1-0.1-0.2-0.1-0.3-0.1l0.3-0.9c0.2,0.1,0.4,0.2,0.7,0.3
				C114,107.3,114.3,107.4,114.7,107.4z"/>
			<path class="st0" d="M122.8,102v1h-1.9v5.2h-1.1V103h-1.9v-1H122.8z"/>
			<path class="st0" d="M127.8,108.2c-0.1-0.2-0.2-0.5-0.3-0.7c-0.1-0.2-0.2-0.5-0.3-0.7h-2.6c-0.1,0.3-0.2,0.5-0.3,0.7
				s-0.2,0.5-0.3,0.7h-1.2c0.2-0.7,0.5-1.3,0.7-1.8c0.2-0.6,0.4-1.1,0.6-1.6s0.4-1,0.6-1.4c0.2-0.5,0.4-0.9,0.6-1.3h1.1
				c0.2,0.4,0.4,0.9,0.6,1.3c0.2,0.5,0.4,0.9,0.6,1.4s0.4,1,0.6,1.6s0.4,1.2,0.7,1.8H127.8z M125.9,103.2c-0.1,0.3-0.3,0.7-0.5,1.2
				s-0.4,0.9-0.6,1.5h2c-0.2-0.5-0.4-1-0.6-1.5C126.2,103.9,126.1,103.5,125.9,103.2z"/>
			<path class="st0" d="M131.8,107.4c0.4,0,0.7-0.1,0.9-0.2c0.2-0.1,0.3-0.3,0.3-0.6c0-0.1,0-0.3-0.1-0.4s-0.2-0.2-0.3-0.3
				c-0.1-0.1-0.3-0.2-0.4-0.2c-0.2-0.1-0.4-0.1-0.6-0.2s-0.4-0.2-0.6-0.3s-0.4-0.2-0.5-0.3s-0.3-0.3-0.4-0.5s-0.1-0.4-0.1-0.7
				c0-0.6,0.2-1,0.6-1.3s0.9-0.5,1.6-0.5c0.4,0,0.7,0,1,0.1s0.5,0.2,0.7,0.3l-0.3,0.9c-0.2-0.1-0.4-0.2-0.7-0.3s-0.5-0.1-0.7-0.1
				c-0.3,0-0.5,0.1-0.7,0.2s-0.3,0.3-0.3,0.5c0,0.1,0,0.3,0.1,0.4s0.1,0.2,0.2,0.3c0.1,0.1,0.2,0.1,0.4,0.2c0.1,0.1,0.3,0.1,0.5,0.2
				c0.3,0.1,0.6,0.2,0.8,0.3c0.2,0.1,0.4,0.2,0.6,0.4s0.3,0.3,0.4,0.5s0.1,0.5,0.1,0.7c0,0.6-0.2,1-0.6,1.3s-1,0.5-1.7,0.5
				c-0.3,0-0.5,0-0.7,0s-0.4-0.1-0.6-0.1s-0.3-0.1-0.4-0.1c-0.1-0.1-0.2-0.1-0.3-0.1l0.3-0.9c0.2,0.1,0.4,0.2,0.7,0.3
				C131.1,107.3,131.4,107.4,131.8,107.4z"/>
			<path class="st0" d="M138.2,108.2V102h4v1h-2.9v1.5h2.5v0.9h-2.5v1.8h3.1v1C142.4,108.2,138.2,108.2,138.2,108.2z"/>
			<path class="st0" d="M148,108.2c-0.2-0.3-0.4-0.7-0.7-1.1s-0.5-0.8-0.8-1.2s-0.5-0.8-0.8-1.2c-0.3-0.4-0.5-0.7-0.8-1v4.4h-1.1
				V102h0.9c0.2,0.3,0.5,0.5,0.8,0.9c0.3,0.3,0.6,0.7,0.8,1.1c0.3,0.4,0.5,0.7,0.8,1.1s0.5,0.7,0.7,1V102h1.1v6.2H148z"/>
			<path class="st0" d="M153.5,108.2V102h4v1h-2.9v1.5h2.5v0.9h-2.5v1.8h3.1v1C157.7,108.2,153.5,108.2,153.5,108.2z"/>
			<path class="st0" d="M163.4,108.2c-0.2-0.3-0.4-0.7-0.7-1.1s-0.5-0.8-0.8-1.2s-0.5-0.8-0.8-1.2c-0.3-0.4-0.5-0.7-0.8-1v4.4h-1.1
				V102h0.9c0.2,0.3,0.5,0.5,0.8,0.9c0.3,0.3,0.6,0.7,0.8,1.1c0.3,0.4,0.5,0.7,0.8,1.1s0.5,0.7,0.7,1V102h1.1v6.2H163.4z"/>
			<path class="st0" d="M171.5,105.1c0,0.5-0.1,1-0.3,1.4c-0.2,0.4-0.4,0.7-0.7,1c-0.3,0.3-0.7,0.5-1.1,0.6s-0.9,0.2-1.4,0.2
				c-0.3,0-0.5,0-0.9,0c-0.3,0-0.6-0.1-0.9-0.1v-6c0.3-0.1,0.6-0.1,0.9-0.1s0.6,0,0.9,0c0.5,0,1,0.1,1.4,0.2s0.8,0.3,1.1,0.6
				c0.3,0.3,0.5,0.6,0.7,1C171.5,104.1,171.5,104.6,171.5,105.1z M167.4,107.3c0.1,0,0.2,0,0.3,0s0.3,0,0.4,0c0.8,0,1.3-0.2,1.7-0.6
				c0.4-0.4,0.6-0.9,0.6-1.6s-0.2-1.2-0.5-1.6c-0.4-0.4-0.9-0.6-1.7-0.6c-0.3,0-0.6,0-0.7,0L167.4,107.3L167.4,107.3z"/>
			<path class="st0" d="M179,105.1c0,0.5-0.1,1-0.2,1.4c-0.2,0.4-0.4,0.7-0.6,1c-0.3,0.3-0.6,0.5-1,0.6s-0.8,0.2-1.2,0.2
				s-0.8-0.1-1.2-0.2c-0.4-0.1-0.7-0.3-1-0.6c-0.3-0.3-0.5-0.6-0.6-1c-0.2-0.4-0.2-0.9-0.2-1.4s0.1-1,0.2-1.4s0.4-0.7,0.7-1
				c0.3-0.3,0.6-0.5,1-0.6s0.8-0.2,1.2-0.2s0.8,0.1,1.2,0.2c0.4,0.1,0.7,0.3,1,0.6c0.3,0.3,0.5,0.6,0.7,1
				C178.9,104.1,179,104.6,179,105.1z M174.1,105.1c0,0.3,0,0.7,0.1,0.9c0.1,0.3,0.2,0.5,0.4,0.7c0.2,0.2,0.4,0.3,0.6,0.5
				c0.2,0.1,0.5,0.2,0.8,0.2s0.5-0.1,0.8-0.2s0.4-0.3,0.6-0.5s0.3-0.4,0.4-0.7c0.1-0.3,0.1-0.6,0.1-0.9s0-0.7-0.1-0.9
				c-0.1-0.3-0.2-0.5-0.4-0.7c-0.2-0.2-0.4-0.3-0.6-0.5s-0.5-0.2-0.8-0.2s-0.5,0.1-0.8,0.2c-0.2,0.1-0.4,0.3-0.6,0.5
				s-0.3,0.4-0.4,0.7C174.2,104.5,174.1,104.8,174.1,105.1z"/>
			<path class="st0" d="M183.4,108.4c-0.5,0-0.9-0.1-1.3-0.2s-0.7-0.4-0.9-0.6c-0.3-0.3-0.5-0.6-0.6-1s-0.2-0.9-0.2-1.4
				s0.1-1,0.2-1.4c0.2-0.4,0.4-0.7,0.6-1c0.3-0.3,0.6-0.5,1-0.6s0.8-0.2,1.2-0.2c0.3,0,0.5,0,0.7,0.1s0.4,0.1,0.5,0.1
				s0.3,0.1,0.4,0.2s0.2,0.1,0.2,0.1l-0.3,0.9c-0.1-0.1-0.3-0.2-0.6-0.3c-0.3-0.1-0.6-0.1-0.9-0.1s-0.5,0-0.8,0.1
				c-0.2,0.1-0.4,0.2-0.6,0.4c-0.2,0.2-0.3,0.4-0.4,0.7s-0.1,0.6-0.1,1c0,0.3,0,0.6,0.1,0.9s0.2,0.5,0.3,0.7
				c0.2,0.2,0.4,0.4,0.6,0.5s0.5,0.2,0.9,0.2s0.7,0,1-0.1s0.4-0.2,0.6-0.2l0.3,0.9c-0.1,0-0.2,0.1-0.3,0.1c-0.1,0-0.3,0.1-0.4,0.1
				c-0.2,0-0.4,0.1-0.6,0.1C183.9,108.3,183.7,108.4,183.4,108.4z"/>
			<path class="st0" d="M188.6,101.9c0.9,0,1.6,0.2,2.1,0.5s0.7,0.8,0.7,1.5c0,0.8-0.4,1.4-1.2,1.7c0.1,0.1,0.2,0.3,0.4,0.5
				s0.3,0.4,0.4,0.6s0.3,0.5,0.4,0.7s0.3,0.5,0.4,0.7h-1.3c-0.1-0.2-0.2-0.4-0.4-0.7c-0.1-0.2-0.3-0.4-0.4-0.6s-0.3-0.4-0.4-0.6
				s-0.3-0.3-0.4-0.5c-0.1,0-0.2,0-0.2,0s-0.1,0-0.2,0H188v2.3h-1.1v-6.1c0.3-0.1,0.6-0.1,0.9-0.1C188,102,188.3,101.9,188.6,101.9z
				 M188.6,102.9c-0.2,0-0.5,0-0.7,0v2h0.5c0.3,0,0.5,0,0.7,0s0.4-0.1,0.5-0.2s0.2-0.2,0.3-0.3c0.1-0.1,0.1-0.3,0.1-0.5
				s0-0.4-0.1-0.5s-0.2-0.2-0.3-0.3c-0.1-0.1-0.3-0.1-0.5-0.2C189.1,102.9,188.9,102.9,188.6,102.9z"/>
			<path class="st0" d="M193,102h1.1v6.2H193V102z"/>
			<path class="st0" d="M200.3,108.2c-0.2-0.3-0.4-0.7-0.7-1.1s-0.5-0.8-0.8-1.2s-0.5-0.8-0.8-1.2c-0.3-0.4-0.5-0.7-0.8-1v4.4h-1.1
				V102h0.9c0.2,0.3,0.5,0.5,0.8,0.9c0.3,0.3,0.6,0.7,0.8,1.1c0.3,0.4,0.5,0.7,0.8,1.1s0.5,0.7,0.7,1V102h1.1v6.2H200.3z"/>
			<path class="st0" d="M209,105.1c0,0.5-0.1,1-0.2,1.4c-0.2,0.4-0.4,0.7-0.6,1c-0.3,0.3-0.6,0.5-1,0.6s-0.8,0.2-1.2,0.2
				s-0.8-0.1-1.2-0.2c-0.4-0.1-0.7-0.3-1-0.6c-0.3-0.3-0.5-0.6-0.6-1c-0.2-0.4-0.2-0.9-0.2-1.4s0.1-1,0.2-1.4s0.4-0.7,0.7-1
				c0.3-0.3,0.6-0.5,1-0.6s0.8-0.2,1.2-0.2s0.8,0.1,1.2,0.2c0.4,0.1,0.7,0.3,1,0.6c0.3,0.3,0.5,0.6,0.7,1
				C208.9,104.1,209,104.6,209,105.1z M204.1,105.1c0,0.3,0,0.7,0.1,0.9c0.1,0.3,0.2,0.5,0.4,0.7c0.2,0.2,0.4,0.3,0.6,0.5
				c0.2,0.1,0.5,0.2,0.8,0.2s0.5-0.1,0.8-0.2s0.4-0.3,0.6-0.5s0.3-0.4,0.4-0.7c0.1-0.3,0.1-0.6,0.1-0.9s0-0.7-0.1-0.9
				c-0.1-0.3-0.2-0.5-0.4-0.7c-0.2-0.2-0.4-0.3-0.6-0.5s-0.5-0.2-0.8-0.2s-0.5,0.1-0.8,0.2c-0.2,0.1-0.4,0.3-0.6,0.5
				s-0.3,0.4-0.4,0.7C204.2,104.5,204.1,104.8,204.1,105.1z"/>
			<path class="st0" d="M214.6,107.2v1h-3.9V102h1.1v5.2H214.6z"/>
			<path class="st0" d="M221.3,105.1c0,0.5-0.1,1-0.2,1.4c-0.2,0.4-0.4,0.7-0.6,1c-0.3,0.3-0.6,0.5-1,0.6s-0.8,0.2-1.2,0.2
				s-0.8-0.1-1.2-0.2c-0.4-0.1-0.7-0.3-1-0.6c-0.3-0.3-0.5-0.6-0.6-1c-0.2-0.4-0.2-0.9-0.2-1.4s0.1-1,0.2-1.4s0.4-0.7,0.7-1
				c0.3-0.3,0.6-0.5,1-0.6s0.8-0.2,1.2-0.2s0.8,0.1,1.2,0.2c0.4,0.1,0.7,0.3,1,0.6c0.3,0.3,0.5,0.6,0.7,1
				C221.2,104.1,221.3,104.6,221.3,105.1z M216.4,105.1c0,0.3,0,0.7,0.1,0.9c0.1,0.3,0.2,0.5,0.4,0.7c0.2,0.2,0.4,0.3,0.6,0.5
				c0.2,0.1,0.5,0.2,0.8,0.2s0.5-0.1,0.8-0.2s0.4-0.3,0.6-0.5s0.3-0.4,0.4-0.7c0.1-0.3,0.1-0.6,0.1-0.9s0-0.7-0.1-0.9
				c-0.1-0.3-0.2-0.5-0.4-0.7c-0.2-0.2-0.4-0.3-0.6-0.5s-0.5-0.2-0.8-0.2s-0.5,0.1-0.8,0.2c-0.2,0.1-0.4,0.3-0.6,0.5
				s-0.3,0.4-0.4,0.7C216.5,104.5,216.4,104.8,216.4,105.1z"/>
			<path class="st0" d="M225.9,102.9c-0.6,0-1.1,0.2-1.5,0.6c-0.3,0.4-0.5,0.9-0.5,1.7c0,0.3,0,0.6,0.1,0.9s0.2,0.5,0.4,0.7
				s0.4,0.4,0.6,0.5s0.5,0.2,0.8,0.2c0.2,0,0.4,0,0.5,0s0.3,0,0.3-0.1v-2.2h1.1v3c-0.2,0.1-0.4,0.1-0.8,0.2s-0.8,0.1-1.3,0.1
				c-0.4,0-0.9-0.1-1.2-0.2c-0.4-0.1-0.7-0.4-0.9-0.6c-0.3-0.3-0.5-0.6-0.6-1s-0.2-0.9-0.2-1.4s0.1-1,0.2-1.4s0.4-0.7,0.7-1
				c0.3-0.3,0.6-0.5,1-0.6s0.8-0.2,1.2-0.2c0.3,0,0.5,0,0.8,0.1c0.2,0,0.4,0.1,0.6,0.1s0.3,0.1,0.4,0.2s0.2,0.1,0.2,0.1l-0.3,0.9
				c-0.2-0.1-0.4-0.2-0.7-0.3C226.5,102.9,226.2,102.9,225.9,102.9z"/>
			<path class="st0" d="M229.6,102h1.1v6.2h-1.1V102z M231.6,100.2l-1.5,1.4l-0.5-0.5l1.3-1.6L231.6,100.2z"/>
			<path class="st0" d="M236.8,108.2c-0.1-0.2-0.2-0.5-0.3-0.7c-0.1-0.2-0.2-0.5-0.3-0.7h-2.6c-0.1,0.3-0.2,0.5-0.3,0.7
				s-0.2,0.5-0.3,0.7h-1.2c0.2-0.7,0.5-1.3,0.7-1.8c0.2-0.6,0.4-1.1,0.6-1.6s0.4-1,0.6-1.4c0.2-0.5,0.4-0.9,0.6-1.3h1.1
				c0.2,0.4,0.4,0.9,0.6,1.3c0.2,0.5,0.4,0.9,0.6,1.4s0.4,1,0.6,1.6s0.4,1.2,0.7,1.8H236.8z M234.9,103.2c-0.1,0.3-0.3,0.7-0.5,1.2
				s-0.4,0.9-0.6,1.5h2c-0.2-0.5-0.4-1-0.6-1.5C235.2,103.9,235.1,103.5,234.9,103.2z"/>
		</g>
	</g>
	<g>
		<path d="M96.9,41.3c-0.4,0-0.9-0.1-1.3-0.2c-0.7-0.3-0.9-0.7-0.8-1.3c0.1-0.3,0.3-0.6,0.5-0.8c0.4-0.5,0.9-1,1.4-1.5
			c1.2-1.1,2.6-2.1,4-3s2.9-1.7,4.6-2.3c0.7-0.3,1.5-0.5,2.3-0.6c0.3,0,0.6-0.1,0.9-0.1c0.8,0.1,1,0.4,0.7,1
			c-0.2,0.3-0.5,0.6-0.8,0.9c-0.3,0.3-0.7,0.6-1,0.9c-0.1,0.1-0.2,0.2-0.3,0.2c-0.9,0.8-1.8,1.6-2.5,2.5c-0.3,0.4-0.6,0.8-0.8,1.2
			c-0.1,0.3-0.2,0.5-0.1,0.6s0.3,0.2,0.6,0.3c0.1,0,0.1,0,0.1,0.1v0.1c0,0,0,0.1-0.1,0.1h-0.1c-0.2,0-0.4,0-0.6-0.1
			s-0.3-0.3-0.4-0.5c-0.1-0.3,0-0.7,0.2-1c0.3-0.6,0.8-1.2,1.3-1.7c0.7-0.8,1.4-1.5,2.2-2.1c0.2-0.2,0.5-0.4,0.7-0.6l0,0
			c0.4-0.3,0.7-0.7,1-1.1c0.3-0.3,0.1-0.5-0.3-0.5c-0.5,0-1,0.1-1.5,0.3c-0.9,0.2-1.7,0.5-2.5,0.9c-3,1.4-5.7,3.2-7.9,5.4
			c-0.4,0.3-0.7,0.7-0.9,1.1c-0.5,0.7-0.2,1.1,0.7,1.3c0.4,0.1,0.8,0.1,1.2,0.1c0.6,0,1.2,0,1.8,0c0.3,0,0.5,0,0.8,0
			c0.1,0,0.1,0,0.2,0s0.3,0,0.4,0s0.1,0,0.2,0s0.1,0.1,0.1,0.1c0,0.1,0,0.2,0,0.2c-0.1,0.1-0.1,0.1-0.2,0.1c-0.3,0.2-0.7,0.3-1,0.4
			c-2.3,0.8-4.3,2-6,3.6c-0.7,0.6-1.2,1.3-1.6,2.1s-0.1,1.2,1,1.2c0.7,0,1.3-0.1,1.9-0.3c1.9-0.6,3.8-1.4,5.5-2.3
			c3.6-1.8,6.7-3.4,9.3-5c0,0,0,0,0.1,0c0,0,0.1,0,0.1-0.1c0.1,0,0.2,0,0.3,0l0.1,0.1c0,0,0,0.1-0.1,0.1c-0.1,0.1-0.3,0.2-0.4,0.3
			c-2.9,1.6-6.2,3.4-9.9,5.2c-1.6,0.8-3.2,1.4-4.9,1.9c-0.7,0.2-1.3,0.3-2,0.3l0,0c-0.2,0-0.4,0-0.6-0.1c-0.7-0.2-1-0.6-0.9-1.2
			c0.1-0.3,0.2-0.5,0.3-0.8c0.4-0.7,0.9-1.4,1.6-2c1.6-1.4,3.4-2.6,5.5-3.4h0.1c0.2,0,0.4-0.2,0.6-0.3
			C98.6,41.4,97.7,41.4,96.9,41.3z"/>
		<path d="M110.5,44.9c0.3-0.6,0.6-1.2,0.9-1.8c0.3-0.5,0.2-1-0.1-1.4c-0.2-0.2-0.3-0.5-0.2-0.8c0-0.2,0.1-0.3,0.3-0.4
			c0.2-0.1,0.4-0.1,0.5-0.1c0.2,0.1,0.2,0.2,0.1,0.4c-0.1,0.1-0.1,0.3-0.2,0.4c-0.2,0.2-0.2,0.3,0,0.5s0.3,0.5,0.3,0.7
			c0,0.3-0.1,0.5-0.2,0.8c-0.2,0.6-0.5,1.1-0.8,1.6c0,0.1-0.1,0.2-0.1,0.3c0,0,0,0,0,0.1c-0.5,0.8-0.8,1.5-1,2.3v0.1
			c0,0.1-0.1,0.2-0.1,0.3s0,0.2,0.2,0.2c0.1,0.1,0.3,0.1,0.4,0s0.2-0.1,0.3-0.2l0.1-0.1c0.4-0.3,0.8-0.6,1.1-1
			c0.9-0.8,1.8-1.7,2.8-2.6c1-0.9,1.9-1.8,2.7-2.6l0.1-0.1c0-0.1,0.1-0.1,0.2-0.2c0.1,0,0.1,0,0.2,0c0.1,0.1,0.1,0.1,0.1,0.2
			c0,0.1-0.1,0.1-0.2,0.2c0,0,0,0-0.1,0.1c-0.7,0.7-1.4,1.3-2.2,2.1c-1.4,1.4-2.8,2.7-4.1,3.9c-0.3,0.2-0.5,0.4-0.8,0.6
			c-0.8,0.4-1.2,0.3-1.2-0.5c0-0.1,0-0.1,0-0.2l0,0C109.6,46.7,110,45.8,110.5,44.9z"/>
		<path d="M118,43.1c0.2-0.7,0.5-1.3,1-1.8c0.1-0.1,0.1-0.1,0.2-0.2c0.1-0.1,0.2-0.1,0.3,0l0.1,0.1c0,0,0,0.1-0.1,0.1
			c-0.3,0.2-0.5,0.5-0.7,0.7c-0.1,0.3-0.3,0.6-0.4,0.9V43c-0.2,0.6,0.1,0.9,0.9,0.8c0.5,0,0.9-0.2,1.3-0.3c1-0.4,2-0.9,3-1.4
			c0.1,0,0.1-0.1,0.2-0.1c0.2-0.1,0.3-0.2,0.4-0.2c0.3-0.2,0.5-0.3,0.8-0.4l0,0c0.1,0,0.1-0.1,0.2-0.1s0.1,0,0.2,0.1
			c0,0.1,0.1,0.1,0,0.2l-0.1,0.1c-0.3,0.2-0.7,0.4-1,0.5c-0.6,0.3-1.2,0.7-1.9,1s-1.3,0.6-2,0.8c-0.4,0.2-0.9,0.2-1.4,0.2
			C118.2,44.2,117.8,43.8,118,43.1z M120.1,39.6C120.1,39.6,120.1,39.5,120.1,39.6c0-0.3,0.1-0.4,0.2-0.5s0.4-0.2,0.6-0.2h0.1
			c0,0,0.1,0,0.1,0.1v0.1l-0.1,0.1c-0.3,0.1-0.5,0.2-0.6,0.4C120.4,39.6,120.4,39.6,120.1,39.6C120.2,39.6,120.2,39.6,120.1,39.6z"
			/>
		<path d="M126.5,42c-0.3,0.4-0.5,0.8-0.6,1.3c-0.1,0.6,0.2,0.8,0.9,0.7c0.6-0.1,1.2-0.2,1.8-0.5c1.1-0.5,2.2-1,3.4-1.6
			c0.3-0.1,0.6-0.3,0.8-0.4c0,0,0.1,0,0.1-0.1c0.1-0.1,0.3-0.1,0.4-0.2h0.1c0,0,0.1,0,0.1,0.1c0,0,0,0,0,0.1v0.1
			c-0.1,0.1-0.2,0.2-0.3,0.2c-0.2,0.1-0.4,0.2-0.6,0.3c-1.3,0.7-2.6,1.3-3.9,1.9c-0.7,0.3-1.4,0.4-2.1,0.5c-0.9,0-1.3-0.3-1.2-1
			c0.1-0.9,0.6-1.7,1.4-2.3c0.5-0.4,1.1-0.7,1.8-0.9c0.1,0,0.2,0,0.3-0.1s0.2,0,0.3,0.1c0.1,0.1,0.2,0.2,0.1,0.3
			c0,0.1,0,0.2-0.1,0.3c-0.1,0.2-0.3,0.4-0.5,0.5h-0.1h-0.1c0,0,0-0.1-0.1-0.1s0-0.1,0-0.1c0-0.1,0.1-0.1,0.1-0.2
			c0-0.1,0.1-0.1,0.1-0.2c0-0.1,0.1-0.2,0.1-0.3C127.9,40.7,127,41.2,126.5,42z"/>
	</g>
	<g>
		<g>
			<g>
				<path class="st1" d="M127.9,29.8l-0.5,0.6l-0.3-0.3l0.5-0.6L127.9,29.8z"/>
				<path class="st1" d="M130.8,24.7l0.7-0.3"/>
				<path class="st1" d="M139.4,22.6l1.2,0.1"/>
				<path class="st1" d="M144.1,25.3l0.7,0.3l-0.2,0.4"/>
			</g>
			<g>
				<path class="st1" d="M133,51.7l-0.7-0.3l0.2-0.4l0.7,0.3L133,51.7z"/>
				<path class="st1" d="M137.7,53.5l-1.3-0.2"/>
				<path class="st1" d="M138.9,53.6h-0.6 M140,53.5h-0.6"/>
				<path class="st1" d="M141.6,53.3l-0.6,0.1"/>
				<path class="st1" d="M150.6,46.5l-0.5,0.6l-0.3-0.3l0.5-0.6L150.6,46.5z"/>
			</g>
		</g>
		<g>
			<path class="st1" d="M143.9,56.5c-10.1,2.7-20.5-3.3-23.2-13.4s3.3-20.5,13.4-23.2s20.5,3.3,23.2,13.4
				C160,43.4,154,53.8,143.9,56.5z M134.3,21c-9.5,2.5-15.1,12.3-12.6,21.8s12.3,15.1,21.8,12.6s15.1-12.3,12.6-21.8
				S143.8,18.5,134.3,21z"/>
		</g>
		<g>
			<path class="st1" d="M152.4,46l-1-0.6c1.9-3.3,2.4-7.2,1.4-10.9s-3.4-6.8-6.7-8.7l0.6-1c3.6,2.1,6.1,5.4,7.2,9.4
				C155,38.2,154.4,42.4,152.4,46z"/>
		</g>
		<g>
			<path class="st1" d="M131.2,51.7c-3.6-2.1-6.1-5.4-7.2-9.4s-0.5-8.2,1.5-11.8l1,0.6c-1.9,3.3-2.4,7.2-1.4,10.9s3.4,6.8,6.7,8.7
				L131.2,51.7z"/>
		</g>
		<g>
			<polygon class="st1" points="143.2,27.3 135.4,40.7 130.5,37.9 127.6,42.9 137.5,48.6 148.2,30.2 			"/>
		</g>
	</g>
</g>
</svg>
