<?xml version="1.0" encoding="utf-8"?>
<!-- Generator: Adobe Illustrator 26.1.0, SVG Export Plug-In . SVG Version: 6.00 Build 0)  -->
<svg version="1.1" id="Capa_1" xmlns="http://www.w3.org/2000/svg" xmlns:xlink="http://www.w3.org/1999/xlink" x="0px" y="0px"
	 viewBox="0 0 258.9 121.4" style="enable-background:new 0 0 258.9 121.4;" xml:space="preserve">
<style type="text/css">
	.st0{fill:#606060;}
</style>
<g>
	<g>
		<g>
			<g>
				<path d="M49.6,62.4h1.8v8.1h-1.8v-3.4h-3.1v3.4h-1.8v-8.1h1.8v3.1h3.1V62.4z"/>
				<path d="M54,70.5v-8.1h5.5v1.5h-3.6v1.6h3.2V67h-3.2v2h3.9v1.5H54z"/>
				<path d="M67.2,70.5c-0.5-0.9-1.1-1.8-1.7-2.7c-0.6-0.9-1.3-1.8-1.9-2.6v5.3h-1.8v-8.1h1.5c0.3,0.3,0.5,0.6,0.9,0.9
					c0.3,0.4,0.6,0.8,1,1.2c0.3,0.4,0.6,0.9,1,1.3c0.3,0.5,0.6,0.9,0.9,1.3v-4.8h1.8v8.1L67.2,70.5L67.2,70.5z"/>
				<path d="M73.7,62.3c1.2,0,2.1,0.2,2.8,0.6c0.6,0.4,1,1.1,1,2c0,0.6-0.1,1-0.4,1.4s-0.6,0.6-1.1,0.8c0.2,0.2,0.3,0.4,0.5,0.7
					c0.2,0.3,0.4,0.5,0.5,0.8c0.2,0.3,0.3,0.6,0.5,0.9s0.3,0.6,0.5,0.9h-2c-0.1-0.3-0.3-0.5-0.5-0.8s-0.3-0.5-0.5-0.8
					s-0.3-0.5-0.5-0.7s-0.3-0.4-0.5-0.6h-0.9v3h-1.8v-8c0.4-0.1,0.8-0.1,1.2-0.2C73,62.3,73.4,62.3,73.7,62.3z M73.8,63.9
					c-0.1,0-0.3,0-0.4,0s-0.2,0-0.3,0v2.2h0.5c0.7,0,1.2-0.1,1.5-0.3s0.4-0.5,0.4-0.9s-0.1-0.7-0.4-0.8S74.4,63.9,73.8,63.9z"/>
				<path d="M82.4,65.7c0.3-0.6,0.6-1.1,0.9-1.7c0.3-0.6,0.6-1.1,0.8-1.7h2c-0.4,0.9-0.9,1.7-1.4,2.5c-0.5,0.8-1,1.6-1.5,2.5v3.1
					h-1.8v-3.1c-0.5-0.8-1-1.6-1.5-2.5c-0.5-0.8-0.9-1.7-1.4-2.5h2.1c0.2,0.6,0.5,1.1,0.8,1.7C81.8,64.6,82.1,65.2,82.4,65.7z"/>
				<path d="M97.3,62.4V64h-2.4v6.5h-1.8V64h-2.4v-1.6H97.3z"/>
				<path d="M106.6,66.4c0,0.7-0.1,1.3-0.3,1.8c-0.2,0.5-0.5,1-0.8,1.3c-0.4,0.4-0.8,0.6-1.3,0.8s-1,0.3-1.6,0.3s-1.1-0.1-1.6-0.3
					s-0.9-0.4-1.3-0.8s-0.7-0.8-0.9-1.3c-0.2-0.5-0.3-1.1-0.3-1.8s0.1-1.3,0.3-1.8s0.5-1,0.9-1.3c0.4-0.4,0.8-0.6,1.3-0.8
					s1-0.3,1.5-0.3c0.6,0,1.1,0.1,1.6,0.3s0.9,0.4,1.3,0.8c0.4,0.4,0.7,0.8,0.9,1.3S106.6,65.7,106.6,66.4z M100.5,66.4
					c0,0.4,0,0.8,0.1,1.1c0.1,0.3,0.2,0.6,0.4,0.8s0.4,0.4,0.7,0.5c0.3,0.1,0.6,0.2,0.9,0.2s0.6-0.1,0.9-0.2s0.5-0.3,0.7-0.5
					s0.3-0.5,0.4-0.8s0.1-0.7,0.1-1.1s0-0.8-0.1-1.1c-0.1-0.3-0.2-0.6-0.4-0.8s-0.4-0.4-0.7-0.5c-0.3-0.1-0.6-0.2-0.9-0.2
					s-0.6,0.1-0.9,0.2c-0.3,0.1-0.5,0.3-0.7,0.5s-0.3,0.5-0.4,0.8C100.5,65.7,100.5,66,100.5,66.4z"/>
				<path d="M111,70.5c-0.3-0.7-0.6-1.4-1-2.1c-0.3-0.7-0.6-1.5-0.9-2.2s-0.5-1.4-0.8-2.1s-0.4-1.2-0.6-1.8h2c0.2,0.5,0.3,1,0.5,1.5
					c0.2,0.5,0.4,1.1,0.6,1.6s0.4,1,0.6,1.5s0.3,0.9,0.5,1.3c0.2-0.4,0.3-0.8,0.5-1.3s0.4-1,0.6-1.5s0.4-1.1,0.6-1.6s0.4-1,0.5-1.5
					h1.9c-0.2,0.5-0.4,1.1-0.6,1.8c-0.2,0.7-0.5,1.3-0.8,2.1c-0.3,0.7-0.6,1.4-0.9,2.2c-0.3,0.7-0.6,1.4-0.9,2.1
					C112.8,70.5,111,70.5,111,70.5z"/>
				<path d="M122.4,70.5c-0.1-0.3-0.2-0.6-0.3-0.9c-0.1-0.3-0.2-0.6-0.3-0.9h-3.2c-0.1,0.3-0.2,0.6-0.3,0.9s-0.2,0.6-0.3,0.9h-1.9
					c0.3-0.9,0.6-1.7,0.9-2.4c0.3-0.7,0.5-1.4,0.8-2.1s0.5-1.3,0.8-1.9s0.5-1.2,0.8-1.7h1.7c0.3,0.6,0.5,1.1,0.8,1.7
					c0.3,0.6,0.5,1.2,0.8,1.9s0.5,1.4,0.8,2.1s0.6,1.5,0.9,2.4H122.4z M120.2,64.2c0,0.1-0.1,0.3-0.2,0.5s-0.2,0.4-0.3,0.7
					c-0.1,0.3-0.2,0.6-0.3,0.9c-0.1,0.3-0.2,0.7-0.4,1h2.3c-0.1-0.4-0.2-0.7-0.4-1s-0.2-0.6-0.3-0.9c-0.1-0.3-0.2-0.5-0.3-0.7
					S120.2,64.3,120.2,64.2z"/>
				<path d="M128.4,62.3c1.2,0,2.1,0.2,2.8,0.6c0.6,0.4,1,1.1,1,2c0,0.6-0.1,1-0.4,1.4c-0.3,0.4-0.6,0.6-1.1,0.8
					c0.2,0.2,0.3,0.4,0.5,0.7c0.2,0.3,0.4,0.5,0.5,0.8c0.2,0.3,0.3,0.6,0.5,0.9s0.3,0.6,0.5,0.9h-2c-0.1-0.3-0.3-0.5-0.5-0.8
					s-0.3-0.5-0.5-0.8s-0.3-0.5-0.5-0.7s-0.3-0.4-0.5-0.6h-0.9v3H126v-8c0.4-0.1,0.8-0.1,1.2-0.2C127.7,62.3,128.1,62.3,128.4,62.3z
					 M128.5,63.9c-0.1,0-0.3,0-0.4,0c-0.1,0-0.2,0-0.3,0v2.2h0.5c0.7,0,1.2-0.1,1.5-0.3s0.4-0.5,0.4-0.9s-0.1-0.7-0.4-0.8
					S129.1,63.9,128.5,63.9z"/>
				<path d="M141.7,70.6c-1.3,0-2.3-0.4-3-1.1s-1-1.8-1-3.1c0-0.7,0.1-1.3,0.3-1.8s0.5-1,0.9-1.3c0.4-0.4,0.8-0.6,1.3-0.8
					s1.1-0.3,1.6-0.3c0.3,0,0.7,0,0.9,0.1c0.3,0,0.5,0.1,0.7,0.2s0.4,0.1,0.5,0.2c0.1,0.1,0.2,0.1,0.3,0.2l-0.5,1.5
					c-0.2-0.1-0.5-0.2-0.9-0.3c-0.3-0.1-0.7-0.1-1.1-0.1c-0.3,0-0.6,0-0.8,0.1c-0.3,0.1-0.5,0.2-0.7,0.4s-0.4,0.5-0.5,0.8
					s-0.2,0.7-0.2,1.2c0,0.4,0,0.7,0.1,1s0.2,0.6,0.4,0.8c0.2,0.2,0.4,0.4,0.7,0.6c0.3,0.1,0.7,0.2,1.1,0.2c0.3,0,0.5,0,0.7,0
					s0.4-0.1,0.6-0.1c0.2,0,0.3-0.1,0.4-0.1c0.1-0.1,0.2-0.1,0.3-0.2l0.5,1.5c-0.3,0.2-0.6,0.3-1.1,0.4
					C142.9,70.6,142.3,70.6,141.7,70.6z"/>
				<path d="M153.7,66.4c0,0.7-0.1,1.3-0.3,1.8s-0.5,1-0.8,1.3c-0.4,0.4-0.8,0.6-1.3,0.8s-1,0.3-1.6,0.3s-1.1-0.1-1.6-0.3
					s-0.9-0.4-1.3-0.8c-0.4-0.4-0.7-0.8-0.9-1.3s-0.3-1.1-0.3-1.8s0.1-1.3,0.3-1.8s0.5-1,0.9-1.3c0.4-0.4,0.8-0.6,1.3-0.8
					s1-0.3,1.5-0.3c0.6,0,1.1,0.1,1.6,0.3s0.9,0.4,1.3,0.8c0.4,0.4,0.7,0.8,0.9,1.3S153.7,65.7,153.7,66.4z M147.5,66.4
					c0,0.4,0,0.8,0.1,1.1c0.1,0.3,0.2,0.6,0.4,0.8s0.4,0.4,0.7,0.5s0.6,0.2,0.9,0.2c0.3,0,0.6-0.1,0.9-0.2c0.3-0.1,0.5-0.3,0.7-0.5
					s0.3-0.5,0.4-0.8c0.1-0.3,0.1-0.7,0.1-1.1s0-0.8-0.1-1.1c-0.1-0.3-0.2-0.6-0.4-0.8s-0.4-0.4-0.7-0.5s-0.6-0.2-0.9-0.2
					c-0.3,0-0.6,0.1-0.9,0.2c-0.3,0.1-0.5,0.3-0.7,0.5s-0.3,0.5-0.4,0.8C147.6,65.7,147.5,66,147.5,66.4z"/>
				<path d="M158.3,62.3c1.2,0,2.1,0.2,2.8,0.6c0.6,0.4,1,1.1,1,2c0,0.6-0.1,1-0.4,1.4c-0.3,0.4-0.6,0.6-1.1,0.8
					c0.2,0.2,0.3,0.4,0.5,0.7c0.2,0.3,0.4,0.5,0.5,0.8c0.2,0.3,0.3,0.6,0.5,0.9s0.3,0.6,0.5,0.9h-2c-0.1-0.3-0.3-0.5-0.5-0.8
					s-0.3-0.5-0.5-0.8s-0.3-0.5-0.5-0.7s-0.3-0.4-0.5-0.6h-0.9v3h-1.8v-8c0.4-0.1,0.8-0.1,1.2-0.2C157.6,62.3,158,62.3,158.3,62.3z
					 M158.4,63.9c-0.1,0-0.3,0-0.4,0c-0.1,0-0.2,0-0.3,0v2.2h0.5c0.7,0,1.2-0.1,1.5-0.3s0.4-0.5,0.4-0.9s-0.1-0.7-0.4-0.8
					S159,63.9,158.4,63.9z"/>
				<path d="M170.3,62.4V64h-2.4v6.5H166V64h-2.4v-1.6H170.3z"/>
				<path d="M172.2,70.5v-8.1h5.5v1.5H174v1.6h3.2V67H174v2h3.9v1.5H172.2z M176.4,60.3l-1.9,1.6l-0.8-0.7l1.7-1.9L176.4,60.3z"/>
				<path d="M182.1,69.1c0.3,0,0.5,0,0.6-0.1c0.2,0,0.3-0.1,0.4-0.2c0.1-0.1,0.2-0.2,0.2-0.3c0-0.1,0.1-0.2,0.1-0.3
					c0-0.3-0.1-0.5-0.4-0.7c-0.2-0.2-0.7-0.4-1.3-0.6c-0.3-0.1-0.5-0.2-0.8-0.3c-0.3-0.1-0.5-0.3-0.7-0.5s-0.4-0.4-0.5-0.7
					c-0.1-0.3-0.2-0.6-0.2-1s0.1-0.7,0.2-1c0.1-0.3,0.3-0.6,0.6-0.8s0.6-0.4,0.9-0.5c0.4-0.1,0.8-0.2,1.2-0.2c0.5,0,1,0.1,1.4,0.2
					c0.4,0.1,0.7,0.2,1,0.4l-0.5,1.4c-0.2-0.1-0.5-0.2-0.8-0.3s-0.6-0.1-1-0.1s-0.7,0.1-0.9,0.2c-0.2,0.1-0.3,0.3-0.3,0.6
					c0,0.1,0,0.3,0.1,0.4s0.2,0.2,0.3,0.3c0.1,0.1,0.3,0.2,0.4,0.2c0.2,0.1,0.4,0.1,0.6,0.2c0.4,0.2,0.8,0.3,1.1,0.5
					s0.6,0.3,0.8,0.5s0.4,0.4,0.5,0.7c0.1,0.3,0.2,0.6,0.2,1c0,0.8-0.3,1.3-0.8,1.8s-1.3,0.6-2.4,0.6c-0.4,0-0.7,0-1-0.1
					s-0.5-0.1-0.8-0.2c-0.2-0.1-0.4-0.1-0.6-0.2c-0.2-0.1-0.3-0.1-0.4-0.2l0.5-1.4c0.2,0.1,0.5,0.3,0.9,0.4
					C181.2,69,181.6,69.1,182.1,69.1z"/>
				<path d="M189.1,68.7c0,0.2,0,0.3,0,0.4s0,0.1,0,0.2c0,0.2,0,0.5-0.1,0.7s-0.1,0.5-0.2,0.8c-0.1,0.3-0.2,0.5-0.3,0.8
					s-0.2,0.5-0.4,0.8l-1.4-0.3c0.2-0.5,0.3-1,0.4-1.4c0.1-0.5,0.1-0.8,0.1-1.1c0,0,0-0.1,0-0.2s0-0.1,0-0.2s0-0.2,0-0.2v-0.1h1.9
					V68.7z"/>
				<path d="M196.8,62.4c0.1,0.3,0.3,0.6,0.5,1s0.4,0.8,0.6,1.2c0.2,0.4,0.4,0.9,0.6,1.3c0.2,0.5,0.4,0.9,0.5,1.3
					c0.2-0.4,0.4-0.8,0.5-1.3c0.2-0.5,0.4-0.9,0.6-1.3s0.4-0.8,0.6-1.2c0.2-0.4,0.3-0.7,0.5-1h1.7c0.1,0.5,0.1,1.1,0.2,1.8
					c0.1,0.7,0.1,1.4,0.2,2.1s0.1,1.4,0.1,2.2c0,0.7,0.1,1.4,0.1,2h-1.8c0-0.8-0.1-1.6-0.1-2.6s-0.1-1.9-0.2-2.8
					c-0.1,0.3-0.3,0.7-0.5,1.1s-0.3,0.8-0.5,1.2c-0.2,0.4-0.3,0.8-0.5,1.1c-0.2,0.4-0.3,0.7-0.4,0.9h-1.3c-0.1-0.3-0.2-0.6-0.4-0.9
					c-0.2-0.4-0.3-0.7-0.5-1.1s-0.3-0.8-0.5-1.2c-0.2-0.4-0.3-0.8-0.5-1.1c-0.1,0.9-0.1,1.9-0.2,2.8s-0.1,1.8-0.1,2.6h-1.8
					c0-0.6,0.1-1.3,0.1-2s0.1-1.4,0.1-2.2s0.1-1.4,0.2-2.1c0.1-0.7,0.1-1.3,0.2-1.8C194.8,62.4,196.8,62.4,196.8,62.4z"/>
				<path d="M212.9,66.4c0,0.7-0.1,1.3-0.3,1.8s-0.5,1-0.9,1.3s-0.9,0.6-1.5,0.8c-0.6,0.2-1.2,0.3-1.9,0.3c-0.3,0-0.7,0-1.1,0
					c-0.4,0-0.9-0.1-1.3-0.2v-7.9c0.4-0.1,0.9-0.1,1.3-0.2s0.8,0,1.2,0c0.7,0,1.3,0.1,1.9,0.2c0.6,0.2,1,0.4,1.5,0.7
					c0.4,0.3,0.7,0.8,0.9,1.3S212.9,65.7,212.9,66.4z M207.6,69c0.1,0,0.2,0,0.3,0s0.2,0,0.4,0c0.9,0,1.6-0.2,2-0.7s0.7-1.1,0.7-1.9
					s-0.2-1.5-0.6-1.9c-0.4-0.4-1.1-0.7-2-0.7c-0.1,0-0.3,0-0.4,0c-0.1,0-0.3,0-0.4,0V69z"/>
			</g>
		</g>
		<g>
			<g>
				<path class="st0" d="M106.6,77.1c0.9,0,1.6,0.2,2.1,0.5s0.7,0.8,0.7,1.5c0,0.4-0.1,0.7-0.2,0.9c-0.1,0.3-0.3,0.5-0.6,0.6
					c-0.2,0.2-0.5,0.3-0.9,0.4s-0.8,0.1-1.2,0.1h-0.6v2.2h-1.1v-6.1c0.3-0.1,0.6-0.1,0.9-0.1C106,77.1,106.3,77.1,106.6,77.1z
					 M106.6,78.1c-0.3,0-0.5,0-0.7,0v2.1h0.5c0.5,0,1-0.1,1.3-0.2s0.4-0.4,0.4-0.9c0-0.2,0-0.4-0.1-0.5s-0.2-0.2-0.3-0.3
					c-0.1-0.1-0.3-0.1-0.5-0.2C107.1,78.1,106.9,78.1,106.6,78.1z"/>
				<path class="st0" d="M113.5,79.7c-0.1,0-0.2-0.1-0.4-0.1c-0.2,0-0.3,0-0.6,0c-0.1,0-0.2,0-0.4,0c-0.1,0-0.2,0-0.3,0.1v3.8h-1.1
					V79c0.2-0.1,0.5-0.2,0.8-0.2c0.3-0.1,0.7-0.1,1-0.1c0.1,0,0.2,0,0.3,0s0.2,0,0.3,0c0.1,0,0.2,0,0.3,0.1c0.1,0,0.2,0,0.2,0.1
					L113.5,79.7z"/>
				<path class="st0" d="M114.6,81.1c0-0.4,0.1-0.8,0.2-1.1c0.1-0.3,0.3-0.6,0.5-0.8s0.4-0.4,0.7-0.5c0.3-0.1,0.5-0.2,0.8-0.2
					c0.6,0,1.1,0.2,1.5,0.6s0.5,1,0.5,1.8c0,0.1,0,0.1,0,0.2s0,0.1,0,0.2h-3.1c0,0.4,0.2,0.7,0.4,0.9c0.2,0.2,0.6,0.3,1,0.3
					c0.3,0,0.5,0,0.7-0.1s0.4-0.1,0.5-0.2l0.1,0.9c-0.1,0-0.1,0.1-0.2,0.1s-0.2,0.1-0.4,0.1c-0.1,0-0.3,0-0.4,0.1
					c-0.2,0-0.3,0-0.5,0c-0.4,0-0.8-0.1-1.1-0.2c-0.3-0.1-0.6-0.3-0.8-0.5c-0.2-0.2-0.3-0.5-0.4-0.8
					C114.6,81.7,114.6,81.4,114.6,81.1z M117.7,80.6c0-0.1,0-0.3-0.1-0.4s-0.1-0.3-0.2-0.3c-0.1-0.1-0.2-0.2-0.3-0.2
					c-0.1-0.1-0.3-0.1-0.4-0.1c-0.2,0-0.3,0-0.4,0.1s-0.2,0.1-0.3,0.2s-0.2,0.2-0.2,0.3s-0.1,0.3-0.1,0.4H117.7z"/>
				<path class="st0" d="M121.6,82.6c0.3,0,0.5,0,0.6-0.1s0.2-0.2,0.2-0.4c0-0.2-0.1-0.3-0.2-0.4s-0.4-0.2-0.7-0.3
					c-0.2-0.1-0.4-0.1-0.5-0.2c-0.2-0.1-0.3-0.2-0.4-0.3c-0.1-0.1-0.2-0.2-0.3-0.4c-0.1-0.2-0.1-0.3-0.1-0.6c0-0.4,0.2-0.8,0.5-1
					s0.7-0.4,1.3-0.4c0.3,0,0.5,0,0.8,0.1s0.4,0.1,0.6,0.1l-0.2,0.9c-0.1-0.1-0.3-0.1-0.5-0.1s-0.4-0.1-0.6-0.1s-0.4,0-0.5,0.1
					s-0.2,0.2-0.2,0.3c0,0.1,0,0.1,0,0.2s0.1,0.1,0.1,0.2s0.2,0.1,0.3,0.2s0.2,0.1,0.4,0.2c0.3,0.1,0.5,0.2,0.7,0.3
					c0.2,0.1,0.3,0.2,0.4,0.3c0.1,0.1,0.2,0.2,0.3,0.4c0.1,0.1,0.1,0.3,0.1,0.5c0,0.4-0.2,0.8-0.5,1s-0.8,0.3-1.4,0.3
					c-0.4,0-0.7,0-1-0.1s-0.4-0.1-0.5-0.2l0.2-0.9c0.2,0.1,0.4,0.1,0.6,0.2C121,82.6,121.3,82.6,121.6,82.6z"/>
				<path class="st0" d="M126.2,77.3c0,0.2-0.1,0.4-0.2,0.5s-0.3,0.2-0.5,0.2s-0.3-0.1-0.5-0.2c-0.1-0.1-0.2-0.3-0.2-0.5
					s0.1-0.4,0.2-0.5s0.3-0.2,0.5-0.2s0.3,0.1,0.5,0.2C126.1,76.9,126.2,77.1,126.2,77.3z M126.1,83.4H125v-4.7h1.1V83.4z"/>
				<path class="st0" d="M131.8,83.2c-0.2,0.1-0.5,0.1-0.8,0.2s-0.7,0.1-1,0.1c-0.4,0-0.7-0.1-1-0.2s-0.5-0.3-0.7-0.5
					s-0.4-0.5-0.5-0.8s-0.2-0.6-0.2-1s0-0.7,0.1-1s0.2-0.6,0.4-0.8c0.2-0.2,0.4-0.4,0.7-0.5s0.6-0.2,0.9-0.2c0.2,0,0.4,0,0.6,0.1
					c0.2,0.1,0.3,0.1,0.4,0.2v-2.2l1.1-0.2V83.2z M128.7,81c0,0.5,0.1,0.9,0.3,1.1c0.2,0.3,0.5,0.4,0.9,0.4c0.2,0,0.3,0,0.4,0
					c0.1,0,0.2,0,0.3,0v-2.7c-0.1-0.1-0.2-0.1-0.4-0.2s-0.3-0.1-0.5-0.1c-0.4,0-0.7,0.1-0.9,0.4C128.8,80.2,128.7,80.6,128.7,81z"/>
				<path class="st0" d="M133.4,81.1c0-0.4,0.1-0.8,0.2-1.1c0.1-0.3,0.3-0.6,0.5-0.8s0.4-0.4,0.7-0.5s0.5-0.2,0.8-0.2
					c0.6,0,1.1,0.2,1.5,0.6s0.5,1,0.5,1.8c0,0.1,0,0.1,0,0.2s0,0.1,0,0.2h-3.1c0,0.4,0.2,0.7,0.4,0.9c0.2,0.2,0.6,0.3,1,0.3
					c0.3,0,0.5,0,0.7-0.1s0.4-0.1,0.5-0.2l0.1,0.9c-0.1,0-0.1,0.1-0.2,0.1s-0.2,0.1-0.4,0.1c-0.1,0-0.3,0-0.4,0.1
					c-0.2,0-0.3,0-0.5,0c-0.4,0-0.8-0.1-1.1-0.2s-0.6-0.3-0.8-0.5s-0.3-0.5-0.4-0.8C133.5,81.7,133.4,81.4,133.4,81.1z M136.6,80.6
					c0-0.1,0-0.3-0.1-0.4s-0.1-0.3-0.2-0.3c-0.1-0.1-0.2-0.2-0.3-0.2c-0.1-0.1-0.3-0.1-0.4-0.1c-0.2,0-0.3,0-0.4,0.1
					c-0.1,0.1-0.2,0.1-0.3,0.2s-0.2,0.2-0.2,0.3s-0.1,0.3-0.1,0.4H136.6z"/>
				<path class="st0" d="M139.2,78.8c0.2-0.1,0.5-0.1,0.8-0.2s0.7-0.1,1.1-0.1c0.4,0,0.7,0.1,1,0.2s0.5,0.3,0.6,0.4
					c0.2,0.2,0.3,0.4,0.3,0.7c0.1,0.3,0.1,0.6,0.1,0.9v2.6H142v-2.5c0-0.3,0-0.5,0-0.6c0-0.2-0.1-0.3-0.2-0.4
					c-0.1-0.1-0.2-0.2-0.3-0.2c-0.1-0.1-0.3-0.1-0.5-0.1c-0.1,0-0.3,0-0.4,0c-0.2,0-0.3,0-0.3,0v3.8h-1.1V78.8L139.2,78.8z"/>
				<path class="st0" d="M144.9,77.5l1.1-0.2v1.4h1.7v0.9H146v1.9c0,0.4,0.1,0.6,0.2,0.8c0.1,0.2,0.3,0.2,0.6,0.2
					c0.2,0,0.4,0,0.5-0.1s0.3-0.1,0.4-0.1l0.2,0.9c-0.1,0.1-0.3,0.1-0.5,0.2s-0.4,0.1-0.7,0.1s-0.6,0-0.8-0.1s-0.4-0.2-0.5-0.4
					c-0.1-0.2-0.2-0.4-0.3-0.6s-0.1-0.5-0.1-0.8L144.9,77.5L144.9,77.5z"/>
				<path class="st0" d="M148.8,81.1c0-0.4,0.1-0.8,0.2-1.1c0.1-0.3,0.3-0.6,0.5-0.8s0.4-0.4,0.7-0.5s0.5-0.2,0.8-0.2
					c0.6,0,1.1,0.2,1.5,0.6s0.5,1,0.5,1.8c0,0.1,0,0.1,0,0.2s0,0.1,0,0.2h-3.1c0,0.4,0.2,0.7,0.4,0.9c0.2,0.2,0.6,0.3,1,0.3
					c0.3,0,0.5,0,0.7-0.1s0.4-0.1,0.5-0.2l0.1,0.9c-0.1,0-0.1,0.1-0.2,0.1s-0.2,0.1-0.4,0.1c-0.1,0-0.3,0-0.4,0.1
					c-0.2,0-0.3,0-0.5,0c-0.4,0-0.8-0.1-1.1-0.2s-0.6-0.3-0.8-0.5s-0.3-0.5-0.4-0.8C148.8,81.7,148.8,81.4,148.8,81.1z M151.9,80.6
					c0-0.1,0-0.3-0.1-0.4s-0.1-0.3-0.2-0.3c-0.1-0.1-0.2-0.2-0.3-0.2c-0.1-0.1-0.3-0.1-0.4-0.1c-0.2,0-0.3,0-0.4,0.1
					c-0.1,0.1-0.2,0.1-0.3,0.2s-0.2,0.2-0.2,0.3s-0.1,0.3-0.1,0.4H151.9z"/>
			</g>
		</g>
		<g>
			<g>
				<path class="st0" d="M18,96.6c-0.1-0.2-0.2-0.5-0.3-0.7c-0.1-0.2-0.2-0.5-0.3-0.7h-2.6c-0.1,0.3-0.2,0.5-0.3,0.7
					s-0.2,0.5-0.3,0.7H13c0.2-0.7,0.5-1.3,0.7-1.8c0.2-0.6,0.4-1.1,0.6-1.6c0.2-0.5,0.4-1,0.6-1.4c0.2-0.5,0.4-0.9,0.6-1.3h1.1
					c0.2,0.4,0.4,0.9,0.6,1.3c0.2,0.5,0.4,0.9,0.6,1.4s0.4,1,0.6,1.6s0.4,1.2,0.7,1.8H18z M16.2,91.6c-0.1,0.3-0.3,0.7-0.5,1.2
					s-0.4,0.9-0.6,1.5h2c-0.2-0.5-0.4-1-0.6-1.5C16.4,92.2,16.3,91.9,16.2,91.6z"/>
				<path class="st0" d="M22.1,95.7c0.4,0,0.7-0.1,0.9-0.2c0.2-0.1,0.3-0.3,0.3-0.6c0-0.1,0-0.3-0.1-0.4s-0.2-0.2-0.3-0.3
					c-0.1-0.1-0.3-0.2-0.4-0.2c-0.2-0.1-0.4-0.1-0.6-0.2s-0.4-0.2-0.6-0.3s-0.4-0.2-0.5-0.3s-0.3-0.3-0.4-0.5s-0.1-0.4-0.1-0.7
					c0-0.6,0.2-1,0.6-1.3s0.9-0.5,1.6-0.5c0.4,0,0.7,0,1,0.1s0.5,0.2,0.7,0.3l-0.3,0.9c-0.2-0.1-0.4-0.2-0.7-0.3s-0.5-0.1-0.7-0.1
					c-0.3,0-0.5,0.1-0.7,0.2s-0.3,0.3-0.3,0.5c0,0.1,0,0.3,0.1,0.4s0.1,0.2,0.2,0.3c0.1,0.1,0.2,0.1,0.4,0.2
					c0.1,0.1,0.3,0.1,0.5,0.2c0.3,0.1,0.6,0.2,0.8,0.3c0.2,0.1,0.4,0.2,0.6,0.4s0.3,0.3,0.4,0.5s0.1,0.5,0.1,0.7
					c0,0.6-0.2,1-0.6,1.3s-1,0.5-1.7,0.5c-0.3,0-0.5,0-0.7,0s-0.4-0.1-0.6-0.1s-0.3-0.1-0.4-0.1c-0.1-0.1-0.2-0.1-0.3-0.1l0.3-0.9
					c0.2,0.1,0.4,0.2,0.7,0.3C21.3,95.7,21.7,95.7,22.1,95.7z"/>
				<path class="st0" d="M31.6,93.5c0,0.5-0.1,1-0.2,1.4c-0.2,0.4-0.4,0.7-0.6,1c-0.3,0.3-0.6,0.5-1,0.6s-0.8,0.2-1.2,0.2
					s-0.8-0.1-1.2-0.2c-0.4-0.1-0.7-0.3-1-0.6c-0.3-0.3-0.5-0.6-0.6-1c-0.2-0.4-0.2-0.9-0.2-1.4s0.1-1,0.2-1.4s0.4-0.7,0.7-1
					c0.3-0.3,0.6-0.5,1-0.6s0.8-0.2,1.2-0.2s0.8,0.1,1.2,0.2c0.4,0.1,0.7,0.3,1,0.6c0.3,0.3,0.5,0.6,0.7,1
					C31.5,92.5,31.6,92.9,31.6,93.5z M26.8,93.5c0,0.3,0,0.7,0.1,0.9c0.1,0.3,0.2,0.5,0.4,0.7c0.2,0.2,0.4,0.3,0.6,0.5
					c0.2,0.1,0.5,0.2,0.8,0.2s0.5-0.1,0.8-0.2s0.4-0.3,0.6-0.5s0.3-0.4,0.4-0.7c0.1-0.3,0.1-0.6,0.1-0.9s0-0.7-0.1-0.9
					c-0.1-0.3-0.2-0.5-0.4-0.7c-0.2-0.2-0.4-0.3-0.6-0.5s-0.5-0.2-0.8-0.2s-0.5,0.1-0.8,0.2c-0.2,0.1-0.4,0.3-0.6,0.5
					s-0.3,0.4-0.4,0.7C26.8,92.8,26.8,93.1,26.8,93.5z"/>
				<path class="st0" d="M36.1,96.7c-0.5,0-0.9-0.1-1.3-0.2c-0.4-0.1-0.7-0.4-0.9-0.6c-0.3-0.3-0.5-0.6-0.6-1s-0.2-0.9-0.2-1.4
					s0.1-1,0.2-1.4c0.2-0.4,0.4-0.7,0.6-1c0.3-0.3,0.6-0.5,1-0.6s0.8-0.2,1.2-0.2c0.3,0,0.5,0,0.7,0.1s0.4,0.1,0.5,0.1
					s0.3,0.1,0.4,0.2s0.2,0.1,0.2,0.1l-0.3,0.9c-0.1-0.1-0.3-0.2-0.6-0.3c-0.3-0.1-0.6-0.1-0.9-0.1c-0.3,0-0.5,0-0.8,0.1
					c-0.2,0.1-0.4,0.2-0.6,0.4c-0.2,0.2-0.3,0.4-0.4,0.7s-0.1,0.6-0.1,1c0,0.3,0,0.6,0.1,0.9s0.2,0.5,0.3,0.7
					c0.2,0.2,0.4,0.4,0.6,0.5c0.2,0.1,0.5,0.2,0.9,0.2s0.7,0,1-0.1s0.4-0.2,0.6-0.2l0.3,0.9c-0.1,0-0.2,0.1-0.3,0.1
					s-0.3,0.1-0.4,0.1c-0.2,0-0.4,0.1-0.6,0.1C36.5,96.7,36.3,96.7,36.1,96.7z"/>
				<path class="st0" d="M39.5,90.4h1.1v6.2h-1.1V90.4z"/>
				<path class="st0" d="M46.7,96.6c-0.1-0.2-0.2-0.5-0.3-0.7s-0.2-0.5-0.3-0.7h-2.6c-0.1,0.3-0.2,0.5-0.3,0.7s-0.2,0.5-0.3,0.7
					h-1.2c0.2-0.7,0.5-1.3,0.7-1.8c0.2-0.6,0.4-1.1,0.6-1.6c0.2-0.5,0.4-1,0.6-1.4c0.2-0.5,0.4-0.9,0.6-1.3h1.1
					c0.2,0.4,0.4,0.9,0.6,1.3c0.2,0.5,0.4,0.9,0.6,1.4c0.2,0.5,0.4,1,0.6,1.6c0.2,0.6,0.4,1.2,0.7,1.8H46.7z M44.8,91.6
					c-0.1,0.3-0.3,0.7-0.5,1.2s-0.4,0.9-0.6,1.5h2c-0.2-0.5-0.4-1-0.6-1.5C45.1,92.2,45,91.9,44.8,91.6z"/>
				<path class="st0" d="M51.7,96.7c-0.5,0-0.9-0.1-1.3-0.2c-0.4-0.1-0.7-0.4-0.9-0.6c-0.3-0.3-0.5-0.6-0.6-1s-0.2-0.9-0.2-1.4
					s0.1-1,0.2-1.4c0.2-0.4,0.4-0.7,0.6-1c0.3-0.3,0.6-0.5,1-0.6s0.8-0.2,1.2-0.2c0.3,0,0.5,0,0.7,0.1s0.4,0.1,0.5,0.1
					s0.3,0.1,0.4,0.2s0.2,0.1,0.2,0.1l-0.3,0.9c-0.1-0.1-0.3-0.2-0.6-0.3c-0.3-0.1-0.6-0.1-0.9-0.1c-0.3,0-0.5,0-0.8,0.1
					c-0.2,0.1-0.4,0.2-0.6,0.4c-0.2,0.2-0.3,0.4-0.4,0.7s-0.1,0.6-0.1,1c0,0.3,0,0.6,0.1,0.9s0.2,0.5,0.3,0.7
					c0.2,0.2,0.4,0.4,0.6,0.5c0.2,0.1,0.5,0.2,0.9,0.2s0.7,0,1-0.1s0.4-0.2,0.6-0.2l0.3,0.9c-0.1,0-0.2,0.1-0.3,0.1
					s-0.3,0.1-0.4,0.1c-0.2,0-0.4,0.1-0.6,0.1C52.2,96.7,52,96.7,51.7,96.7z"/>
				<path class="st0" d="M55.1,90.4h1.1v6.2h-1.1V90.4z"/>
				<path class="st0" d="M64,93.5c0,0.5-0.1,1-0.2,1.4c-0.2,0.4-0.4,0.7-0.6,1c-0.3,0.3-0.6,0.5-1,0.6s-0.8,0.2-1.2,0.2
					s-0.8-0.1-1.2-0.2s-0.7-0.3-1-0.6c-0.3-0.3-0.5-0.6-0.6-1C58,94.5,58,94,58,93.5s0.1-1,0.2-1.4s0.4-0.7,0.7-1s0.6-0.5,1-0.6
					s0.8-0.2,1.2-0.2s0.8,0.1,1.2,0.2s0.7,0.3,1,0.6c0.3,0.3,0.5,0.6,0.7,1C63.9,92.5,64,92.9,64,93.5z M59.1,93.5
					c0,0.3,0,0.7,0.1,0.9c0.1,0.3,0.2,0.5,0.4,0.7s0.4,0.3,0.6,0.5c0.2,0.1,0.5,0.2,0.8,0.2s0.5-0.1,0.8-0.2s0.4-0.3,0.6-0.5
					c0.2-0.2,0.3-0.4,0.4-0.7c0.1-0.3,0.1-0.6,0.1-0.9s0-0.7-0.1-0.9c-0.1-0.3-0.2-0.5-0.4-0.7s-0.4-0.3-0.6-0.5s-0.5-0.2-0.8-0.2
					s-0.5,0.1-0.8,0.2c-0.2,0.1-0.4,0.3-0.6,0.5s-0.3,0.4-0.4,0.7C59.2,92.8,59.1,93.1,59.1,93.5z M62.4,88.5l-1.5,1.4l-0.5-0.5
					l1.3-1.6L62.4,88.5z"/>
				<path class="st0" d="M69.9,96.6c-0.2-0.3-0.4-0.7-0.7-1.1s-0.5-0.8-0.8-1.2s-0.5-0.8-0.8-1.2c-0.3-0.4-0.5-0.7-0.8-1v4.4h-1.1
					v-6.2h0.9c0.2,0.3,0.5,0.5,0.8,0.9c0.3,0.3,0.6,0.7,0.8,1.1c0.3,0.4,0.5,0.7,0.8,1.1s0.5,0.7,0.7,1v-4.1h1.1v6.2L69.9,96.6
					L69.9,96.6z"/>
				<path class="st0" d="M78.1,96.7c-0.5,0-0.9-0.1-1.3-0.2s-0.7-0.4-0.9-0.6c-0.3-0.3-0.5-0.6-0.6-1s-0.2-0.9-0.2-1.4
					s0.1-1,0.2-1.4c0.2-0.4,0.4-0.7,0.6-1c0.3-0.3,0.6-0.5,1-0.6s0.8-0.2,1.2-0.2c0.3,0,0.5,0,0.7,0.1s0.4,0.1,0.5,0.1
					s0.3,0.1,0.4,0.2s0.2,0.1,0.2,0.1l-0.3,0.9c-0.1-0.1-0.3-0.2-0.6-0.3c-0.3-0.1-0.6-0.1-0.9-0.1s-0.5,0-0.8,0.1
					c-0.2,0.1-0.4,0.2-0.6,0.4c-0.2,0.2-0.3,0.4-0.4,0.7s-0.1,0.6-0.1,1c0,0.3,0,0.6,0.1,0.9s0.2,0.5,0.3,0.7
					c0.2,0.2,0.4,0.4,0.6,0.5s0.5,0.2,0.9,0.2s0.7,0,1-0.1s0.4-0.2,0.6-0.2l0.3,0.9c-0.1,0-0.2,0.1-0.3,0.1c-0.1,0-0.3,0.1-0.4,0.1
					c-0.2,0-0.4,0.1-0.6,0.1C78.5,96.7,78.3,96.7,78.1,96.7z"/>
				<path class="st0" d="M87.1,93.5c0,0.5-0.1,1-0.2,1.4c-0.2,0.4-0.4,0.7-0.6,1c-0.3,0.3-0.6,0.5-1,0.6s-0.8,0.2-1.2,0.2
					s-0.8-0.1-1.2-0.2c-0.4-0.1-0.7-0.3-1-0.6c-0.3-0.3-0.5-0.6-0.6-1C81.1,94.5,81,94,81,93.5s0.1-1,0.2-1.4s0.4-0.7,0.7-1
					c0.3-0.3,0.6-0.5,1-0.6s0.8-0.2,1.2-0.2s0.8,0.1,1.2,0.2c0.4,0.1,0.7,0.3,1,0.6c0.3,0.3,0.5,0.6,0.7,1
					C87,92.5,87.1,92.9,87.1,93.5z M82.2,93.5c0,0.3,0,0.7,0.1,0.9c0.1,0.3,0.2,0.5,0.4,0.7c0.2,0.2,0.4,0.3,0.6,0.5
					c0.2,0.1,0.5,0.2,0.8,0.2s0.5-0.1,0.8-0.2s0.4-0.3,0.6-0.5s0.3-0.4,0.4-0.7c0.1-0.3,0.1-0.6,0.1-0.9s0-0.7-0.1-0.9
					c-0.1-0.3-0.2-0.5-0.4-0.7c-0.2-0.2-0.4-0.3-0.6-0.5s-0.5-0.2-0.8-0.2s-0.5,0.1-0.8,0.2c-0.2,0.1-0.4,0.3-0.6,0.5
					s-0.3,0.4-0.4,0.7C82.3,92.8,82.2,93.1,82.2,93.5z"/>
				<path class="st0" d="M92.7,95.6v1h-3.9v-6.2h1.1v5.2H92.7z"/>
				<path class="st0" d="M99.4,93.5c0,0.5-0.1,1-0.2,1.4c-0.2,0.4-0.4,0.7-0.6,1c-0.3,0.3-0.6,0.5-1,0.6s-0.8,0.2-1.2,0.2
					s-0.8-0.1-1.2-0.2c-0.4-0.1-0.7-0.3-1-0.6c-0.3-0.3-0.5-0.6-0.6-1c-0.2-0.4-0.2-0.9-0.2-1.4s0.1-1,0.2-1.4s0.4-0.7,0.7-1
					c0.3-0.3,0.6-0.5,1-0.6s0.8-0.2,1.2-0.2s0.8,0.1,1.2,0.2c0.4,0.1,0.7,0.3,1,0.6c0.3,0.3,0.5,0.6,0.7,1
					C99.3,92.5,99.4,92.9,99.4,93.5z M94.6,93.5c0,0.3,0,0.7,0.1,0.9c0.1,0.3,0.2,0.5,0.4,0.7c0.2,0.2,0.4,0.3,0.6,0.5
					c0.2,0.1,0.5,0.2,0.8,0.2s0.5-0.1,0.8-0.2s0.4-0.3,0.6-0.5s0.3-0.4,0.4-0.7c0.1-0.3,0.1-0.6,0.1-0.9s0-0.7-0.1-0.9
					c-0.1-0.3-0.2-0.5-0.4-0.7c-0.2-0.2-0.4-0.3-0.6-0.5s-0.5-0.2-0.8-0.2s-0.5,0.1-0.8,0.2c-0.2,0.1-0.4,0.3-0.6,0.5
					s-0.3,0.4-0.4,0.7C94.6,92.8,94.6,93.1,94.6,93.5z"/>
				<path class="st0" d="M102.5,90.4c0.1,0.2,0.3,0.5,0.4,0.8c0.2,0.3,0.3,0.7,0.5,1c0.2,0.4,0.3,0.7,0.5,1.1s0.3,0.7,0.5,1
					c0.1-0.3,0.3-0.7,0.4-1c0.2-0.4,0.3-0.7,0.5-1.1s0.3-0.7,0.5-1s0.3-0.6,0.4-0.8h1c0.1,0.5,0.1,0.9,0.2,1.4s0.1,1,0.1,1.6
					c0,0.5,0.1,1.1,0.1,1.6s0.1,1.1,0.1,1.6h-1.1c0-0.7-0.1-1.5-0.1-2.2c0-0.8-0.1-1.5-0.2-2.2c-0.1,0.1-0.1,0.3-0.2,0.5
					s-0.2,0.4-0.3,0.6c-0.1,0.2-0.2,0.5-0.3,0.7c-0.1,0.2-0.2,0.5-0.3,0.7c-0.1,0.2-0.2,0.4-0.3,0.6c-0.1,0.2-0.2,0.4-0.2,0.5h-0.8
					c-0.1-0.1-0.1-0.3-0.2-0.5s-0.2-0.4-0.3-0.6c-0.1-0.2-0.2-0.5-0.3-0.7c-0.1-0.2-0.2-0.5-0.3-0.7c-0.1-0.2-0.2-0.4-0.3-0.6
					s-0.2-0.4-0.2-0.5c-0.1,0.7-0.1,1.5-0.2,2.2c0,0.8-0.1,1.5-0.1,2.2h-1.1c0-0.5,0.1-1,0.1-1.6s0.1-1.1,0.1-1.6s0.1-1.1,0.1-1.6
					s0.1-1,0.2-1.4H102.5z"/>
				<path class="st0" d="M111.3,96.6c-0.3,0-0.7,0-1,0s-0.6-0.1-0.9-0.1v-6c0.1,0,0.3,0,0.4-0.1c0.1,0,0.3,0,0.5,0s0.3,0,0.5,0
					s0.3,0,0.4,0c0.4,0,0.7,0,1,0.1s0.6,0.2,0.8,0.3c0.2,0.1,0.4,0.3,0.6,0.5s0.2,0.5,0.2,0.8s-0.1,0.5-0.2,0.8
					c-0.1,0.2-0.3,0.4-0.6,0.5c0.4,0.1,0.7,0.3,0.8,0.6c0.2,0.2,0.3,0.6,0.3,0.9c0,0.6-0.2,1.1-0.7,1.4
					C113,96.5,112.3,96.6,111.3,96.6z M110.6,92.9h0.8c0.4,0,0.8-0.1,1-0.2s0.4-0.3,0.4-0.7c0-0.3-0.1-0.5-0.4-0.6s-0.6-0.2-1-0.2
					c-0.2,0-0.3,0-0.5,0s-0.2,0-0.3,0V92.9z M110.6,93.8v1.9c0.1,0,0.3,0,0.4,0s0.3,0,0.4,0c0.2,0,0.4,0,0.6,0s0.4-0.1,0.5-0.2
					s0.3-0.2,0.3-0.3c0.1-0.1,0.1-0.3,0.1-0.5c0-0.4-0.1-0.6-0.4-0.7s-0.6-0.2-1.1-0.2C111.4,93.8,110.6,93.8,110.6,93.8z"/>
				<path class="st0" d="M115.8,90.4h1.1v6.2h-1.1V90.4z"/>
				<path class="st0" d="M123,96.6c-0.1-0.2-0.2-0.5-0.3-0.7c-0.1-0.2-0.2-0.5-0.3-0.7h-2.6c-0.1,0.3-0.2,0.5-0.3,0.7
					s-0.2,0.5-0.3,0.7H118c0.2-0.7,0.5-1.3,0.7-1.8c0.2-0.6,0.4-1.1,0.6-1.6s0.4-1,0.6-1.4c0.2-0.5,0.4-0.9,0.6-1.3h1.1
					c0.2,0.4,0.4,0.9,0.6,1.3c0.2,0.5,0.4,0.9,0.6,1.4s0.4,1,0.6,1.6s0.4,1.2,0.7,1.8H123z M121.2,91.6c-0.1,0.3-0.3,0.7-0.5,1.2
					s-0.4,0.9-0.6,1.5h2c-0.2-0.5-0.4-1-0.6-1.5C121.5,92.2,121.3,91.9,121.2,91.6z"/>
				<path class="st0" d="M129.6,96.6c-0.2-0.3-0.4-0.7-0.7-1.1s-0.5-0.8-0.8-1.2s-0.5-0.8-0.8-1.2c-0.3-0.4-0.5-0.7-0.8-1v4.4h-1.1
					v-6.2h0.9c0.2,0.3,0.5,0.5,0.8,0.9c0.3,0.3,0.6,0.7,0.8,1.1c0.3,0.4,0.5,0.7,0.8,1.1s0.5,0.7,0.7,1v-4.1h1.1v6.2L129.6,96.6
					L129.6,96.6z"/>
				<path class="st0" d="M136.7,96.6c-0.1-0.2-0.2-0.5-0.3-0.7s-0.2-0.5-0.3-0.7h-2.6c-0.1,0.3-0.2,0.5-0.3,0.7s-0.2,0.5-0.3,0.7
					h-1.2c0.2-0.7,0.5-1.3,0.7-1.8c0.2-0.6,0.4-1.1,0.6-1.6c0.2-0.5,0.4-1,0.6-1.4c0.2-0.5,0.4-0.9,0.6-1.3h1.1
					c0.2,0.4,0.4,0.9,0.6,1.3c0.2,0.5,0.4,0.9,0.6,1.4c0.2,0.5,0.4,1,0.6,1.6c0.2,0.6,0.4,1.2,0.7,1.8H136.7z M134.8,91.6
					c-0.1,0.3-0.3,0.7-0.5,1.2s-0.4,0.9-0.6,1.5h2c-0.2-0.5-0.4-1-0.6-1.5C135.1,92.2,135,91.9,134.8,91.6z"/>
				<path class="st0" d="M146.9,93.5c0,0.5-0.1,1-0.3,1.4s-0.4,0.7-0.7,1s-0.7,0.5-1.1,0.6c-0.4,0.1-0.9,0.2-1.4,0.2
					c-0.3,0-0.5,0-0.9,0c-0.3,0-0.6-0.1-0.9-0.1v-6c0.3-0.1,0.6-0.1,0.9-0.1c0.3,0,0.6,0,0.9,0c0.5,0,1,0.1,1.4,0.2s0.8,0.3,1.1,0.6
					c0.3,0.3,0.5,0.6,0.7,1C146.8,92.4,146.9,92.9,146.9,93.5z M142.8,95.6c0.1,0,0.2,0,0.3,0s0.3,0,0.4,0c0.8,0,1.3-0.2,1.7-0.6
					s0.6-0.9,0.6-1.6s-0.2-1.2-0.5-1.6c-0.4-0.4-0.9-0.6-1.7-0.6c-0.3,0-0.6,0-0.7,0v4.4C142.9,95.6,142.8,95.6,142.8,95.6z"/>
				<path class="st0" d="M148.6,96.6v-6.2h4v1h-2.9v1.5h2.5v0.9h-2.5v1.8h3.1v1C152.8,96.6,148.6,96.6,148.6,96.6z"/>
				<path class="st0" d="M156.8,96.6v-6.2h4v1H158v1.5h2.5v0.9H158v1.8h3.1v1C161.1,96.6,156.8,96.6,156.8,96.6z"/>
				<path class="st0" d="M166.7,96.6c-0.2-0.3-0.4-0.7-0.7-1.1s-0.5-0.8-0.8-1.2s-0.5-0.8-0.8-1.2c-0.3-0.4-0.5-0.7-0.8-1v4.4h-1.1
					v-6.2h0.9c0.2,0.3,0.5,0.5,0.8,0.9c0.3,0.3,0.6,0.7,0.8,1.1c0.3,0.4,0.5,0.7,0.8,1.1s0.5,0.7,0.7,1v-4.1h1.1v6.2L166.7,96.6
					L166.7,96.6z"/>
				<path class="st0" d="M174.9,93.5c0,0.5-0.1,1-0.3,1.4s-0.4,0.7-0.7,1s-0.7,0.5-1.1,0.6c-0.4,0.1-0.9,0.2-1.4,0.2
					c-0.3,0-0.5,0-0.9,0c-0.3,0-0.6-0.1-0.9-0.1v-6c0.3-0.1,0.6-0.1,0.9-0.1c0.3,0,0.6,0,0.9,0c0.5,0,1,0.1,1.4,0.2s0.8,0.3,1.1,0.6
					c0.3,0.3,0.5,0.6,0.7,1C174.8,92.4,174.9,92.9,174.9,93.5z M170.8,95.6c0.1,0,0.2,0,0.3,0s0.3,0,0.4,0c0.8,0,1.3-0.2,1.7-0.6
					s0.6-0.9,0.6-1.6s-0.2-1.2-0.5-1.6c-0.4-0.4-0.9-0.6-1.7-0.6c-0.3,0-0.6,0-0.7,0v4.4C170.9,95.6,170.8,95.6,170.8,95.6z"/>
				<path class="st0" d="M182.4,93.5c0,0.5-0.1,1-0.2,1.4c-0.2,0.4-0.4,0.7-0.6,1c-0.3,0.3-0.6,0.5-1,0.6s-0.8,0.2-1.2,0.2
					s-0.8-0.1-1.2-0.2s-0.7-0.3-1-0.6c-0.3-0.3-0.5-0.6-0.6-1c-0.2-0.4-0.2-0.9-0.2-1.4s0.1-1,0.2-1.4s0.4-0.7,0.7-1s0.6-0.5,1-0.6
					s0.8-0.2,1.2-0.2s0.8,0.1,1.2,0.2s0.7,0.3,1,0.6c0.3,0.3,0.5,0.6,0.7,1C182.3,92.5,182.4,92.9,182.4,93.5z M177.5,93.5
					c0,0.3,0,0.7,0.1,0.9c0.1,0.3,0.2,0.5,0.4,0.7s0.4,0.3,0.6,0.5c0.2,0.1,0.5,0.2,0.8,0.2s0.5-0.1,0.8-0.2s0.4-0.3,0.6-0.5
					c0.2-0.2,0.3-0.4,0.4-0.7c0.1-0.3,0.1-0.6,0.1-0.9s0-0.7-0.1-0.9c-0.1-0.3-0.2-0.5-0.4-0.7s-0.4-0.3-0.6-0.5s-0.5-0.2-0.8-0.2
					s-0.5,0.1-0.8,0.2c-0.2,0.1-0.4,0.3-0.6,0.5s-0.3,0.4-0.4,0.7C177.6,92.8,177.5,93.1,177.5,93.5z"/>
				<path class="st0" d="M186.8,96.7c-0.5,0-0.9-0.1-1.3-0.2c-0.4-0.1-0.7-0.4-0.9-0.6c-0.3-0.3-0.5-0.6-0.6-1s-0.2-0.9-0.2-1.4
					s0.1-1,0.2-1.4c0.2-0.4,0.4-0.7,0.6-1c0.3-0.3,0.6-0.5,1-0.6s0.8-0.2,1.2-0.2c0.3,0,0.5,0,0.7,0.1s0.4,0.1,0.5,0.1
					s0.3,0.1,0.4,0.2s0.2,0.1,0.2,0.1l-0.3,0.9c-0.1-0.1-0.3-0.2-0.6-0.3c-0.3-0.1-0.6-0.1-0.9-0.1c-0.3,0-0.5,0-0.8,0.1
					c-0.2,0.1-0.4,0.2-0.6,0.4c-0.2,0.2-0.3,0.4-0.4,0.7s-0.1,0.6-0.1,1c0,0.3,0,0.6,0.1,0.9s0.2,0.5,0.3,0.7
					c0.2,0.2,0.4,0.4,0.6,0.5c0.2,0.1,0.5,0.2,0.9,0.2s0.7,0,1-0.1s0.4-0.2,0.6-0.2l0.3,0.9c-0.1,0-0.2,0.1-0.3,0.1
					s-0.3,0.1-0.4,0.1c-0.2,0-0.4,0.1-0.6,0.1C187.3,96.7,187.1,96.7,186.8,96.7z"/>
				<path class="st0" d="M191.9,90.3c0.9,0,1.6,0.2,2.1,0.5s0.7,0.8,0.7,1.5c0,0.8-0.4,1.4-1.2,1.7c0.1,0.1,0.2,0.3,0.4,0.5
					s0.3,0.4,0.4,0.6c0.1,0.2,0.3,0.5,0.4,0.7c0.1,0.2,0.3,0.5,0.4,0.7h-1.3c-0.1-0.2-0.2-0.4-0.4-0.7c-0.1-0.2-0.3-0.4-0.4-0.6
					c-0.1-0.2-0.3-0.4-0.4-0.6c-0.1-0.2-0.3-0.3-0.4-0.5c-0.1,0-0.2,0-0.2,0s-0.1,0-0.2,0h-0.5v2.3h-1.1v-6.1
					c0.3-0.1,0.6-0.1,0.9-0.1C191.4,90.3,191.7,90.3,191.9,90.3z M192,91.3c-0.2,0-0.5,0-0.7,0v2h0.5c0.3,0,0.5,0,0.7,0
					s0.4-0.1,0.5-0.2s0.2-0.2,0.3-0.3c0.1-0.1,0.1-0.3,0.1-0.5s0-0.4-0.1-0.5s-0.2-0.2-0.3-0.3c-0.1-0.1-0.3-0.1-0.5-0.2
					C192.4,91.3,192.2,91.3,192,91.3z"/>
				<path class="st0" d="M196.4,90.4h1.1v6.2h-1.1V90.4z"/>
				<path class="st0" d="M203.7,96.6c-0.2-0.3-0.4-0.7-0.7-1.1s-0.5-0.8-0.8-1.2s-0.5-0.8-0.8-1.2c-0.3-0.4-0.5-0.7-0.8-1v4.4h-1.1
					v-6.2h0.9c0.2,0.3,0.5,0.5,0.8,0.9c0.3,0.3,0.6,0.7,0.8,1.1c0.3,0.4,0.5,0.7,0.8,1.1s0.5,0.7,0.7,1v-4.1h1.1v6.2L203.7,96.6
					L203.7,96.6z"/>
				<path class="st0" d="M212.3,93.5c0,0.5-0.1,1-0.2,1.4c-0.2,0.4-0.4,0.7-0.6,1c-0.3,0.3-0.6,0.5-1,0.6s-0.8,0.2-1.2,0.2
					s-0.8-0.1-1.2-0.2s-0.7-0.3-1-0.6c-0.3-0.3-0.5-0.6-0.6-1c-0.2-0.4-0.2-0.9-0.2-1.4s0.1-1,0.2-1.4s0.4-0.7,0.7-1s0.6-0.5,1-0.6
					s0.8-0.2,1.2-0.2s0.8,0.1,1.2,0.2s0.7,0.3,1,0.6c0.3,0.3,0.5,0.6,0.7,1C212.2,92.5,212.3,92.9,212.3,93.5z M207.5,93.5
					c0,0.3,0,0.7,0.1,0.9c0.1,0.3,0.2,0.5,0.4,0.7s0.4,0.3,0.6,0.5c0.2,0.1,0.5,0.2,0.8,0.2s0.5-0.1,0.8-0.2s0.4-0.3,0.6-0.5
					c0.2-0.2,0.3-0.4,0.4-0.7c0.1-0.3,0.1-0.6,0.1-0.9s0-0.7-0.1-0.9c-0.1-0.3-0.2-0.5-0.4-0.7s-0.4-0.3-0.6-0.5s-0.5-0.2-0.8-0.2
					s-0.5,0.1-0.8,0.2c-0.2,0.1-0.4,0.3-0.6,0.5s-0.3,0.4-0.4,0.7C207.5,92.8,207.5,93.1,207.5,93.5z"/>
				<path class="st0" d="M217.9,95.6v1H214v-6.2h1.1v5.2H217.9z"/>
				<path class="st0" d="M224.7,93.5c0,0.5-0.1,1-0.2,1.4c-0.2,0.4-0.4,0.7-0.6,1c-0.3,0.3-0.6,0.5-1,0.6s-0.8,0.2-1.2,0.2
					s-0.8-0.1-1.2-0.2s-0.7-0.3-1-0.6c-0.3-0.3-0.5-0.6-0.6-1c-0.2-0.4-0.2-0.9-0.2-1.4s0.1-1,0.2-1.4s0.4-0.7,0.7-1s0.6-0.5,1-0.6
					s0.8-0.2,1.2-0.2s0.8,0.1,1.2,0.2s0.7,0.3,1,0.6c0.3,0.3,0.5,0.6,0.7,1C224.6,92.5,224.7,92.9,224.7,93.5z M219.8,93.5
					c0,0.3,0,0.7,0.1,0.9c0.1,0.3,0.2,0.5,0.4,0.7s0.4,0.3,0.6,0.5c0.2,0.1,0.5,0.2,0.8,0.2s0.5-0.1,0.8-0.2s0.4-0.3,0.6-0.5
					c0.2-0.2,0.3-0.4,0.4-0.7c0.1-0.3,0.1-0.6,0.1-0.9s0-0.7-0.1-0.9c-0.1-0.3-0.2-0.5-0.4-0.7s-0.4-0.3-0.6-0.5s-0.5-0.2-0.8-0.2
					s-0.5,0.1-0.8,0.2c-0.2,0.1-0.4,0.3-0.6,0.5s-0.3,0.4-0.4,0.7C219.9,92.8,219.8,93.1,219.8,93.5z"/>
				<path class="st0" d="M229.3,91.2c-0.6,0-1.1,0.2-1.5,0.6c-0.3,0.4-0.5,0.9-0.5,1.7c0,0.3,0,0.6,0.1,0.9s0.2,0.5,0.4,0.7
					s0.4,0.4,0.6,0.5s0.5,0.2,0.8,0.2c0.2,0,0.4,0,0.5,0s0.3,0,0.3-0.1v-2.2h1.1v3c-0.2,0.1-0.4,0.1-0.8,0.2
					c-0.4,0.1-0.8,0.1-1.3,0.1c-0.4,0-0.9-0.1-1.2-0.2c-0.4-0.1-0.7-0.4-0.9-0.6c-0.3-0.3-0.5-0.6-0.6-1s-0.2-0.9-0.2-1.4
					s0.1-1,0.2-1.4s0.4-0.7,0.7-1s0.6-0.5,1-0.6s0.8-0.2,1.2-0.2c0.3,0,0.5,0,0.8,0.1c0.2,0,0.4,0.1,0.6,0.1c0.2,0,0.3,0.1,0.4,0.2
					s0.2,0.1,0.2,0.1l-0.3,0.9c-0.2-0.1-0.4-0.2-0.7-0.3C229.8,91.2,229.5,91.2,229.3,91.2z"/>
				<path class="st0" d="M232.9,90.4h1.1v6.2h-1.1V90.4z M234.9,88.5l-1.5,1.4l-0.5-0.5l1.3-1.6L234.9,88.5z"/>
				<path class="st0" d="M240.1,96.6c-0.1-0.2-0.2-0.5-0.3-0.7s-0.2-0.5-0.3-0.7H237c-0.1,0.3-0.2,0.5-0.3,0.7s-0.2,0.5-0.3,0.7
					h-1.2c0.2-0.7,0.5-1.3,0.7-1.8c0.2-0.6,0.4-1.1,0.6-1.6c0.2-0.5,0.4-1,0.6-1.4c0.2-0.5,0.4-0.9,0.6-1.3h1.1
					c0.2,0.4,0.4,0.9,0.6,1.3c0.2,0.5,0.4,0.9,0.6,1.4c0.2,0.5,0.4,1,0.6,1.6c0.2,0.6,0.4,1.2,0.7,1.8H240.1z M238.3,91.6
					c-0.1,0.3-0.3,0.7-0.5,1.2s-0.4,0.9-0.6,1.5h2c-0.2-0.5-0.4-1-0.6-1.5C238.6,92.2,238.4,91.9,238.3,91.6z"/>
				<path class="st0" d="M243.8,95.4c0,0.1,0,0.2,0,0.2v0.1c0,0.4-0.1,0.8-0.2,1.1s-0.3,0.8-0.5,1.1l-0.9-0.2c0.1-0.3,0.2-0.7,0.3-1
					s0.1-0.6,0.1-0.9c0-0.1,0-0.2,0-0.3c0-0.1,0-0.2,0-0.2h1.2L243.8,95.4L243.8,95.4z"/>
				<path class="st0" d="M72.3,105.1c0,0.5-0.1,1-0.3,1.4c-0.2,0.4-0.4,0.7-0.7,1c-0.3,0.3-0.7,0.5-1.1,0.6s-0.9,0.2-1.4,0.2
					c-0.3,0-0.5,0-0.9,0c-0.3,0-0.6-0.1-0.9-0.1v-6c0.3-0.1,0.6-0.1,0.9-0.1s0.6,0,0.9,0c0.5,0,1,0.1,1.4,0.2s0.8,0.3,1.1,0.6
					c0.3,0.3,0.5,0.6,0.7,1C72.2,104.1,72.3,104.6,72.3,105.1z M68.2,107.3c0.1,0,0.2,0,0.3,0s0.3,0,0.4,0c0.8,0,1.3-0.2,1.7-0.6
					c0.4-0.4,0.6-0.9,0.6-1.6s-0.2-1.2-0.5-1.6c-0.4-0.4-0.9-0.6-1.7-0.6c-0.3,0-0.6,0-0.7,0v4.4C68.3,107.3,68.2,107.3,68.2,107.3z
					"/>
				<path class="st0" d="M74,102h1.1v6.2H74V102z"/>
				<path class="st0" d="M81.2,108.2c-0.1-0.2-0.2-0.5-0.3-0.7c-0.1-0.2-0.2-0.5-0.3-0.7H78c-0.1,0.3-0.2,0.5-0.3,0.7
					s-0.2,0.5-0.3,0.7h-1.2c0.2-0.7,0.5-1.3,0.7-1.8c0.2-0.6,0.4-1.1,0.6-1.6s0.4-1,0.6-1.4c0.2-0.5,0.4-0.9,0.6-1.3h1.1
					c0.2,0.4,0.4,0.9,0.6,1.3c0.2,0.5,0.4,0.9,0.6,1.4s0.4,1,0.6,1.6s0.4,1.2,0.7,1.8H81.2z M79.4,103.2c-0.1,0.3-0.3,0.7-0.5,1.2
					s-0.4,0.9-0.6,1.5h2c-0.2-0.5-0.4-1-0.6-1.5C79.6,103.9,79.5,103.5,79.4,103.2z"/>
				<path class="st0" d="M85.5,108.3c-0.3,0-0.7,0-1,0s-0.6-0.1-0.9-0.1v-6c0.1,0,0.3,0,0.4-0.1c0.1,0,0.3,0,0.5,0s0.3,0,0.5,0
					s0.3,0,0.4,0c0.4,0,0.7,0,1,0.1s0.6,0.2,0.8,0.3c0.2,0.1,0.4,0.3,0.6,0.5s0.2,0.5,0.2,0.8s-0.1,0.5-0.2,0.8
					c-0.1,0.2-0.3,0.4-0.6,0.5c0.4,0.1,0.7,0.3,0.8,0.6c0.2,0.2,0.3,0.6,0.3,0.9c0,0.6-0.2,1.1-0.7,1.4
					C87.2,108.1,86.5,108.3,85.5,108.3z M84.8,104.5h0.8c0.4,0,0.8-0.1,1-0.2s0.4-0.3,0.4-0.7c0-0.3-0.1-0.5-0.4-0.6s-0.6-0.2-1-0.2
					c-0.2,0-0.3,0-0.5,0s-0.2,0-0.3,0V104.5z M84.8,105.4v1.9c0.1,0,0.3,0,0.4,0s0.3,0,0.4,0c0.2,0,0.4,0,0.6,0s0.4-0.1,0.5-0.2
					s0.3-0.2,0.3-0.3c0.1-0.1,0.1-0.3,0.1-0.5c0-0.4-0.1-0.6-0.4-0.7s-0.6-0.2-1.1-0.2C85.6,105.4,84.8,105.4,84.8,105.4z"/>
				<path class="st0" d="M90,108.2V102h4v1h-2.9v1.5h2.5v0.9h-2.5v1.8h3.1v1C94.2,108.2,90,108.2,90,108.2z"/>
				<path class="st0" d="M100,102v1h-1.9v5.2H97V103h-1.9v-1H100z"/>
				<path class="st0" d="M101.3,108.2V102h4v1h-2.9v1.5h2.5v0.9h-2.5v1.8h3.1v1C105.5,108.2,101.3,108.2,101.3,108.2z"/>
				<path class="st0" d="M108.5,107.4c0.4,0,0.7-0.1,0.9-0.2c0.2-0.1,0.3-0.3,0.3-0.6c0-0.1,0-0.3-0.1-0.4s-0.2-0.2-0.3-0.3
					c-0.1-0.1-0.3-0.2-0.4-0.2c-0.2-0.1-0.4-0.1-0.6-0.2s-0.4-0.2-0.6-0.3s-0.4-0.2-0.5-0.3s-0.3-0.3-0.4-0.5s-0.1-0.4-0.1-0.7
					c0-0.6,0.2-1,0.6-1.3s0.9-0.5,1.6-0.5c0.4,0,0.7,0,1,0.1s0.5,0.2,0.7,0.3l-0.3,0.9c-0.2-0.1-0.4-0.2-0.7-0.3s-0.5-0.1-0.7-0.1
					c-0.3,0-0.5,0.1-0.7,0.2s-0.3,0.3-0.3,0.5c0,0.1,0,0.3,0.1,0.4s0.1,0.2,0.2,0.3c0.1,0.1,0.2,0.1,0.4,0.2
					c0.1,0.1,0.3,0.1,0.5,0.2c0.3,0.1,0.6,0.2,0.8,0.3c0.2,0.1,0.4,0.2,0.6,0.4s0.3,0.3,0.4,0.5s0.1,0.5,0.1,0.7
					c0,0.6-0.2,1-0.6,1.3s-1,0.5-1.7,0.5c-0.3,0-0.5,0-0.7,0s-0.4-0.1-0.6-0.1s-0.3-0.1-0.4-0.1c-0.1-0.1-0.2-0.1-0.3-0.1l0.3-0.9
					c0.2,0.1,0.4,0.2,0.7,0.3C107.8,107.3,108.1,107.4,108.5,107.4z"/>
				<path class="st0" d="M116.9,104.8c0.3-0.4,0.5-0.9,0.8-1.4s0.5-0.9,0.7-1.4h1.3c-0.3,0.6-0.7,1.3-1,1.9s-0.7,1.3-1.2,1.9v2.4
					h-1.1v-2.4c-0.4-0.6-0.8-1.3-1.2-1.9c-0.4-0.6-0.7-1.3-1-1.9h1.3c0.2,0.5,0.4,0.9,0.7,1.4C116.4,103.9,116.7,104.3,116.9,104.8z
					"/>
				<path class="st0" d="M124.8,102c0.1,0.2,0.3,0.5,0.4,0.8c0.2,0.3,0.3,0.7,0.5,1c0.2,0.4,0.3,0.7,0.5,1.1s0.3,0.7,0.5,1
					c0.1-0.3,0.3-0.7,0.4-1c0.2-0.4,0.3-0.7,0.5-1.1s0.3-0.7,0.5-1s0.3-0.6,0.4-0.8h1c0.1,0.5,0.1,0.9,0.2,1.4s0.1,1,0.1,1.6
					c0,0.5,0.1,1.1,0.1,1.6s0.1,1.1,0.1,1.6h-1.1c0-0.7-0.1-1.5-0.1-2.2c0-0.8-0.1-1.5-0.2-2.2c-0.1,0.1-0.1,0.3-0.2,0.5
					s-0.2,0.4-0.3,0.6s-0.2,0.5-0.3,0.7c-0.1,0.2-0.2,0.5-0.3,0.7c-0.1,0.2-0.2,0.4-0.3,0.6c-0.1,0.2-0.2,0.4-0.2,0.5h-0.8
					c-0.1-0.1-0.1-0.3-0.2-0.5s-0.2-0.4-0.3-0.6c-0.1-0.2-0.2-0.5-0.3-0.7c-0.1-0.2-0.2-0.5-0.3-0.7c-0.1-0.2-0.2-0.4-0.3-0.6
					s-0.2-0.4-0.2-0.5c-0.1,0.7-0.1,1.5-0.2,2.2c0,0.8-0.1,1.5-0.1,2.2h-1.1c0-0.5,0.1-1,0.1-1.6s0.1-1.1,0.1-1.6s0.1-1.1,0.1-1.6
					s0.1-1,0.2-1.4H124.8z"/>
				<path class="st0" d="M131.8,108.2V102h4v1h-2.9v1.5h2.5v0.9h-2.5v1.8h3.1v1C136,108.2,131.8,108.2,131.8,108.2z"/>
				<path class="st0" d="M141.8,102v1h-1.9v5.2h-1.1V103h-1.9v-1H141.8z"/>
				<path class="st0" d="M146.8,108.2c-0.1-0.2-0.2-0.5-0.3-0.7s-0.2-0.5-0.3-0.7h-2.6c-0.1,0.3-0.2,0.5-0.3,0.7s-0.2,0.5-0.3,0.7
					h-1.2c0.2-0.7,0.5-1.3,0.7-1.8c0.2-0.6,0.4-1.1,0.6-1.6c0.2-0.5,0.4-1,0.6-1.4c0.2-0.5,0.4-0.9,0.6-1.3h1.1
					c0.2,0.4,0.4,0.9,0.6,1.3c0.2,0.5,0.4,0.9,0.6,1.4c0.2,0.5,0.4,1,0.6,1.6c0.2,0.6,0.4,1.2,0.7,1.8H146.8z M144.9,103.2
					c-0.1,0.3-0.3,0.7-0.5,1.2s-0.4,0.9-0.6,1.5h2c-0.2-0.5-0.4-1-0.6-1.5C145.2,103.9,145.1,103.5,144.9,103.2z"/>
				<path class="st0" d="M151.1,108.3c-0.3,0-0.7,0-1,0s-0.6-0.1-0.9-0.1v-6c0.1,0,0.3,0,0.4-0.1c0.1,0,0.3,0,0.5,0s0.3,0,0.5,0
					s0.3,0,0.4,0c0.4,0,0.7,0,1,0.1s0.6,0.2,0.8,0.3c0.2,0.1,0.4,0.3,0.6,0.5s0.2,0.5,0.2,0.8s-0.1,0.5-0.2,0.8
					c-0.1,0.2-0.3,0.4-0.6,0.5c0.4,0.1,0.7,0.3,0.8,0.6c0.2,0.2,0.3,0.6,0.3,0.9c0,0.6-0.2,1.1-0.7,1.4
					C152.8,108.1,152.1,108.3,151.1,108.3z M150.3,104.5h0.8c0.4,0,0.8-0.1,1-0.2s0.4-0.3,0.4-0.7c0-0.3-0.1-0.5-0.4-0.6
					c-0.3-0.1-0.6-0.2-1-0.2c-0.2,0-0.3,0-0.5,0s-0.2,0-0.3,0V104.5z M150.3,105.4v1.9c0.1,0,0.3,0,0.4,0c0.1,0,0.3,0,0.4,0
					c0.2,0,0.4,0,0.6,0c0.2,0,0.4-0.1,0.5-0.2s0.3-0.2,0.3-0.3c0.1-0.1,0.1-0.3,0.1-0.5c0-0.4-0.1-0.6-0.4-0.7
					c-0.3-0.1-0.6-0.2-1.1-0.2C151.1,105.4,150.3,105.4,150.3,105.4z"/>
				<path class="st0" d="M161.3,105.1c0,0.5-0.1,1-0.2,1.4c-0.2,0.4-0.4,0.7-0.6,1c-0.3,0.3-0.6,0.5-1,0.6s-0.8,0.2-1.2,0.2
					s-0.8-0.1-1.2-0.2s-0.7-0.3-1-0.6c-0.3-0.3-0.5-0.6-0.6-1c-0.2-0.4-0.2-0.9-0.2-1.4s0.1-1,0.2-1.4s0.4-0.7,0.7-1s0.6-0.5,1-0.6
					s0.8-0.2,1.2-0.2s0.8,0.1,1.2,0.2s0.7,0.3,1,0.6c0.3,0.3,0.5,0.6,0.7,1C161.3,104.1,161.3,104.6,161.3,105.1z M156.5,105.1
					c0,0.3,0,0.7,0.1,0.9c0.1,0.3,0.2,0.5,0.4,0.7s0.4,0.3,0.6,0.5c0.2,0.1,0.5,0.2,0.8,0.2s0.5-0.1,0.8-0.2s0.4-0.3,0.6-0.5
					c0.2-0.2,0.3-0.4,0.4-0.7c0.1-0.3,0.1-0.6,0.1-0.9s0-0.7-0.1-0.9c-0.1-0.3-0.2-0.5-0.4-0.7s-0.4-0.3-0.6-0.5s-0.5-0.2-0.8-0.2
					s-0.5,0.1-0.8,0.2c-0.2,0.1-0.4,0.3-0.6,0.5s-0.3,0.4-0.4,0.7C156.5,104.5,156.5,104.8,156.5,105.1z"/>
				<path class="st0" d="M166.9,107.2v1H163V102h1.1v5.2H166.9z"/>
				<path class="st0" d="M168.3,102h1.1v6.2h-1.1V102z"/>
				<path class="st0" d="M172.8,107.4c0.4,0,0.7-0.1,0.9-0.2s0.3-0.3,0.3-0.6c0-0.1,0-0.3-0.1-0.4s-0.2-0.2-0.3-0.3
					c-0.1-0.1-0.3-0.2-0.4-0.2c-0.2-0.1-0.4-0.1-0.6-0.2c-0.2-0.1-0.4-0.2-0.6-0.3s-0.4-0.2-0.5-0.3s-0.3-0.3-0.4-0.5
					s-0.1-0.4-0.1-0.7c0-0.6,0.2-1,0.6-1.3c0.4-0.3,0.9-0.5,1.6-0.5c0.4,0,0.7,0,1,0.1s0.5,0.2,0.7,0.3l-0.3,0.9
					c-0.2-0.1-0.4-0.2-0.7-0.3s-0.5-0.1-0.7-0.1c-0.3,0-0.5,0.1-0.7,0.2s-0.3,0.3-0.3,0.5c0,0.1,0,0.3,0.1,0.4s0.1,0.2,0.2,0.3
					c0.1,0.1,0.2,0.1,0.4,0.2c0.1,0.1,0.3,0.1,0.5,0.2c0.3,0.1,0.6,0.2,0.8,0.3c0.2,0.1,0.4,0.2,0.6,0.4s0.3,0.3,0.4,0.5
					s0.1,0.5,0.1,0.7c0,0.6-0.2,1-0.6,1.3c-0.4,0.3-1,0.5-1.7,0.5c-0.3,0-0.5,0-0.7,0s-0.4-0.1-0.6-0.1c-0.2,0-0.3-0.1-0.4-0.1
					c-0.1-0.1-0.2-0.1-0.3-0.1l0.3-0.9c0.2,0.1,0.4,0.2,0.7,0.3C172.1,107.3,172.4,107.4,172.8,107.4z"/>
				<path class="st0" d="M178,102c0.1,0.2,0.3,0.5,0.4,0.8c0.2,0.3,0.3,0.7,0.5,1c0.2,0.4,0.3,0.7,0.5,1.1s0.3,0.7,0.5,1
					c0.1-0.3,0.3-0.7,0.4-1c0.2-0.4,0.3-0.7,0.5-1.1s0.3-0.7,0.5-1s0.3-0.6,0.4-0.8h1c0.1,0.5,0.1,0.9,0.2,1.4s0.1,1,0.1,1.6
					c0,0.5,0.1,1.1,0.1,1.6s0.1,1.1,0.1,1.6h-1.1c0-0.7-0.1-1.5-0.1-2.2c0-0.8-0.1-1.5-0.2-2.2c-0.1,0.1-0.1,0.3-0.2,0.5
					s-0.2,0.4-0.3,0.6s-0.2,0.5-0.3,0.7s-0.2,0.5-0.3,0.7s-0.2,0.4-0.3,0.6s-0.2,0.4-0.2,0.5h-0.8c-0.1-0.1-0.1-0.3-0.2-0.5
					c-0.1-0.2-0.2-0.4-0.3-0.6s-0.2-0.5-0.3-0.7s-0.2-0.5-0.3-0.7s-0.2-0.4-0.3-0.6s-0.2-0.4-0.2-0.5c-0.1,0.7-0.1,1.5-0.2,2.2
					c0,0.8-0.1,1.5-0.1,2.2h-1.1c0-0.5,0.1-1,0.1-1.6s0.1-1.1,0.1-1.6s0.1-1.1,0.1-1.6s0.1-1,0.2-1.4H178z"/>
				<path class="st0" d="M190.8,105.1c0,0.5-0.1,1-0.2,1.4c-0.2,0.4-0.4,0.7-0.6,1c-0.3,0.3-0.6,0.5-1,0.6s-0.8,0.2-1.2,0.2
					s-0.8-0.1-1.2-0.2s-0.7-0.3-1-0.6c-0.3-0.3-0.5-0.6-0.6-1c-0.2-0.4-0.2-0.9-0.2-1.4s0.1-1,0.2-1.4s0.4-0.7,0.7-1s0.6-0.5,1-0.6
					s0.8-0.2,1.2-0.2s0.8,0.1,1.2,0.2s0.7,0.3,1,0.6c0.3,0.3,0.5,0.6,0.7,1C190.7,104.1,190.8,104.6,190.8,105.1z M185.9,105.1
					c0,0.3,0,0.7,0.1,0.9c0.1,0.3,0.2,0.5,0.4,0.7s0.4,0.3,0.6,0.5c0.2,0.1,0.5,0.2,0.8,0.2s0.5-0.1,0.8-0.2s0.4-0.3,0.6-0.5
					c0.2-0.2,0.3-0.4,0.4-0.7c0.1-0.3,0.1-0.6,0.1-0.9s0-0.7-0.1-0.9c-0.1-0.3-0.2-0.5-0.4-0.7s-0.4-0.3-0.6-0.5s-0.5-0.2-0.8-0.2
					s-0.5,0.1-0.8,0.2c-0.2,0.1-0.4,0.3-0.6,0.5s-0.3,0.4-0.4,0.7C186,104.5,185.9,104.8,185.9,105.1z"/>
			</g>
		</g>
		<g>
			<path d="M108.9,14.2c-1.5,3.9-2.3,8-3.2,12.1c-0.1,0-0.2,0-0.3,0c-0.1-0.3-0.2-0.5-0.2-0.8c0.5-2,1.1-3.9,1.4-5.9
				c0.1-1,0.8-1.9,0.7-2.6c-0.1-1.3,0.7-2.1,0.8-3.2c0-0.3,0.2-0.6,0.4-0.8c0.1-0.2,0.4-0.4,0.6-0.4c0.2,0.1,0.4,0.3,0.6,0.5
				c0.2,0.4,0.5,0.8,0.7,1.2c0.1,0.3,0.2,0.6,0.1,0.9c-0.4,3.2-0.8,6.4-1.4,9.6c-0.6,3.7-1.4,7.3-2.2,10.9c-0.8,3.7-1.7,7.4-2.5,11
				c-0.5,2-0.9,4-1.4,6c-0.3,1.4-0.7,2.7-1.2,4.1c-0.2,0.7,0,1,0.6,1.3c1.2-0.9,1.7-2.2,2.2-3.5c0.7-1.9,1.4-3.8,2.1-5.6
				c0.1-0.3,0.4-0.5,0.5-0.8c0.1-0.2,0.2-0.4,0.2-0.6c-0.3-1-0.3-1.1,0.8-1.4c-0.2-0.3-0.3-0.6-0.5-0.9c0.1-0.1,0.1-0.1,0.2-0.2
				c0.1,0,0.2,0.1,0.3,0.1c0.1,0,0.3-0.1,0.4-0.2c-0.1-0.1-0.2-0.2-0.3-0.3c-0.3-0.2-0.3-0.5-0.1-0.5c0.4,0-0.2-1.2,0.8-0.1
				c-0.4-0.7-1.2-1.3,0.1-1.4c0-0.5-0.9-1.3,0.6-1.5c-0.4-0.2-0.5-0.2-0.8-0.3c0.3-0.2,0.5-0.3,0.8-0.5c-0.6-0.4-0.5-0.9,0-1.3
				c0.2-0.2,0.8-0.4,0.2-0.8c-0.1-0.1,0.1-0.6,0.2-1c0.6-2.2,1.3-4.4,1.9-6.7c1-3.7,2-7.3,2.9-11c0.7-2.8,1.1-5.6,1.7-8.4
				c0.1-0.8,0.2-1.5,0.4-2.3c0.1-0.3,0.4-0.6,0.7-0.9c0.1,0.4,0.3,0.8,0.3,1.1c-0.4,2.2-0.8,4.4-1.2,6.5c-0.7,3.2-1.5,6.5-2.2,9.7
				c-0.5,2.1-1.1,4.3-1.7,6.4c-0.1,0.5,0.4,1.2-0.6,1.4c0.4,0.9-0.1,1.6-0.4,2.4c-0.1,0.2-0.2,0.4-0.4,0.6c0.1,0,0.2,0.2,0.3,0.3
				c-0.2,0.4-0.4,0.8-0.6,1.3c0,0.1,0.1,0.4,0.1,0.6c-0.8,3.3-1.6,6.6-2.5,9.9c-0.3,1.3-0.8,2.6-1.2,3.9c0,0.1-0.3,0.2-0.7,0.3
				c0.3-1.2,0.5-2.3,0.8-3.7c-0.4,0.3-0.6,0.4-0.9,0.6c0.1,0,0.1,0,0.2,0.1c-0.4,1.4-0.8,2.7-1.2,4.1c0.4,0,0.8,0,1.3,0
				c-0.3,0.5-1.1,0.5-0.4,1.2c0.2,0.3,0,1-0.1,1.5c0,0-0.4,0.1-0.5,0.1c-0.1-0.4-0.2-0.9-0.2-1.3c0-0.4,0.1-0.8,0-1.2
				c-0.9,1.9-1.8,3.7-2.7,5.6c1.7-0.3,3.6-0.6,5.4-0.9c2.4-0.4,4.9-0.8,7.3-1.3c0.6-0.1,1.2-0.5,1.8-0.6c0.8-0.2,1.7-0.4,2.5-0.4
				c2.8-0.2,5.4-1.2,8.2-1.6c3.5-0.5,7-1.3,10.5-1.8c1.9-0.3,3.9-0.4,5.8-0.7c2.1-0.3,4.2-0.7,6.3-1.1c1.4-0.2,2-1.3,2.3-2.5
				c0.6-2,1-4.1,1.4-6.1c0.6-0.2,0.8,0.2,0.7,0.7c-0.5,2.2-0.9,4.4-1.5,6.5c-0.5,1.6-1.9,2.4-3.6,2.6c-3.7,0.5-7.5,0.9-11.2,1.4
				c-3.9,0.6-7.8,1.3-11.6,2c-2.8,0.5-5.6,1.2-8.3,1.8c-4.3,0.9-8.6,1.8-12.8,2.6c-1.5,0.3-2.9,0.6-4.4,0.7c-1.3,0-1.6,1-1.9,1.8
				c-1,3.4-1.9,6.9-2.8,10.4c-0.3,1-0.5,1.9-0.8,2.9c-0.1,0.3-0.5,0.4-0.7,0.6c-0.1-0.3-0.3-0.6-0.3-0.8c0.4-1.5,0.8-2.9,1.2-4.4
				c0.5-1.7,0.9-3.4,1.4-5.1c0.3-1.1,0.7-2.2,1-3.3c0.1-0.5,0.2-1,0.4-1.6c-0.8,0.1-1.5,0.1-2.1,0.2c-3.2,0.6-6.3,1.3-9.5,1.9
				c-0.8,0.2-1.5,0.5-2.3,0.7c-0.3,0.1-0.7-0.2-1.1-0.3c0.3-0.3,0.6-0.8,0.9-0.8c1.9-0.5,3.9-0.9,5.8-1.4c2.6-0.5,5.2-1,7.8-1.5
				c1-0.2,1.7-1.3,1.3-2.6c-1-3.4-0.3-6.8,0.3-10.1c0.6-3.2,1.3-6.3,2.1-9.5c0.1-0.4,0.3-0.8,0.5-1.2c0.1,0,0.2,0,0.2,0.1
				c0,0.3,0,0.6,0,0.8c-0.6,2.7-1,5.4-1.8,8c-0.4,1.4-0.3,2.9-0.6,4.3c-0.3,1.5-0.4,3-0.5,4.4c0,0.5,0.1,1.1,0.2,1.6
				c0.1,0,0.2,0,0.3,0.1c0.3-0.9,0.6-1.7,0.8-2.6c0.6-2.4,1.3-4.9,1.9-7.3c0.5-2,0.9-4.1,1.4-6.2c0.5-2.2,1-4.3,1.5-6.5
				c0.3-1.4,0.5-2.8,0.8-4.2c0.4-2,0.8-3.9,1.2-5.9c0.4-2.1,1-4.2,1.3-6.4c0.1-0.9-0.3-1.8-0.5-2.7
				C109.2,14.2,109.1,14.2,108.9,14.2z"/>
			<path d="M132.2,43.8c-0.6-0.6-0.8-0.4-1.1,0.1c-1.2,2.1-2.4,4.1-3.5,6.2c-0.1,0.1-0.2,0.2-0.2,0.3c-0.1,0-0.2,0-0.3-0.1
				c0-0.5,0-1,0.2-1.4c0.6-1.1,1.3-2.2,1.9-3.2c0.7-1.1,1.4-2.2,2-3.3c0.4-0.6,0.7-1.2,0.1-1.9c-0.6-0.7-1.4-0.8-2.2-0.4
				c-1.3,0.6-2.3,1.7-2.9,3.1c-0.3,0.9-0.8,1.8-1.2,2.7c-0.1,0.2-0.3,0.4-0.5,0.6c-0.9-1.4,0.4-1.8,1.2-2.7
				c-0.4,0.1-0.6,0.1-0.8,0.2c0.5-1.2,1-2.4,1.6-3.6c-2,0-4.4,1.6-5.1,3.3c-0.5,1.2-1.1,2.4-1.7,3.6c-0.1,0.3-0.3,0.5-0.5,0.9
				c-0.7-1.1-0.7-1.7,0.3-2.5c0.5-0.5,0.9-0.7,0.8-1.5c-0.1-0.6,0.5-1.2,0.7-1.8c0.1-0.2,0.1-0.5,0.1-0.9c-0.7,0.4-1.5,0.8-2.2,1.2
				c-0.2,0.1-0.4,0.4-0.6,0.4c-1.8,0.7-2.2,2.3-2.7,3.9c-0.4,1-0.8,1.9-1.2,2.8c-0.1,0.2-0.5,0.3-0.7,0.4c-0.1-0.2-0.2-0.5-0.1-0.7
				c0.5-1.4,1.1-2.7,1.7-4c0.4-1,0.9-2,1.3-3c0.1-0.3,0.4-0.5,0.7-0.8c0.2,0.2,0.4,0.5,0.6,0.7c1.3-0.6,2.7-1.2,4-1.9
				c0.9-0.4,1-0.4,1,0.7c0,0.1,0,0.2,0,0c1.3-0.5,2.7-1.1,4.1-1.7c0.1,0,0.2-0.1,0.3,0c0.9,0.7,1.7,0,2.6-0.1
				c0.7-0.1,1.6,0.1,2.1,0.5c0.8,0.7,1.5,0,1.5-0.2c0.1-1.1,1-1.4,1.8-1.9C133.6,39.5,132,41.2,132.2,43.8z"/>
			<path d="M147.6,37.7c0,0.3,0.1,0.7,0.2,1.1c-0.3,0.1-0.7,0.3-1.3,0.6c0.5,0.1,0.8,0.2,1.3,0.4c-0.5,0.6-1.1,1.2-1.5,1.8
				c-0.3,0.4-1.2,0.7-0.5,1.5c0,0,0,0.2,0,0.3c-0.3,0.8-0.6,1.5-0.9,2.3c-0.7,0-0.8-0.3-0.7-0.9c0.2-1,1.6-4,2.5-4.9
				c-0.3,0-0.5,0-0.8,0c0.1-0.4,0.2-0.7,0.3-1.1c-1.6-0.3-3,0.3-4.4,0.9c-0.2,0.1-0.4,0.5-0.5,0.8c-0.5,1.4-0.9,2.7-1.3,4.1
				c-0.1,0.5-0.2,1-0.8,0.8c-0.2-0.1-0.3-0.8-0.2-1.2c0.2-0.6,0.6-1.1,0.8-1.7c0.4-1.1,0.7-2.3,1-3.5c-1.5,0.6-2.4,1.6-2.9,3.1
				s-1.2,3-1.8,4.5c-0.1,0.2-0.3,0.5-0.5,0.6c-0.3,0.2-0.8,0.4-1.1,0.3c-0.3-0.1-0.5-0.6-0.6-0.9c0-0.6,0.1-1.1,0.2-1.7
				c0.1,0,0.2,0,0.3,0c0.1,0.5,0.2,1,0.3,1.7c1.3-1.6,1.8-3.5,2.5-5.4c-0.6-0.2-1,0.1-1.2,0.7c-0.2,0.8-0.5,1.5-0.8,2.3
				c-0.1,0-0.3,0-0.4-0.1c0-0.5,0-1,0.1-1.5s0.2-1,0.4-1.5c0.1-0.2,0.3-0.6,0.5-0.6c1.6,0,1.9-1.3,2.3-2.4c0.4-0.9,0.3-2.1,1.1-2.9
				c0.1-0.2,0-0.8,0.5-1c0,0,0-0.4-0.1-0.6c0.1-0.1,0.3-0.1,0.5-0.2c-0.3-0.8,0.8-1.4,0.3-2.2c0.1,0,0.2,0,0.3-0.1
				c0,0.2,0.1,0.4,0.1,0.6c-0.5,1.6-1,3.2-1.4,4.8c-0.2,0.8-0.4,1.7-0.7,2.5c1,0.2,1.5-0.7,2.2-1.1c0.3-0.1,0.5-0.4,0.7-0.6
				c0.2-0.1,0.5-0.1,0.7-0.1c0,0.2-0.1,0.4-0.1,0.6c0,0.1,0,0.2,0,0.4c0.3,0,0.6-0.1,0.9-0.1C144.7,38,146.2,37.8,147.6,37.7
				L147.6,37.7z"/>
			<path d="M140,61.6c-0.1-0.8-0.1-1.7-0.5-2.4s-1.3-1-2-1.4c1.1-0.3,2.7,0.6,3.2,1.9c0.4,1-0.1,2.6-1.3,3.2
				c-0.8,0.4-1.5,1.2-2.3,1.6c-2.9,1.4-5.8,2.8-8.8,3.9c-2.3,0.9-4.8,1.3-7.3,1.9c-0.3,0.1-0.6-0.1-0.9-0.2c3-0.9,6-1.8,8.9-2.9
				c3.1-1.2,6-2.7,9-4h0.1C138.8,62.6,139.4,62.1,140,61.6z"/>
			<path d="M147.6,37.7c-0.2-0.2-0.3-0.4-0.6-0.7c0.3-0.3,0.6-0.7,0.9-1c0.5-0.4,1-0.3,1.4,0.1c0.8,0.8,1.6,1.6,2.4,2.4
				c0.5-1.2,1.1-2.3,1.3-3.4c0.2-1.1,0.7-1.9,1.1-2.8c0.1,0.1,0.2,0.1,0.3,0.2c-0.3,1.1-0.5,2.3-0.9,3.4c-0.4,1.2-0.9,2.3-1.4,3.5
				c-0.5,1.5-1,3-1.6,4.5c-0.2,0.4-0.8,1.1-0.9,1c-0.7-0.4-0.4-1-0.2-1.5c0.5-1.2,1.1-2.5,1.7-3.7c0.3-0.6,0-1.3-0.6-1.6
				c-0.3-0.1-0.5-0.5-0.8-0.7c-0.4-0.3-0.8-0.7-1.3-0.8C148.2,36.6,147.9,37.3,147.6,37.7L147.6,37.7z"/>
			<path d="M126.5,50.9c0,0.6,0.1,1.2,0.1,2.1c2.5-2.3,3.9-5.1,4.7-8.2c0.1,0,0.2,0.1,0.3,0.1c-0.1,0.3-0.2,0.6-0.3,1
				c0.2-0.1,0.4-0.1,0.6-0.2c-0.3,1.9-1.4,3.4-2.3,5c-0.5,0.9-1.1,1.7-1.8,2.5c-0.3,0.3-0.7,0.6-1.1,0.7c-0.9,0.2-1.5-0.3-1.3-1.3
				c0.1-0.6,0.4-1.1,0.5-1.7C126.3,50.8,126.4,50.8,126.5,50.9z"/>
			<path d="M157.7,30.5c-0.1,0.2-0.3,0.4-0.4,0.7c0,0.2,0.1,0.4,0.1,0.6c-0.1,0.8-0.3,1.6-0.5,2.5c-0.2,1-0.4,2.1-0.6,3.1
				c-0.1,0.2-0.3,0.4-0.5,0.7c-0.1,0-0.1-0.1-0.2-0.1c0.1-0.1,0.2-0.2,0.1-0.3c0-0.2-0.2-0.4-0.1-0.5c0.7-0.6,0.3-1.5,0.5-2.3
				c0.3-0.9,0.3-1.8,0.4-2.7c0.1-0.5,0.1-1,0.3-1.5c0.1-0.2,0.4-0.2,0.7-0.3C157.6,30.4,157.6,30.5,157.7,30.5z"/>
			<path d="M159.4,22.8c-0.1,0.8-0.1,1.5-0.3,2.3c-0.4,1.6-0.8,3.2-1.2,4.8c0,0.2-0.4,0.2-0.6,0.4c-0.1-0.1-0.2-0.1-0.3-0.2
				c0.2-0.8,0.4-1.6,0.6-2.4c0-0.2-0.1-0.4,0-0.6c0.2-0.4,0.6-0.7,0.7-1.1c0.2-0.4,0.4-0.9,0.3-1.3
				C158.5,23.9,159.3,23.5,159.4,22.8z"/>
			<path d="M104.7,31.3c-0.3,1.4-0.6,2.9-0.9,4.3c-0.1,0.2-0.2,0.4-0.3,0.6c-0.1,0.1-0.2,0.1-0.3,0.2c-0.1-0.1-0.2-0.2-0.2-0.3
				c0.3-1.6,0.6-3.1,1-4.7c0-0.1,0.3-0.2,0.5-0.3C104.5,31.1,104.6,31.2,104.7,31.3z"/>
			<path d="M141.7,28.6c-0.8-0.7,0.2-1.6-0.1-2.3c-0.1,0-0.3-0.1-0.6-0.2c0.2-0.3,0.4-0.5,0.6-0.7c0.2-0.1,0.6-0.3,0.7-0.2
				c0.2,0.2,0.4,0.5,0.3,0.8c-0.1,0.9-0.3,1.7-0.5,2.6C142,28.6,141.9,28.6,141.7,28.6z"/>
			<path d="M160.5,20.6c-0.6-0.5,0-1.5-1-1.6c0.2-0.7,0.7-0.8,1.2-0.6c0.5,0.3,0.6,0.7,0.2,1.2C160.7,19.9,160.6,20.2,160.5,20.6z"
				/>
			<path d="M155.1,40.8c0.1-0.7,0.2-1.4,0.3-2c0-0.2,0.4-0.3,0.6-0.5c0,0.2,0.1,0.4,0.1,0.6C156.3,39.7,156,40.3,155.1,40.8z"/>
			<path d="M154,32.1c0.2-0.6,0.4-1.3,0.6-1.9c0-0.1,0.2-0.1,0.3-0.2c0,0.1,0,0.2,0,0.3c0,0.5,0.1,0.9,0,1.4c0,0.2-0.4,0.4-0.5,0.7
				C154.2,32.3,154.1,32.2,154,32.1z"/>
			<path d="M104.6,29.6c0-0.8,0.1-1.5,0.1-2.3c0.1-0.1,0.3-0.2,0.4-0.3c0.1,0.2,0.3,0.5,0.2,0.6C104.9,28.3,105.7,29.3,104.6,29.6
				L104.6,29.6z"/>
			<path d="M104.6,29.6c0.1,0.3,0.3,0.6,0.3,0.8c0,0.2-0.4,0.4-0.6,0.6c-0.1-0.1-0.2-0.2-0.3-0.3C104.1,30.4,104.4,30,104.6,29.6
				L104.6,29.6z"/>
			<path d="M158.9,21c0,0-0.1,0-0.1,0.1V21l0.1-0.1C158.8,20.9,158.8,21,158.9,21z"/>
		</g>
	</g>
</g>
</svg>
