<?xml version="1.0" encoding="utf-8"?>
<!-- Generator: Adobe Illustrator 26.1.0, SVG Export Plug-In . SVG Version: 6.00 Build 0)  -->
<svg version="1.1" id="Capa_1" xmlns="http://www.w3.org/2000/svg" xmlns:xlink="http://www.w3.org/1999/xlink" x="0px" y="0px"
	 viewBox="0 0 577 44" style="enable-background:new 0 0 577 44;" xml:space="preserve">
<style type="text/css">
	.st0{fill:#C52350;}
</style>
<g>
	<g>
		<path d="M12.5,18.3v-7.2h4.1v0.6h-3.4v2.5h3.1v0.6h-3.1v2.9H17v0.6H12.5z"/>
		<path d="M20,17.8c0.4,0,0.7-0.1,1-0.2c0.3-0.1,0.4-0.3,0.4-0.6c0-0.1,0-0.3-0.1-0.4c0-0.1-0.1-0.2-0.2-0.3s-0.2-0.2-0.4-0.2
			c-0.2-0.1-0.4-0.2-0.6-0.3c-0.2-0.1-0.4-0.2-0.6-0.3c-0.2-0.1-0.3-0.2-0.5-0.3c-0.1-0.1-0.2-0.3-0.3-0.4c-0.1-0.2-0.1-0.4-0.1-0.6
			c0-0.4,0.2-0.8,0.5-1.1c0.3-0.3,0.8-0.4,1.4-0.4c0.4,0,0.7,0,0.9,0.1c0.2,0.1,0.4,0.1,0.5,0.2l-0.2,0.6c-0.1,0-0.2-0.1-0.4-0.2
			c-0.2-0.1-0.5-0.1-0.9-0.1c-0.2,0-0.3,0-0.4,0c-0.1,0-0.3,0.1-0.4,0.1c-0.1,0.1-0.2,0.1-0.2,0.2c-0.1,0.1-0.1,0.2-0.1,0.4
			c0,0.1,0,0.3,0.1,0.4c0.1,0.1,0.1,0.2,0.2,0.3c0.1,0.1,0.2,0.2,0.4,0.2s0.3,0.1,0.5,0.2c0.2,0.1,0.4,0.2,0.6,0.3
			c0.2,0.1,0.4,0.2,0.5,0.3c0.1,0.1,0.3,0.3,0.4,0.4c0.1,0.2,0.1,0.4,0.1,0.6c0,0.5-0.2,0.8-0.5,1.1c-0.4,0.2-0.9,0.4-1.5,0.4
			c-0.5,0-0.8,0-1.1-0.1c-0.2-0.1-0.4-0.1-0.5-0.2l0.2-0.6c0,0,0.1,0,0.1,0.1c0.1,0,0.2,0.1,0.3,0.1c0.1,0,0.3,0.1,0.4,0.1
			C19.6,17.8,19.8,17.8,20,17.8z"/>
		<path d="M24.6,12.9h2.1v0.6h-2.1v2.8c0,0.3,0,0.6,0.1,0.7c0.1,0.2,0.1,0.3,0.2,0.4s0.2,0.2,0.4,0.2c0.1,0,0.3,0.1,0.5,0.1
			c0.3,0,0.5,0,0.7-0.1c0.2-0.1,0.3-0.1,0.4-0.2l0.2,0.6c-0.1,0.1-0.3,0.1-0.5,0.2c-0.2,0.1-0.5,0.1-0.8,0.1c-0.3,0-0.6,0-0.8-0.1
			c-0.2-0.1-0.4-0.2-0.5-0.4c-0.1-0.2-0.2-0.4-0.3-0.7c-0.1-0.3-0.1-0.6-0.1-0.9v-4.9l0.7-0.1V12.9z"/>
		<path d="M28.2,15.6c0-0.5,0.1-0.9,0.2-1.2s0.3-0.6,0.5-0.9c0.2-0.2,0.5-0.4,0.7-0.5c0.3-0.1,0.6-0.2,0.9-0.2
			c0.7,0,1.2,0.2,1.6,0.6c0.4,0.4,0.6,1.1,0.6,2c0,0.1,0,0.1,0,0.2c0,0.1,0,0.1,0,0.2H29c0,0.7,0.2,1.2,0.5,1.5
			c0.3,0.4,0.8,0.5,1.5,0.5c0.4,0,0.7,0,0.9-0.1c0.2-0.1,0.4-0.1,0.5-0.2l0.1,0.6c-0.1,0.1-0.3,0.1-0.5,0.2
			c-0.3,0.1-0.6,0.1-0.9,0.1c-0.5,0-0.9-0.1-1.2-0.2c-0.3-0.1-0.6-0.3-0.8-0.6c-0.2-0.2-0.4-0.5-0.5-0.9S28.2,16,28.2,15.6z
			 M32,15.2c0-0.6-0.1-1-0.4-1.3c-0.2-0.3-0.6-0.5-1.1-0.5c-0.2,0-0.5,0-0.6,0.1c-0.2,0.1-0.4,0.2-0.5,0.4c-0.1,0.2-0.3,0.4-0.3,0.6
			C29,14.7,29,14.9,29,15.2H32z"/>
		<path d="M40.1,18.4c-0.4,0-0.8-0.1-1.1-0.2s-0.6-0.3-0.8-0.6c-0.2-0.2-0.4-0.5-0.5-0.9s-0.2-0.7-0.2-1.1c0-0.4,0.1-0.8,0.2-1.1
			c0.1-0.3,0.3-0.6,0.5-0.9c0.2-0.2,0.5-0.4,0.8-0.6s0.6-0.2,1-0.2c0.3,0,0.6,0,0.8,0.1c0.3,0,0.4,0.1,0.6,0.2l-0.2,0.6
			c-0.1-0.1-0.3-0.1-0.5-0.2c-0.2,0-0.4-0.1-0.7-0.1c-0.6,0-1,0.2-1.4,0.6c-0.3,0.4-0.5,0.9-0.5,1.6c0,0.3,0,0.6,0.1,0.9
			c0.1,0.3,0.2,0.5,0.3,0.7s0.4,0.3,0.6,0.4c0.2,0.1,0.5,0.2,0.9,0.2c0.3,0,0.5,0,0.7-0.1c0.2-0.1,0.3-0.1,0.4-0.2l0.1,0.6
			c-0.1,0.1-0.3,0.1-0.6,0.2C40.6,18.4,40.4,18.4,40.1,18.4z"/>
		<path d="M47.3,18.1c-0.2,0.1-0.5,0.1-0.8,0.2c-0.3,0.1-0.8,0.1-1.2,0.1c-0.4,0-0.7-0.1-1-0.2c-0.3-0.1-0.5-0.3-0.7-0.5
			c-0.2-0.2-0.3-0.5-0.4-0.8c-0.1-0.3-0.1-0.6-0.1-1v-3h0.7v2.8c0,0.4,0,0.7,0.1,1c0.1,0.3,0.1,0.5,0.3,0.6s0.3,0.3,0.5,0.4
			c0.2,0.1,0.4,0.1,0.7,0.1c0.3,0,0.6,0,0.8-0.1c0.2,0,0.4-0.1,0.4-0.1v-4.7h0.7V18.1z"/>
		<path d="M51.6,12.8c0.2,0,0.4,0,0.6,0.1c0.2,0,0.3,0.1,0.4,0.1l-0.1,0.6c-0.1,0-0.2-0.1-0.3-0.1c-0.2,0-0.4,0-0.7,0
			c-0.3,0-0.5,0-0.7,0.1c-0.2,0-0.3,0.1-0.3,0.1v4.7h-0.7v-5.1c0.2-0.1,0.4-0.2,0.7-0.2S51.1,12.8,51.6,12.8z"/>
		<path d="M55.3,17.8c0.4,0,0.7-0.1,1-0.2c0.3-0.1,0.4-0.3,0.4-0.6c0-0.1,0-0.3-0.1-0.4c0-0.1-0.1-0.2-0.2-0.3s-0.2-0.2-0.4-0.2
			c-0.2-0.1-0.4-0.2-0.6-0.3c-0.2-0.1-0.4-0.2-0.6-0.3c-0.2-0.1-0.3-0.2-0.5-0.3c-0.1-0.1-0.2-0.3-0.3-0.4c-0.1-0.2-0.1-0.4-0.1-0.6
			c0-0.4,0.2-0.8,0.5-1.1c0.3-0.3,0.8-0.4,1.4-0.4c0.4,0,0.7,0,0.9,0.1c0.2,0.1,0.4,0.1,0.5,0.2L57,13.7c-0.1,0-0.2-0.1-0.4-0.2
			c-0.2-0.1-0.5-0.1-0.9-0.1c-0.2,0-0.3,0-0.4,0c-0.1,0-0.3,0.1-0.4,0.1c-0.1,0.1-0.2,0.1-0.2,0.2c-0.1,0.1-0.1,0.2-0.1,0.4
			c0,0.1,0,0.3,0.1,0.4c0.1,0.1,0.1,0.2,0.2,0.3c0.1,0.1,0.2,0.2,0.4,0.2s0.3,0.1,0.5,0.2c0.2,0.1,0.4,0.2,0.6,0.3
			c0.2,0.1,0.4,0.2,0.5,0.3c0.1,0.1,0.3,0.3,0.4,0.4c0.1,0.2,0.1,0.4,0.1,0.6c0,0.5-0.2,0.8-0.5,1.1c-0.4,0.2-0.9,0.4-1.5,0.4
			c-0.5,0-0.8,0-1.1-0.1c-0.2-0.1-0.4-0.1-0.5-0.2l0.2-0.6c0,0,0.1,0,0.1,0.1c0.1,0,0.2,0.1,0.3,0.1c0.1,0,0.3,0.1,0.4,0.1
			C54.9,17.8,55.1,17.8,55.3,17.8z"/>
		<path d="M63.9,15.6c0,0.4-0.1,0.8-0.2,1.1c-0.1,0.3-0.3,0.6-0.5,0.9c-0.2,0.2-0.5,0.4-0.8,0.6s-0.6,0.2-1,0.2s-0.7-0.1-1-0.2
			s-0.6-0.3-0.8-0.6c-0.2-0.2-0.4-0.5-0.5-0.9C59,16.4,59,16,59,15.6c0-0.4,0.1-0.8,0.2-1.2c0.1-0.3,0.3-0.6,0.5-0.9
			s0.5-0.4,0.8-0.6s0.6-0.2,1-0.2s0.7,0.1,1,0.2s0.6,0.3,0.8,0.6c0.2,0.2,0.4,0.5,0.5,0.9C63.8,14.8,63.9,15.2,63.9,15.6z
			 M63.2,15.6c0-0.7-0.2-1.2-0.5-1.6c-0.3-0.4-0.7-0.6-1.3-0.6s-1,0.2-1.3,0.6c-0.3,0.4-0.5,0.9-0.5,1.6s0.2,1.2,0.5,1.6
			c0.3,0.4,0.7,0.6,1.3,0.6s1-0.2,1.3-0.6C63,16.8,63.2,16.3,63.2,15.6z"/>
		<path d="M68.9,18.3v-7.9l0.7-0.1v2.8c0.2-0.1,0.4-0.1,0.7-0.2c0.2,0,0.5-0.1,0.7-0.1c0.4,0,0.8,0.1,1,0.2c0.3,0.1,0.5,0.3,0.7,0.5
			c0.2,0.2,0.3,0.5,0.3,0.8s0.1,0.6,0.1,1v3h-0.7v-2.8c0-0.4,0-0.7-0.1-1c-0.1-0.3-0.1-0.5-0.3-0.6c-0.1-0.2-0.3-0.3-0.5-0.4
			c-0.2-0.1-0.5-0.1-0.8-0.1c-0.1,0-0.2,0-0.4,0c-0.1,0-0.3,0-0.4,0.1s-0.2,0-0.3,0.1c-0.1,0-0.2,0-0.2,0.1v4.6H68.9z"/>
		<path d="M77.1,12.8c0.4,0,0.7,0,0.9,0.2c0.2,0.1,0.4,0.2,0.6,0.4c0.2,0.2,0.3,0.4,0.3,0.6c0.1,0.2,0.1,0.5,0.1,0.8v3.4
			c-0.1,0-0.2,0-0.3,0.1c-0.1,0-0.3,0.1-0.5,0.1c-0.2,0-0.4,0-0.6,0.1c-0.2,0-0.4,0-0.6,0c-0.3,0-0.5,0-0.8-0.1s-0.4-0.2-0.6-0.3
			c-0.2-0.1-0.3-0.3-0.4-0.5c-0.1-0.2-0.2-0.5-0.2-0.8c0-0.3,0.1-0.5,0.2-0.7s0.3-0.4,0.5-0.5s0.4-0.2,0.7-0.3
			c0.3-0.1,0.6-0.1,0.9-0.1c0.1,0,0.2,0,0.3,0c0.1,0,0.2,0,0.3,0c0.1,0,0.2,0,0.3,0.1c0.1,0,0.1,0,0.2,0v-0.3c0-0.2,0-0.4,0-0.5
			c0-0.2-0.1-0.3-0.2-0.5c-0.1-0.1-0.2-0.3-0.4-0.3c-0.2-0.1-0.4-0.1-0.7-0.1c-0.4,0-0.7,0-0.9,0.1s-0.3,0.1-0.4,0.1L75.6,13
			c0.1-0.1,0.3-0.1,0.5-0.2C76.4,12.8,76.7,12.8,77.1,12.8z M77.1,17.8c0.3,0,0.5,0,0.7,0c0.2,0,0.4,0,0.5-0.1v-1.9
			c-0.1,0-0.2-0.1-0.4-0.1c-0.2,0-0.4-0.1-0.7-0.1c-0.2,0-0.3,0-0.5,0c-0.2,0-0.3,0.1-0.5,0.2c-0.2,0.1-0.3,0.2-0.4,0.3
			c-0.1,0.1-0.1,0.3-0.1,0.5c0,0.2,0,0.4,0.1,0.5c0.1,0.1,0.2,0.2,0.3,0.3s0.3,0.1,0.4,0.2C76.7,17.8,76.9,17.8,77.1,17.8z"/>
		<path d="M85.4,17.8c0.4,0,0.7-0.1,1-0.2c0.3-0.1,0.4-0.3,0.4-0.6c0-0.1,0-0.3-0.1-0.4c0-0.1-0.1-0.2-0.2-0.3s-0.2-0.2-0.4-0.2
			c-0.2-0.1-0.4-0.2-0.6-0.3c-0.2-0.1-0.4-0.2-0.6-0.3c-0.2-0.1-0.3-0.2-0.5-0.3c-0.1-0.1-0.2-0.3-0.3-0.4c-0.1-0.2-0.1-0.4-0.1-0.6
			c0-0.4,0.2-0.8,0.5-1.1c0.3-0.3,0.8-0.4,1.4-0.4c0.4,0,0.7,0,0.9,0.1c0.2,0.1,0.4,0.1,0.5,0.2L87,13.7c-0.1,0-0.2-0.1-0.4-0.2
			c-0.2-0.1-0.5-0.1-0.9-0.1c-0.2,0-0.3,0-0.4,0c-0.1,0-0.3,0.1-0.4,0.1c-0.1,0.1-0.2,0.1-0.2,0.2c-0.1,0.1-0.1,0.2-0.1,0.4
			c0,0.1,0,0.3,0.1,0.4c0.1,0.1,0.1,0.2,0.2,0.3c0.1,0.1,0.2,0.2,0.4,0.2s0.3,0.1,0.5,0.2c0.2,0.1,0.4,0.2,0.6,0.3
			c0.2,0.1,0.4,0.2,0.5,0.3c0.1,0.1,0.3,0.3,0.4,0.4c0.1,0.2,0.1,0.4,0.1,0.6c0,0.5-0.2,0.8-0.5,1.1c-0.4,0.2-0.9,0.4-1.5,0.4
			c-0.5,0-0.8,0-1.1-0.1c-0.2-0.1-0.4-0.1-0.5-0.2l0.2-0.6c0,0,0.1,0,0.1,0.1c0.1,0,0.2,0.1,0.3,0.1c0.1,0,0.3,0.1,0.4,0.1
			C85,17.8,85.2,17.8,85.4,17.8z"/>
		<path d="M90.2,11.3c0,0.2,0,0.3-0.1,0.4c-0.1,0.1-0.2,0.1-0.4,0.1c-0.1,0-0.3,0-0.4-0.1c-0.1-0.1-0.1-0.2-0.1-0.4s0-0.3,0.1-0.4
			c0.1-0.1,0.2-0.1,0.4-0.1c0.1,0,0.3,0,0.4,0.1C90.2,11,90.2,11.1,90.2,11.3z M90.1,18.3h-0.7v-5.4h0.7V18.3z"/>
		<path d="M96.7,18.1c-0.2,0.1-0.5,0.1-0.8,0.2c-0.3,0.1-0.7,0.1-1.2,0.1c-0.4,0-0.8-0.1-1.1-0.2s-0.6-0.3-0.8-0.6
			c-0.2-0.2-0.4-0.5-0.5-0.9c-0.1-0.3-0.2-0.7-0.2-1.2c0-0.4,0.1-0.8,0.2-1.1c0.1-0.3,0.3-0.6,0.5-0.9c0.2-0.2,0.5-0.4,0.8-0.6
			c0.3-0.1,0.6-0.2,1-0.2c0.4,0,0.7,0.1,0.9,0.2c0.3,0.1,0.4,0.2,0.6,0.3v-2.9l0.7-0.1V18.1z M96,13.9c-0.1,0-0.1-0.1-0.2-0.2
			c-0.1-0.1-0.2-0.1-0.3-0.2c-0.1,0-0.3-0.1-0.4-0.1c-0.1,0-0.3,0-0.5,0c-0.3,0-0.6,0.1-0.8,0.2c-0.2,0.1-0.4,0.3-0.5,0.5
			c-0.1,0.2-0.2,0.4-0.3,0.7s-0.1,0.5-0.1,0.8c0,0.7,0.2,1.2,0.5,1.6c0.4,0.4,0.8,0.6,1.4,0.6c0.3,0,0.6,0,0.8,0
			c0.2,0,0.4-0.1,0.5-0.1V13.9z"/>
		<path d="M103.7,15.6c0,0.4-0.1,0.8-0.2,1.1c-0.1,0.3-0.3,0.6-0.5,0.9c-0.2,0.2-0.5,0.4-0.8,0.6s-0.6,0.2-1,0.2s-0.7-0.1-1-0.2
			s-0.6-0.3-0.8-0.6c-0.2-0.2-0.4-0.5-0.5-0.9c-0.1-0.3-0.2-0.7-0.2-1.1c0-0.4,0.1-0.8,0.2-1.2c0.1-0.3,0.3-0.6,0.5-0.9
			s0.5-0.4,0.8-0.6s0.6-0.2,1-0.2s0.7,0.1,1,0.2s0.6,0.3,0.8,0.6c0.2,0.2,0.4,0.5,0.5,0.9C103.6,14.8,103.7,15.2,103.7,15.6z
			 M103,15.6c0-0.7-0.2-1.2-0.5-1.6c-0.3-0.4-0.7-0.6-1.3-0.6s-1,0.2-1.3,0.6c-0.3,0.4-0.5,0.9-0.5,1.6s0.2,1.2,0.5,1.6
			c0.3,0.4,0.7,0.6,1.3,0.6s1-0.2,1.3-0.6C102.8,16.8,103,16.3,103,15.6z"/>
		<path d="M110.6,12.8c0.2,0,0.4,0,0.6,0.1c0.2,0,0.3,0.1,0.4,0.1l-0.1,0.6c-0.1,0-0.2-0.1-0.3-0.1c-0.2,0-0.4,0-0.7,0
			c-0.3,0-0.5,0-0.7,0.1c-0.2,0-0.3,0.1-0.3,0.1v4.7h-0.7v-5.1c0.2-0.1,0.4-0.2,0.7-0.2S110.1,12.8,110.6,12.8z"/>
		<path d="M112.9,15.6c0-0.5,0.1-0.9,0.2-1.2s0.3-0.6,0.5-0.9c0.2-0.2,0.5-0.4,0.7-0.5c0.3-0.1,0.6-0.2,0.9-0.2
			c0.7,0,1.2,0.2,1.6,0.6c0.4,0.4,0.6,1.1,0.6,2c0,0.1,0,0.1,0,0.2c0,0.1,0,0.1,0,0.2h-3.8c0,0.7,0.2,1.2,0.5,1.5
			c0.3,0.4,0.8,0.5,1.5,0.5c0.4,0,0.7,0,0.9-0.1c0.2-0.1,0.4-0.1,0.5-0.2l0.1,0.6c-0.1,0.1-0.3,0.1-0.5,0.2
			c-0.3,0.1-0.6,0.1-0.9,0.1c-0.5,0-0.9-0.1-1.2-0.2c-0.3-0.1-0.6-0.3-0.8-0.6c-0.2-0.2-0.4-0.5-0.5-0.9S112.9,16,112.9,15.6z
			 M116.7,15.2c0-0.6-0.1-1-0.4-1.3c-0.2-0.3-0.6-0.5-1.1-0.5c-0.2,0-0.5,0-0.6,0.1c-0.2,0.1-0.4,0.2-0.5,0.4
			c-0.1,0.2-0.3,0.4-0.3,0.6c-0.1,0.2-0.1,0.4-0.1,0.7H116.7z"/>
		<path d="M121.2,12.8c0.4,0,0.7,0,0.9,0.2c0.2,0.1,0.4,0.2,0.6,0.4c0.2,0.2,0.3,0.4,0.3,0.6c0.1,0.2,0.1,0.5,0.1,0.8v3.4
			c-0.1,0-0.2,0-0.3,0.1c-0.1,0-0.3,0.1-0.5,0.1c-0.2,0-0.4,0-0.6,0.1c-0.2,0-0.4,0-0.6,0c-0.3,0-0.5,0-0.8-0.1s-0.4-0.2-0.6-0.3
			c-0.2-0.1-0.3-0.3-0.4-0.5c-0.1-0.2-0.2-0.5-0.2-0.8c0-0.3,0.1-0.5,0.2-0.7s0.3-0.4,0.5-0.5s0.4-0.2,0.7-0.3
			c0.3-0.1,0.6-0.1,0.9-0.1c0.1,0,0.2,0,0.3,0c0.1,0,0.2,0,0.3,0c0.1,0,0.2,0,0.3,0.1c0.1,0,0.1,0,0.2,0v-0.3c0-0.2,0-0.4,0-0.5
			c0-0.2-0.1-0.3-0.2-0.5c-0.1-0.1-0.2-0.3-0.4-0.3c-0.2-0.1-0.4-0.1-0.7-0.1c-0.4,0-0.7,0-0.9,0.1s-0.3,0.1-0.4,0.1l-0.1-0.6
			c0.1-0.1,0.3-0.1,0.5-0.2C120.5,12.8,120.8,12.8,121.2,12.8z M121.2,17.8c0.3,0,0.5,0,0.7,0c0.2,0,0.4,0,0.5-0.1v-1.9
			c-0.1,0-0.2-0.1-0.4-0.1c-0.2,0-0.4-0.1-0.7-0.1c-0.2,0-0.3,0-0.5,0c-0.2,0-0.3,0.1-0.5,0.2c-0.2,0.1-0.3,0.2-0.4,0.3
			c-0.1,0.1-0.1,0.3-0.1,0.5c0,0.2,0,0.4,0.1,0.5c0.1,0.1,0.2,0.2,0.3,0.3s0.3,0.1,0.4,0.2C120.8,17.8,121,17.8,121.2,17.8z"/>
		<path d="M126.8,18.4c-0.2,0-0.4,0-0.6-0.1s-0.3-0.1-0.4-0.2s-0.2-0.2-0.3-0.4c-0.1-0.2-0.1-0.4-0.1-0.6v-6.6l0.7-0.1V17
			c0,0.2,0,0.3,0,0.4c0,0.1,0.1,0.2,0.1,0.2c0.1,0.1,0.1,0.1,0.2,0.1c0.1,0,0.2,0.1,0.4,0.1L126.8,18.4z"/>
		<path d="M129.5,11.3c0,0.2,0,0.3-0.1,0.4c-0.1,0.1-0.2,0.1-0.4,0.1c-0.1,0-0.3,0-0.4-0.1c-0.1-0.1-0.1-0.2-0.1-0.4s0-0.3,0.1-0.4
			c0.1-0.1,0.2-0.1,0.4-0.1c0.1,0,0.3,0,0.4,0.1C129.5,11,129.5,11.1,129.5,11.3z M129.4,18.3h-0.7v-5.4h0.7V18.3z"/>
		<path d="M135.1,13.5c-0.2,0.2-0.4,0.4-0.6,0.7s-0.5,0.7-0.8,1.1c-0.3,0.4-0.6,0.8-0.9,1.2s-0.5,0.8-0.7,1.2h3.1v0.6h-3.9v-0.5
			c0.2-0.3,0.4-0.7,0.7-1.1c0.3-0.4,0.5-0.8,0.8-1.2c0.3-0.4,0.6-0.8,0.8-1.1c0.3-0.3,0.5-0.6,0.7-0.9h-2.8v-0.6h3.7V13.5z"/>
		<path d="M138.8,12.8c0.4,0,0.7,0,0.9,0.2c0.2,0.1,0.4,0.2,0.6,0.4c0.2,0.2,0.3,0.4,0.3,0.6c0.1,0.2,0.1,0.5,0.1,0.8v3.4
			c-0.1,0-0.2,0-0.3,0.1c-0.1,0-0.3,0.1-0.5,0.1c-0.2,0-0.4,0-0.6,0.1c-0.2,0-0.4,0-0.6,0c-0.3,0-0.5,0-0.8-0.1s-0.4-0.2-0.6-0.3
			c-0.2-0.1-0.3-0.3-0.4-0.5c-0.1-0.2-0.2-0.5-0.2-0.8c0-0.3,0.1-0.5,0.2-0.7s0.3-0.4,0.5-0.5s0.4-0.2,0.7-0.3
			c0.3-0.1,0.6-0.1,0.9-0.1c0.1,0,0.2,0,0.3,0c0.1,0,0.2,0,0.3,0c0.1,0,0.2,0,0.3,0.1c0.1,0,0.1,0,0.2,0v-0.3c0-0.2,0-0.4,0-0.5
			c0-0.2-0.1-0.3-0.2-0.5c-0.1-0.1-0.2-0.3-0.4-0.3c-0.2-0.1-0.4-0.1-0.7-0.1c-0.4,0-0.7,0-0.9,0.1s-0.3,0.1-0.4,0.1l-0.1-0.6
			c0.1-0.1,0.3-0.1,0.5-0.2C138.1,12.8,138.4,12.8,138.8,12.8z M138.8,17.8c0.3,0,0.5,0,0.7,0c0.2,0,0.4,0,0.5-0.1v-1.9
			c-0.1,0-0.2-0.1-0.4-0.1c-0.2,0-0.4-0.1-0.7-0.1c-0.2,0-0.3,0-0.5,0c-0.2,0-0.3,0.1-0.5,0.2c-0.2,0.1-0.3,0.2-0.4,0.3
			c-0.1,0.1-0.1,0.3-0.1,0.5c0,0.2,0,0.4,0.1,0.5c0.1,0.1,0.2,0.2,0.3,0.3s0.3,0.1,0.4,0.2C138.4,17.8,138.6,17.8,138.8,17.8z"/>
		<path d="M147.3,18.1c-0.2,0.1-0.5,0.1-0.8,0.2c-0.3,0.1-0.7,0.1-1.2,0.1c-0.4,0-0.8-0.1-1.1-0.2s-0.6-0.3-0.8-0.6
			c-0.2-0.2-0.4-0.5-0.5-0.9c-0.1-0.3-0.2-0.7-0.2-1.2c0-0.4,0.1-0.8,0.2-1.1c0.1-0.3,0.3-0.6,0.5-0.9c0.2-0.2,0.5-0.4,0.8-0.6
			c0.3-0.1,0.6-0.2,1-0.2c0.4,0,0.7,0.1,0.9,0.2c0.3,0.1,0.4,0.2,0.6,0.3v-2.9l0.7-0.1V18.1z M146.6,13.9c-0.1,0-0.1-0.1-0.2-0.2
			c-0.1-0.1-0.2-0.1-0.3-0.2c-0.1,0-0.3-0.1-0.4-0.1c-0.1,0-0.3,0-0.5,0c-0.3,0-0.6,0.1-0.8,0.2c-0.2,0.1-0.4,0.3-0.5,0.5
			c-0.1,0.2-0.2,0.4-0.3,0.7s-0.1,0.5-0.1,0.8c0,0.7,0.2,1.2,0.5,1.6c0.4,0.4,0.8,0.6,1.4,0.6c0.3,0,0.6,0,0.8,0
			c0.2,0,0.4-0.1,0.5-0.1V13.9z"/>
		<path d="M154.3,15.6c0,0.4-0.1,0.8-0.2,1.1c-0.1,0.3-0.3,0.6-0.5,0.9c-0.2,0.2-0.5,0.4-0.8,0.6s-0.6,0.2-1,0.2s-0.7-0.1-1-0.2
			s-0.6-0.3-0.8-0.6c-0.2-0.2-0.4-0.5-0.5-0.9c-0.1-0.3-0.2-0.7-0.2-1.1c0-0.4,0.1-0.8,0.2-1.2c0.1-0.3,0.3-0.6,0.5-0.9
			s0.5-0.4,0.8-0.6s0.6-0.2,1-0.2s0.7,0.1,1,0.2s0.6,0.3,0.8,0.6c0.2,0.2,0.4,0.5,0.5,0.9C154.2,14.8,154.3,15.2,154.3,15.6z
			 M153.5,15.6c0-0.7-0.2-1.2-0.5-1.6c-0.3-0.4-0.7-0.6-1.3-0.6s-1,0.2-1.3,0.6c-0.3,0.4-0.5,0.9-0.5,1.6s0.2,1.2,0.5,1.6
			c0.3,0.4,0.7,0.6,1.3,0.6s1-0.2,1.3-0.6C153.4,16.8,153.5,16.3,153.5,15.6z"/>
		<path d="M160,13.2c0.1-0.1,0.3-0.2,0.6-0.3c0.3-0.1,0.6-0.2,0.9-0.2c0.4,0,0.7,0.1,1,0.2c0.3,0.1,0.6,0.3,0.8,0.6
			c0.2,0.2,0.4,0.5,0.5,0.9s0.2,0.7,0.2,1.1c0,0.4-0.1,0.8-0.2,1.2c-0.1,0.3-0.3,0.6-0.5,0.9c-0.2,0.2-0.5,0.4-0.8,0.6
			s-0.7,0.2-1.1,0.2c-0.5,0-0.9,0-1.2-0.1c-0.3-0.1-0.6-0.1-0.8-0.2v-7.7l0.7-0.1V13.2z M160,17.6c0.1,0,0.3,0.1,0.5,0.1
			c0.2,0,0.5,0,0.8,0c0.6,0,1-0.2,1.4-0.6c0.4-0.4,0.5-0.9,0.5-1.6c0-0.3,0-0.6-0.1-0.8s-0.2-0.5-0.3-0.7c-0.1-0.2-0.3-0.4-0.5-0.5
			c-0.2-0.1-0.5-0.2-0.8-0.2c-0.2,0-0.3,0-0.5,0c-0.1,0-0.3,0.1-0.4,0.1c-0.1,0-0.2,0.1-0.3,0.2c-0.1,0.1-0.2,0.1-0.2,0.2V17.6z"/>
		<path d="M167.6,12.8c0.4,0,0.7,0,0.9,0.2c0.2,0.1,0.4,0.2,0.6,0.4c0.2,0.2,0.3,0.4,0.3,0.6c0.1,0.2,0.1,0.5,0.1,0.8v3.4
			c-0.1,0-0.2,0-0.3,0.1c-0.1,0-0.3,0.1-0.5,0.1c-0.2,0-0.4,0-0.6,0.1c-0.2,0-0.4,0-0.6,0c-0.3,0-0.5,0-0.8-0.1s-0.4-0.2-0.6-0.3
			c-0.2-0.1-0.3-0.3-0.4-0.5c-0.1-0.2-0.2-0.5-0.2-0.8c0-0.3,0.1-0.5,0.2-0.7s0.3-0.4,0.5-0.5s0.4-0.2,0.7-0.3
			c0.3-0.1,0.6-0.1,0.9-0.1c0.1,0,0.2,0,0.3,0c0.1,0,0.2,0,0.3,0c0.1,0,0.2,0,0.3,0.1c0.1,0,0.1,0,0.2,0v-0.3c0-0.2,0-0.4,0-0.5
			c0-0.2-0.1-0.3-0.2-0.5c-0.1-0.1-0.2-0.3-0.4-0.3c-0.2-0.1-0.4-0.1-0.7-0.1c-0.4,0-0.7,0-0.9,0.1s-0.3,0.1-0.4,0.1l-0.1-0.6
			c0.1-0.1,0.3-0.1,0.5-0.2C167,12.8,167.3,12.8,167.6,12.8z M167.7,17.8c0.3,0,0.5,0,0.7,0c0.2,0,0.4,0,0.5-0.1v-1.9
			c-0.1,0-0.2-0.1-0.4-0.1c-0.2,0-0.4-0.1-0.7-0.1c-0.2,0-0.3,0-0.5,0c-0.2,0-0.3,0.1-0.5,0.2c-0.2,0.1-0.3,0.2-0.4,0.3
			c-0.1,0.1-0.1,0.3-0.1,0.5c0,0.2,0,0.4,0.1,0.5c0.1,0.1,0.2,0.2,0.3,0.3s0.3,0.1,0.4,0.2C167.3,17.8,167.5,17.8,167.7,17.8z"/>
		<path d="M170.9,20.2c-0.1,0-0.2,0-0.3,0c-0.1,0-0.2,0-0.3-0.1l0.1-0.5c0,0,0.1,0,0.2,0c0.1,0,0.2,0,0.2,0c0.4,0,0.7-0.1,0.8-0.3
			c0.1-0.2,0.2-0.6,0.2-1v-5.3h0.7v5.3c0,0.7-0.1,1.2-0.4,1.5C171.9,20,171.5,20.2,170.9,20.2z M172.7,11.3c0,0.2,0,0.3-0.1,0.4
			c-0.1,0.1-0.2,0.1-0.4,0.1c-0.1,0-0.3,0-0.4-0.1c-0.1-0.1-0.1-0.2-0.1-0.4s0-0.3,0.1-0.4c0.1-0.1,0.2-0.1,0.4-0.1
			c0.1,0,0.3,0,0.4,0.1C172.7,11,172.7,11.1,172.7,11.3z"/>
		<path d="M179.5,15.6c0,0.4-0.1,0.8-0.2,1.1c-0.1,0.3-0.3,0.6-0.5,0.9c-0.2,0.2-0.5,0.4-0.8,0.6s-0.6,0.2-1,0.2s-0.7-0.1-1-0.2
			s-0.6-0.3-0.8-0.6c-0.2-0.2-0.4-0.5-0.5-0.9c-0.1-0.3-0.2-0.7-0.2-1.1c0-0.4,0.1-0.8,0.2-1.2c0.1-0.3,0.3-0.6,0.5-0.9
			s0.5-0.4,0.8-0.6s0.6-0.2,1-0.2s0.7,0.1,1,0.2s0.6,0.3,0.8,0.6c0.2,0.2,0.4,0.5,0.5,0.9C179.5,14.8,179.5,15.2,179.5,15.6z
			 M178.8,15.6c0-0.7-0.2-1.2-0.5-1.6c-0.3-0.4-0.7-0.6-1.3-0.6s-1,0.2-1.3,0.6c-0.3,0.4-0.5,0.9-0.5,1.6s0.2,1.2,0.5,1.6
			c0.3,0.4,0.7,0.6,1.3,0.6s1-0.2,1.3-0.6C178.6,16.8,178.8,16.3,178.8,15.6z"/>
		<path d="M185.9,18.4c-0.2,0-0.4,0-0.6-0.1s-0.3-0.1-0.4-0.2s-0.2-0.2-0.3-0.4c-0.1-0.2-0.1-0.4-0.1-0.6v-6.6l0.7-0.1V17
			c0,0.2,0,0.3,0,0.4c0,0.1,0.1,0.2,0.1,0.2c0.1,0.1,0.1,0.1,0.2,0.1c0.1,0,0.2,0.1,0.4,0.1L185.9,18.4z"/>
		<path d="M189.5,12.8c0.4,0,0.7,0,0.9,0.2c0.2,0.1,0.4,0.2,0.6,0.4c0.2,0.2,0.3,0.4,0.3,0.6c0.1,0.2,0.1,0.5,0.1,0.8v3.4
			c-0.1,0-0.2,0-0.3,0.1c-0.1,0-0.3,0.1-0.5,0.1c-0.2,0-0.4,0-0.6,0.1c-0.2,0-0.4,0-0.6,0c-0.3,0-0.5,0-0.8-0.1s-0.4-0.2-0.6-0.3
			c-0.2-0.1-0.3-0.3-0.4-0.5c-0.1-0.2-0.2-0.5-0.2-0.8c0-0.3,0.1-0.5,0.2-0.7s0.3-0.4,0.5-0.5s0.4-0.2,0.7-0.3
			c0.3-0.1,0.6-0.1,0.9-0.1c0.1,0,0.2,0,0.3,0c0.1,0,0.2,0,0.3,0c0.1,0,0.2,0,0.3,0.1c0.1,0,0.1,0,0.2,0v-0.3c0-0.2,0-0.4,0-0.5
			c0-0.2-0.1-0.3-0.2-0.5c-0.1-0.1-0.2-0.3-0.4-0.3c-0.2-0.1-0.4-0.1-0.7-0.1c-0.4,0-0.7,0-0.9,0.1s-0.3,0.1-0.4,0.1L188,13
			c0.1-0.1,0.3-0.1,0.5-0.2C188.8,12.8,189.1,12.8,189.5,12.8z M189.5,17.8c0.3,0,0.5,0,0.7,0c0.2,0,0.4,0,0.5-0.1v-1.9
			c-0.1,0-0.2-0.1-0.4-0.1c-0.2,0-0.4-0.1-0.7-0.1c-0.2,0-0.3,0-0.5,0c-0.2,0-0.3,0.1-0.5,0.2c-0.2,0.1-0.3,0.2-0.4,0.3
			c-0.1,0.1-0.1,0.3-0.1,0.5c0,0.2,0,0.4,0.1,0.5c0.1,0.1,0.2,0.2,0.3,0.3s0.3,0.1,0.4,0.2C189.1,17.8,189.3,17.8,189.5,17.8z"/>
		<path d="M198.9,18.4c-0.4,0-0.8-0.1-1.1-0.2s-0.6-0.3-0.8-0.6c-0.2-0.2-0.4-0.5-0.5-0.9s-0.2-0.7-0.2-1.1c0-0.4,0.1-0.8,0.2-1.1
			c0.1-0.3,0.3-0.6,0.5-0.9c0.2-0.2,0.5-0.4,0.8-0.6s0.6-0.2,1-0.2c0.3,0,0.6,0,0.8,0.1c0.3,0,0.4,0.1,0.6,0.2l-0.2,0.6
			c-0.1-0.1-0.3-0.1-0.5-0.2c-0.2,0-0.4-0.1-0.7-0.1c-0.6,0-1,0.2-1.4,0.6c-0.3,0.4-0.5,0.9-0.5,1.6c0,0.3,0,0.6,0.1,0.9
			c0.1,0.3,0.2,0.5,0.3,0.7s0.4,0.3,0.6,0.4c0.2,0.1,0.5,0.2,0.9,0.2c0.3,0,0.5,0,0.7-0.1c0.2-0.1,0.3-0.1,0.4-0.2l0.1,0.6
			c-0.1,0.1-0.3,0.1-0.6,0.2C199.5,18.4,199.2,18.4,198.9,18.4z"/>
		<path d="M206.7,15.6c0,0.4-0.1,0.8-0.2,1.1c-0.1,0.3-0.3,0.6-0.5,0.9c-0.2,0.2-0.5,0.4-0.8,0.6s-0.6,0.2-1,0.2s-0.7-0.1-1-0.2
			s-0.6-0.3-0.8-0.6c-0.2-0.2-0.4-0.5-0.5-0.9c-0.1-0.3-0.2-0.7-0.2-1.1c0-0.4,0.1-0.8,0.2-1.2c0.1-0.3,0.3-0.6,0.5-0.9
			s0.5-0.4,0.8-0.6s0.6-0.2,1-0.2s0.7,0.1,1,0.2s0.6,0.3,0.8,0.6c0.2,0.2,0.4,0.5,0.5,0.9C206.6,14.8,206.7,15.2,206.7,15.6z
			 M206,15.6c0-0.7-0.2-1.2-0.5-1.6c-0.3-0.4-0.7-0.6-1.3-0.6s-1,0.2-1.3,0.6c-0.3,0.4-0.5,0.9-0.5,1.6s0.2,1.2,0.5,1.6
			c0.3,0.4,0.7,0.6,1.3,0.6s1-0.2,1.3-0.6C205.8,16.8,206,16.3,206,15.6z"/>
		<path d="M213.3,15.6c0,0.4-0.1,0.8-0.2,1.1c-0.1,0.3-0.3,0.6-0.5,0.9c-0.2,0.2-0.5,0.4-0.8,0.6s-0.6,0.2-1,0.2s-0.7-0.1-1-0.2
			s-0.6-0.3-0.8-0.6c-0.2-0.2-0.4-0.5-0.5-0.9c-0.1-0.3-0.2-0.7-0.2-1.1c0-0.4,0.1-0.8,0.2-1.2c0.1-0.3,0.3-0.6,0.5-0.9
			s0.5-0.4,0.8-0.6s0.6-0.2,1-0.2s0.7,0.1,1,0.2s0.6,0.3,0.8,0.6c0.2,0.2,0.4,0.5,0.5,0.9C213.3,14.8,213.3,15.2,213.3,15.6z
			 M212.6,15.6c0-0.7-0.2-1.2-0.5-1.6c-0.3-0.4-0.7-0.6-1.3-0.6s-1,0.2-1.3,0.6c-0.3,0.4-0.5,0.9-0.5,1.6s0.2,1.2,0.5,1.6
			c0.3,0.4,0.7,0.6,1.3,0.6s1-0.2,1.3-0.6C212.5,16.8,212.6,16.3,212.6,15.6z"/>
		<path d="M217.2,12.8c0.2,0,0.4,0,0.6,0.1c0.2,0,0.3,0.1,0.4,0.1l-0.1,0.6c-0.1,0-0.2-0.1-0.3-0.1c-0.2,0-0.4,0-0.7,0
			c-0.3,0-0.5,0-0.7,0.1c-0.2,0-0.3,0.1-0.3,0.1v4.7h-0.7v-5.1c0.2-0.1,0.4-0.2,0.7-0.2S216.8,12.8,217.2,12.8z"/>
		<path d="M224.2,18.1c-0.2,0.1-0.5,0.1-0.8,0.2c-0.3,0.1-0.7,0.1-1.2,0.1c-0.4,0-0.8-0.1-1.1-0.2s-0.6-0.3-0.8-0.6
			c-0.2-0.2-0.4-0.5-0.5-0.9c-0.1-0.3-0.2-0.7-0.2-1.2c0-0.4,0.1-0.8,0.2-1.1c0.1-0.3,0.3-0.6,0.5-0.9c0.2-0.2,0.5-0.4,0.8-0.6
			c0.3-0.1,0.6-0.2,1-0.2c0.4,0,0.7,0.1,0.9,0.2c0.3,0.1,0.4,0.2,0.6,0.3v-2.9l0.7-0.1V18.1z M223.5,13.9c-0.1,0-0.1-0.1-0.2-0.2
			c-0.1-0.1-0.2-0.1-0.3-0.2c-0.1,0-0.3-0.1-0.4-0.1c-0.1,0-0.3,0-0.5,0c-0.3,0-0.6,0.1-0.8,0.2c-0.2,0.1-0.4,0.3-0.5,0.5
			c-0.1,0.2-0.2,0.4-0.3,0.7s-0.1,0.5-0.1,0.8c0,0.7,0.2,1.2,0.5,1.6c0.4,0.4,0.8,0.6,1.4,0.6c0.3,0,0.6,0,0.8,0
			c0.2,0,0.4-0.1,0.5-0.1V13.9z"/>
		<path d="M227.4,11.3c0,0.2,0,0.3-0.1,0.4c-0.1,0.1-0.2,0.1-0.4,0.1c-0.1,0-0.3,0-0.4-0.1c-0.1-0.1-0.1-0.2-0.1-0.4s0-0.3,0.1-0.4
			c0.1-0.1,0.2-0.1,0.4-0.1c0.1,0,0.3,0,0.4,0.1C227.4,11,227.4,11.1,227.4,11.3z M227.2,18.3h-0.7v-5.4h0.7V18.3z"/>
		<path d="M229.6,13.1c0.2-0.1,0.5-0.1,0.8-0.2c0.3-0.1,0.8-0.1,1.2-0.1c0.4,0,0.7,0.1,1,0.2c0.3,0.1,0.5,0.3,0.7,0.5
			s0.3,0.5,0.3,0.8c0.1,0.3,0.1,0.6,0.1,1v3h-0.7v-2.8c0-0.4,0-0.7-0.1-1c-0.1-0.3-0.1-0.5-0.3-0.6c-0.1-0.2-0.3-0.3-0.5-0.4
			c-0.2-0.1-0.4-0.1-0.7-0.1c-0.3,0-0.6,0-0.8,0.1s-0.4,0.1-0.5,0.1v4.7h-0.7V13.1z"/>
		<path d="M237.8,12.8c0.4,0,0.7,0,0.9,0.2c0.2,0.1,0.4,0.2,0.6,0.4c0.2,0.2,0.3,0.4,0.3,0.6c0.1,0.2,0.1,0.5,0.1,0.8v3.4
			c-0.1,0-0.2,0-0.3,0.1c-0.1,0-0.3,0.1-0.5,0.1c-0.2,0-0.4,0-0.6,0.1c-0.2,0-0.4,0-0.6,0c-0.3,0-0.5,0-0.8-0.1s-0.4-0.2-0.6-0.3
			c-0.2-0.1-0.3-0.3-0.4-0.5c-0.1-0.2-0.2-0.5-0.2-0.8c0-0.3,0.1-0.5,0.2-0.7s0.3-0.4,0.5-0.5s0.4-0.2,0.7-0.3
			c0.3-0.1,0.6-0.1,0.9-0.1c0.1,0,0.2,0,0.3,0c0.1,0,0.2,0,0.3,0c0.1,0,0.2,0,0.3,0.1c0.1,0,0.1,0,0.2,0v-0.3c0-0.2,0-0.4,0-0.5
			c0-0.2-0.1-0.3-0.2-0.5c-0.1-0.1-0.2-0.3-0.4-0.3c-0.2-0.1-0.4-0.1-0.7-0.1c-0.4,0-0.7,0-0.9,0.1s-0.3,0.1-0.4,0.1l-0.1-0.6
			c0.1-0.1,0.3-0.1,0.5-0.2C237.2,12.8,237.4,12.8,237.8,12.8z M237.9,17.8c0.3,0,0.5,0,0.7,0c0.2,0,0.4,0,0.5-0.1v-1.9
			c-0.1,0-0.2-0.1-0.4-0.1c-0.2,0-0.4-0.1-0.7-0.1c-0.2,0-0.3,0-0.5,0c-0.2,0-0.3,0.1-0.5,0.2c-0.2,0.1-0.3,0.2-0.4,0.3
			c-0.1,0.1-0.1,0.3-0.1,0.5c0,0.2,0,0.4,0.1,0.5c0.1,0.1,0.2,0.2,0.3,0.3s0.3,0.1,0.4,0.2C237.4,17.8,237.6,17.8,237.9,17.8z"/>
		<path d="M244.3,18.4c-0.4,0-0.8-0.1-1.1-0.2s-0.6-0.3-0.8-0.6c-0.2-0.2-0.4-0.5-0.5-0.9s-0.2-0.7-0.2-1.1c0-0.4,0.1-0.8,0.2-1.1
			c0.1-0.3,0.3-0.6,0.5-0.9c0.2-0.2,0.5-0.4,0.8-0.6s0.6-0.2,1-0.2c0.3,0,0.6,0,0.8,0.1c0.3,0,0.4,0.1,0.6,0.2l-0.2,0.6
			c-0.1-0.1-0.3-0.1-0.5-0.2c-0.2,0-0.4-0.1-0.7-0.1c-0.6,0-1,0.2-1.4,0.6c-0.3,0.4-0.5,0.9-0.5,1.6c0,0.3,0,0.6,0.1,0.9
			c0.1,0.3,0.2,0.5,0.3,0.7s0.4,0.3,0.6,0.4c0.2,0.1,0.5,0.2,0.9,0.2c0.3,0,0.5,0,0.7-0.1c0.2-0.1,0.3-0.1,0.4-0.2l0.1,0.6
			c-0.1,0.1-0.3,0.1-0.6,0.2C244.8,18.4,244.6,18.4,244.3,18.4z"/>
		<path d="M248.3,11.3c0,0.2,0,0.3-0.1,0.4c-0.1,0.1-0.2,0.1-0.4,0.1c-0.1,0-0.3,0-0.4-0.1c-0.1-0.1-0.1-0.2-0.1-0.4s0-0.3,0.1-0.4
			c0.1-0.1,0.2-0.1,0.4-0.1c0.1,0,0.3,0,0.4,0.1C248.2,11,248.3,11.1,248.3,11.3z M248.1,18.3h-0.7v-5.4h0.7V18.3z"/>
		<path d="M255.1,15.6c0,0.4-0.1,0.8-0.2,1.1c-0.1,0.3-0.3,0.6-0.5,0.9c-0.2,0.2-0.5,0.4-0.8,0.6s-0.6,0.2-1,0.2s-0.7-0.1-1-0.2
			s-0.6-0.3-0.8-0.6c-0.2-0.2-0.4-0.5-0.5-0.9c-0.1-0.3-0.2-0.7-0.2-1.1c0-0.4,0.1-0.8,0.2-1.2c0.1-0.3,0.3-0.6,0.5-0.9
			s0.5-0.4,0.8-0.6s0.6-0.2,1-0.2s0.7,0.1,1,0.2s0.6,0.3,0.8,0.6c0.2,0.2,0.4,0.5,0.5,0.9C255,14.8,255.1,15.2,255.1,15.6z
			 M254.4,15.6c0-0.7-0.2-1.2-0.5-1.6c-0.3-0.4-0.7-0.6-1.3-0.6s-1,0.2-1.3,0.6c-0.3,0.4-0.5,0.9-0.5,1.6s0.2,1.2,0.5,1.6
			c0.3,0.4,0.7,0.6,1.3,0.6s1-0.2,1.3-0.6C254.2,16.8,254.4,16.3,254.4,15.6z M254.1,10.8l-1.8,1.4l-0.3-0.4l1.6-1.6L254.1,10.8z"/>
		<path d="M257.2,13.1c0.2-0.1,0.5-0.1,0.8-0.2c0.3-0.1,0.8-0.1,1.2-0.1c0.4,0,0.7,0.1,1,0.2c0.3,0.1,0.5,0.3,0.7,0.5
			s0.3,0.5,0.3,0.8c0.1,0.3,0.1,0.6,0.1,1v3h-0.7v-2.8c0-0.4,0-0.7-0.1-1c-0.1-0.3-0.1-0.5-0.3-0.6c-0.1-0.2-0.3-0.3-0.5-0.4
			c-0.2-0.1-0.4-0.1-0.7-0.1c-0.3,0-0.6,0-0.8,0.1s-0.4,0.1-0.5,0.1v4.7h-0.7V13.1z"/>
		<path d="M268.3,12.8c0.4,0,0.7,0,0.9,0.2c0.2,0.1,0.4,0.2,0.6,0.4c0.2,0.2,0.3,0.4,0.3,0.6c0.1,0.2,0.1,0.5,0.1,0.8v3.4
			c-0.1,0-0.2,0-0.3,0.1c-0.1,0-0.3,0.1-0.5,0.1c-0.2,0-0.4,0-0.6,0.1c-0.2,0-0.4,0-0.6,0c-0.3,0-0.5,0-0.8-0.1s-0.4-0.2-0.6-0.3
			c-0.2-0.1-0.3-0.3-0.4-0.5c-0.1-0.2-0.2-0.5-0.2-0.8c0-0.3,0.1-0.5,0.2-0.7s0.3-0.4,0.5-0.5s0.4-0.2,0.7-0.3
			c0.3-0.1,0.6-0.1,0.9-0.1c0.1,0,0.2,0,0.3,0c0.1,0,0.2,0,0.3,0c0.1,0,0.2,0,0.3,0.1c0.1,0,0.1,0,0.2,0v-0.3c0-0.2,0-0.4,0-0.5
			c0-0.2-0.1-0.3-0.2-0.5c-0.1-0.1-0.2-0.3-0.4-0.3c-0.2-0.1-0.4-0.1-0.7-0.1c-0.4,0-0.7,0-0.9,0.1s-0.3,0.1-0.4,0.1l-0.1-0.6
			c0.1-0.1,0.3-0.1,0.5-0.2C267.7,12.8,268,12.8,268.3,12.8z M268.4,17.8c0.3,0,0.5,0,0.7,0c0.2,0,0.4,0,0.5-0.1v-1.9
			c-0.1,0-0.2-0.1-0.4-0.1c-0.2,0-0.4-0.1-0.7-0.1c-0.2,0-0.3,0-0.5,0c-0.2,0-0.3,0.1-0.5,0.2c-0.2,0.1-0.3,0.2-0.4,0.3
			c-0.1,0.1-0.1,0.3-0.1,0.5c0,0.2,0,0.4,0.1,0.5c0.1,0.1,0.2,0.2,0.3,0.3s0.3,0.1,0.4,0.2C268,17.8,268.1,17.8,268.4,17.8z"/>
		<path d="M274.8,18.4c-0.4,0-0.8-0.1-1.1-0.2s-0.6-0.3-0.8-0.6c-0.2-0.2-0.4-0.5-0.5-0.9s-0.2-0.7-0.2-1.1c0-0.4,0.1-0.8,0.2-1.1
			c0.1-0.3,0.3-0.6,0.5-0.9c0.2-0.2,0.5-0.4,0.8-0.6s0.6-0.2,1-0.2c0.3,0,0.6,0,0.8,0.1c0.3,0,0.4,0.1,0.6,0.2l-0.2,0.6
			c-0.1-0.1-0.3-0.1-0.5-0.2c-0.2,0-0.4-0.1-0.7-0.1c-0.6,0-1,0.2-1.4,0.6c-0.3,0.4-0.5,0.9-0.5,1.6c0,0.3,0,0.6,0.1,0.9
			c0.1,0.3,0.2,0.5,0.3,0.7s0.4,0.3,0.6,0.4c0.2,0.1,0.5,0.2,0.9,0.2c0.3,0,0.5,0,0.7-0.1c0.2-0.1,0.3-0.1,0.4-0.2l0.1,0.6
			c-0.1,0.1-0.3,0.1-0.6,0.2C275.4,18.4,275.1,18.4,274.8,18.4z"/>
		<path d="M279.6,12.8c0.4,0,0.7,0,0.9,0.2c0.2,0.1,0.4,0.2,0.6,0.4c0.2,0.2,0.3,0.4,0.3,0.6c0.1,0.2,0.1,0.5,0.1,0.8v3.4
			c-0.1,0-0.2,0-0.3,0.1c-0.1,0-0.3,0.1-0.5,0.1c-0.2,0-0.4,0-0.6,0.1c-0.2,0-0.4,0-0.6,0c-0.3,0-0.5,0-0.8-0.1s-0.4-0.2-0.6-0.3
			c-0.2-0.1-0.3-0.3-0.4-0.5c-0.1-0.2-0.2-0.5-0.2-0.8c0-0.3,0.1-0.5,0.2-0.7s0.3-0.4,0.5-0.5s0.4-0.2,0.7-0.3
			c0.3-0.1,0.6-0.1,0.9-0.1c0.1,0,0.2,0,0.3,0c0.1,0,0.2,0,0.3,0c0.1,0,0.2,0,0.3,0.1c0.1,0,0.1,0,0.2,0v-0.3c0-0.2,0-0.4,0-0.5
			c0-0.2-0.1-0.3-0.2-0.5c-0.1-0.1-0.2-0.3-0.4-0.3c-0.2-0.1-0.4-0.1-0.7-0.1c-0.4,0-0.7,0-0.9,0.1s-0.3,0.1-0.4,0.1l-0.1-0.6
			c0.1-0.1,0.3-0.1,0.5-0.2C278.9,12.8,279.2,12.8,279.6,12.8z M279.6,17.8c0.3,0,0.5,0,0.7,0c0.2,0,0.4,0,0.5-0.1v-1.9
			c-0.1,0-0.2-0.1-0.4-0.1c-0.2,0-0.4-0.1-0.7-0.1c-0.2,0-0.3,0-0.5,0c-0.2,0-0.3,0.1-0.5,0.2c-0.2,0.1-0.3,0.2-0.4,0.3
			c-0.1,0.1-0.1,0.3-0.1,0.5c0,0.2,0,0.4,0.1,0.5c0.1,0.1,0.2,0.2,0.3,0.3s0.3,0.1,0.4,0.2C279.2,17.8,279.4,17.8,279.6,17.8z"/>
		<path d="M288.1,18.1c-0.2,0.1-0.5,0.1-0.8,0.2c-0.3,0.1-0.7,0.1-1.2,0.1c-0.4,0-0.8-0.1-1.1-0.2s-0.6-0.3-0.8-0.6
			c-0.2-0.2-0.4-0.5-0.5-0.9c-0.1-0.3-0.2-0.7-0.2-1.2c0-0.4,0.1-0.8,0.2-1.1c0.1-0.3,0.3-0.6,0.5-0.9c0.2-0.2,0.5-0.4,0.8-0.6
			c0.3-0.1,0.6-0.2,1-0.2c0.4,0,0.7,0.1,0.9,0.2c0.3,0.1,0.4,0.2,0.6,0.3v-2.9l0.7-0.1V18.1z M287.4,13.9c-0.1,0-0.1-0.1-0.2-0.2
			c-0.1-0.1-0.2-0.1-0.3-0.2c-0.1,0-0.3-0.1-0.4-0.1c-0.1,0-0.3,0-0.5,0c-0.3,0-0.6,0.1-0.8,0.2c-0.2,0.1-0.4,0.3-0.5,0.5
			c-0.1,0.2-0.2,0.4-0.3,0.7s-0.1,0.5-0.1,0.8c0,0.7,0.2,1.2,0.5,1.6c0.4,0.4,0.8,0.6,1.4,0.6c0.3,0,0.6,0,0.8,0
			c0.2,0,0.4-0.1,0.5-0.1V13.9z"/>
		<path d="M290.2,15.6c0-0.5,0.1-0.9,0.2-1.2s0.3-0.6,0.5-0.9c0.2-0.2,0.5-0.4,0.7-0.5c0.3-0.1,0.6-0.2,0.9-0.2
			c0.7,0,1.2,0.2,1.6,0.6c0.4,0.4,0.6,1.1,0.6,2c0,0.1,0,0.1,0,0.2c0,0.1,0,0.1,0,0.2h-3.8c0,0.7,0.2,1.2,0.5,1.5
			c0.3,0.4,0.8,0.5,1.5,0.5c0.4,0,0.7,0,0.9-0.1c0.2-0.1,0.4-0.1,0.5-0.2l0.1,0.6c-0.1,0.1-0.3,0.1-0.5,0.2
			c-0.3,0.1-0.6,0.1-0.9,0.1c-0.5,0-0.9-0.1-1.2-0.2c-0.3-0.1-0.6-0.3-0.8-0.6c-0.2-0.2-0.4-0.5-0.5-0.9S290.2,16,290.2,15.6z
			 M294,15.2c0-0.6-0.1-1-0.4-1.3c-0.2-0.3-0.6-0.5-1.1-0.5c-0.2,0-0.5,0-0.6,0.1c-0.2,0.1-0.4,0.2-0.5,0.4
			c-0.1,0.2-0.3,0.4-0.3,0.6c-0.1,0.2-0.1,0.4-0.1,0.7H294z M294,10.8l-1.8,1.4l-0.3-0.4l1.6-1.6L294,10.8z"/>
		<path d="M296.8,13.1c0.2-0.1,0.5-0.1,0.8-0.2s0.7-0.1,1.2-0.1c0.7,0,1.2,0.2,1.5,0.6c0,0,0.1-0.1,0.2-0.1c0.1-0.1,0.2-0.1,0.4-0.2
			c0.2-0.1,0.3-0.1,0.5-0.2c0.2,0,0.4-0.1,0.7-0.1c0.4,0,0.7,0.1,1,0.2c0.3,0.1,0.4,0.3,0.6,0.5c0.1,0.2,0.2,0.5,0.3,0.8
			c0,0.3,0.1,0.6,0.1,1v3h-0.7v-2.8c0-0.4,0-0.7,0-0.9s-0.1-0.5-0.2-0.6c-0.1-0.2-0.2-0.3-0.4-0.4c-0.2-0.1-0.4-0.1-0.7-0.1
			c-0.2,0-0.4,0-0.6,0.1s-0.3,0.1-0.4,0.1c-0.1,0.1-0.2,0.1-0.3,0.2c-0.1,0.1-0.1,0.1-0.2,0.1c0.1,0.2,0.1,0.4,0.1,0.6
			c0,0.2,0,0.5,0,0.7v3h-0.7v-2.8c0-0.4,0-0.7,0-0.9s-0.1-0.5-0.2-0.6s-0.2-0.3-0.4-0.4c-0.2-0.1-0.4-0.1-0.7-0.1
			c-0.3,0-0.6,0-0.8,0.1s-0.4,0.1-0.4,0.1v4.7h-0.7V13.1z"/>
		<path d="M307.2,11.3c0,0.2,0,0.3-0.1,0.4c-0.1,0.1-0.2,0.1-0.4,0.1c-0.1,0-0.3,0-0.4-0.1c-0.1-0.1-0.1-0.2-0.1-0.4s0-0.3,0.1-0.4
			c0.1-0.1,0.2-0.1,0.4-0.1c0.1,0,0.3,0,0.4,0.1C307.2,11,307.2,11.1,307.2,11.3z M307,18.3h-0.7v-5.4h0.7V18.3z"/>
		<path d="M311.7,18.4c-0.4,0-0.8-0.1-1.1-0.2s-0.6-0.3-0.8-0.6c-0.2-0.2-0.4-0.5-0.5-0.9s-0.2-0.7-0.2-1.1c0-0.4,0.1-0.8,0.2-1.1
			c0.1-0.3,0.3-0.6,0.5-0.9c0.2-0.2,0.5-0.4,0.8-0.6s0.6-0.2,1-0.2c0.3,0,0.6,0,0.8,0.1c0.3,0,0.4,0.1,0.6,0.2l-0.2,0.6
			c-0.1-0.1-0.3-0.1-0.5-0.2c-0.2,0-0.4-0.1-0.7-0.1c-0.6,0-1,0.2-1.4,0.6c-0.3,0.4-0.5,0.9-0.5,1.6c0,0.3,0,0.6,0.1,0.9
			c0.1,0.3,0.2,0.5,0.3,0.7s0.4,0.3,0.6,0.4c0.2,0.1,0.5,0.2,0.9,0.2c0.3,0,0.5,0,0.7-0.1c0.2-0.1,0.3-0.1,0.4-0.2l0.1,0.6
			c-0.1,0.1-0.3,0.1-0.6,0.2C312.2,18.4,312,18.4,311.7,18.4z"/>
		<path d="M316.5,12.8c0.4,0,0.7,0,0.9,0.2c0.2,0.1,0.4,0.2,0.6,0.4c0.2,0.2,0.3,0.4,0.3,0.6c0.1,0.2,0.1,0.5,0.1,0.8v3.4
			c-0.1,0-0.2,0-0.3,0.1c-0.1,0-0.3,0.1-0.5,0.1c-0.2,0-0.4,0-0.6,0.1c-0.2,0-0.4,0-0.6,0c-0.3,0-0.5,0-0.8-0.1s-0.4-0.2-0.6-0.3
			c-0.2-0.1-0.3-0.3-0.4-0.5c-0.1-0.2-0.2-0.5-0.2-0.8c0-0.3,0.1-0.5,0.2-0.7s0.3-0.4,0.5-0.5s0.4-0.2,0.7-0.3
			c0.3-0.1,0.6-0.1,0.9-0.1c0.1,0,0.2,0,0.3,0c0.1,0,0.2,0,0.3,0c0.1,0,0.2,0,0.3,0.1c0.1,0,0.1,0,0.2,0v-0.3c0-0.2,0-0.4,0-0.5
			c0-0.2-0.1-0.3-0.2-0.5c-0.1-0.1-0.2-0.3-0.4-0.3c-0.2-0.1-0.4-0.1-0.7-0.1c-0.4,0-0.7,0-0.9,0.1s-0.3,0.1-0.4,0.1L315,13
			c0.1-0.1,0.3-0.1,0.5-0.2C315.8,12.8,316.1,12.8,316.5,12.8z M316.5,17.8c0.3,0,0.5,0,0.7,0c0.2,0,0.4,0,0.5-0.1v-1.9
			c-0.1,0-0.2-0.1-0.4-0.1c-0.2,0-0.4-0.1-0.7-0.1c-0.2,0-0.3,0-0.5,0c-0.2,0-0.3,0.1-0.5,0.2c-0.2,0.1-0.3,0.2-0.4,0.3
			c-0.1,0.1-0.1,0.3-0.1,0.5c0,0.2,0,0.4,0.1,0.5c0.1,0.1,0.2,0.2,0.3,0.3s0.3,0.1,0.4,0.2C316.1,17.8,316.3,17.8,316.5,17.8z"/>
		<path d="M328,18.1c-0.2,0.1-0.5,0.1-0.8,0.2c-0.3,0.1-0.7,0.1-1.2,0.1c-0.4,0-0.8-0.1-1.1-0.2s-0.6-0.3-0.8-0.6
			c-0.2-0.2-0.4-0.5-0.5-0.9c-0.1-0.3-0.2-0.7-0.2-1.2c0-0.4,0.1-0.8,0.2-1.1c0.1-0.3,0.3-0.6,0.5-0.9c0.2-0.2,0.5-0.4,0.8-0.6
			c0.3-0.1,0.6-0.2,1-0.2c0.4,0,0.7,0.1,0.9,0.2c0.3,0.1,0.4,0.2,0.6,0.3v-2.9l0.7-0.1V18.1z M327.3,13.9c-0.1,0-0.1-0.1-0.2-0.2
			c-0.1-0.1-0.2-0.1-0.3-0.2c-0.1,0-0.3-0.1-0.4-0.1c-0.1,0-0.3,0-0.5,0c-0.3,0-0.6,0.1-0.8,0.2c-0.2,0.1-0.4,0.3-0.5,0.5
			c-0.1,0.2-0.2,0.4-0.3,0.7s-0.1,0.5-0.1,0.8c0,0.7,0.2,1.2,0.5,1.6c0.4,0.4,0.8,0.6,1.4,0.6c0.3,0,0.6,0,0.8,0
			c0.2,0,0.4-0.1,0.5-0.1V13.9z"/>
		<path d="M330.1,15.6c0-0.5,0.1-0.9,0.2-1.2s0.3-0.6,0.5-0.9c0.2-0.2,0.5-0.4,0.7-0.5c0.3-0.1,0.6-0.2,0.9-0.2
			c0.7,0,1.2,0.2,1.6,0.6c0.4,0.4,0.6,1.1,0.6,2c0,0.1,0,0.1,0,0.2c0,0.1,0,0.1,0,0.2h-3.8c0,0.7,0.2,1.2,0.5,1.5
			c0.3,0.4,0.8,0.5,1.5,0.5c0.4,0,0.7,0,0.9-0.1c0.2-0.1,0.4-0.1,0.5-0.2l0.1,0.6c-0.1,0.1-0.3,0.1-0.5,0.2
			c-0.3,0.1-0.6,0.1-0.9,0.1c-0.5,0-0.9-0.1-1.2-0.2c-0.3-0.1-0.6-0.3-0.8-0.6c-0.2-0.2-0.4-0.5-0.5-0.9S330.1,16,330.1,15.6z
			 M333.9,15.2c0-0.6-0.1-1-0.4-1.3c-0.2-0.3-0.6-0.5-1.1-0.5c-0.2,0-0.5,0-0.6,0.1c-0.2,0.1-0.4,0.2-0.5,0.4
			c-0.1,0.2-0.3,0.4-0.3,0.6c-0.1,0.2-0.1,0.4-0.1,0.7H333.9z"/>
		<path d="M341,18.4c-0.2,0-0.4,0-0.6-0.1s-0.3-0.1-0.4-0.2s-0.2-0.2-0.3-0.4c-0.1-0.2-0.1-0.4-0.1-0.6v-6.6l0.7-0.1V17
			c0,0.2,0,0.3,0,0.4c0,0.1,0.1,0.2,0.1,0.2c0.1,0.1,0.1,0.1,0.2,0.1c0.1,0,0.2,0.1,0.4,0.1L341,18.4z"/>
		<path d="M344.6,12.8c0.4,0,0.7,0,0.9,0.2c0.2,0.1,0.4,0.2,0.6,0.4c0.2,0.2,0.3,0.4,0.3,0.6c0.1,0.2,0.1,0.5,0.1,0.8v3.4
			c-0.1,0-0.2,0-0.3,0.1c-0.1,0-0.3,0.1-0.5,0.1c-0.2,0-0.4,0-0.6,0.1c-0.2,0-0.4,0-0.6,0c-0.3,0-0.5,0-0.8-0.1s-0.4-0.2-0.6-0.3
			c-0.2-0.1-0.3-0.3-0.4-0.5c-0.1-0.2-0.2-0.5-0.2-0.8c0-0.3,0.1-0.5,0.2-0.7s0.3-0.4,0.5-0.5s0.4-0.2,0.7-0.3
			c0.3-0.1,0.6-0.1,0.9-0.1c0.1,0,0.2,0,0.3,0c0.1,0,0.2,0,0.3,0c0.1,0,0.2,0,0.3,0.1c0.1,0,0.1,0,0.2,0v-0.3c0-0.2,0-0.4,0-0.5
			c0-0.2-0.1-0.3-0.2-0.5c-0.1-0.1-0.2-0.3-0.4-0.3c-0.2-0.1-0.4-0.1-0.7-0.1c-0.4,0-0.7,0-0.9,0.1s-0.3,0.1-0.4,0.1l-0.1-0.6
			c0.1-0.1,0.3-0.1,0.5-0.2C343.9,12.8,344.2,12.8,344.6,12.8z M344.6,17.8c0.3,0,0.5,0,0.7,0c0.2,0,0.4,0,0.5-0.1v-1.9
			c-0.1,0-0.2-0.1-0.4-0.1c-0.2,0-0.4-0.1-0.7-0.1c-0.2,0-0.3,0-0.5,0c-0.2,0-0.3,0.1-0.5,0.2c-0.2,0.1-0.3,0.2-0.4,0.3
			c-0.1,0.1-0.1,0.3-0.1,0.5c0,0.2,0,0.4,0.1,0.5c0.1,0.1,0.2,0.2,0.3,0.3s0.3,0.1,0.4,0.2C344.2,17.8,344.4,17.8,344.6,17.8z"/>
		<path d="M356.7,18.3c-0.1-0.4-0.3-0.7-0.4-1s-0.2-0.6-0.3-1h-3.5c-0.1,0.3-0.2,0.6-0.4,1c-0.1,0.3-0.2,0.7-0.4,1H351
			c0.3-0.7,0.5-1.4,0.8-2.1c0.2-0.6,0.5-1.3,0.7-1.8s0.5-1.1,0.7-1.7c0.2-0.5,0.5-1.1,0.7-1.6h0.6c0.3,0.5,0.5,1.1,0.7,1.6
			c0.2,0.5,0.5,1.1,0.7,1.7c0.2,0.6,0.5,1.2,0.7,1.8s0.5,1.3,0.8,2.1H356.7z M354.2,11.9c-0.3,0.6-0.5,1.2-0.8,1.8
			c-0.2,0.6-0.5,1.3-0.8,2h3.1c-0.3-0.7-0.5-1.4-0.8-2C354.7,13.1,354.5,12.5,354.2,11.9z"/>
		<path d="M360.3,17.8c0.4,0,0.7-0.1,1-0.2c0.3-0.1,0.4-0.3,0.4-0.6c0-0.1,0-0.3-0.1-0.4c0-0.1-0.1-0.2-0.2-0.3s-0.2-0.2-0.4-0.2
			c-0.2-0.1-0.4-0.2-0.6-0.3c-0.2-0.1-0.4-0.2-0.6-0.3c-0.2-0.1-0.3-0.2-0.5-0.3c-0.1-0.1-0.2-0.3-0.3-0.4c-0.1-0.2-0.1-0.4-0.1-0.6
			c0-0.4,0.2-0.8,0.5-1.1c0.3-0.3,0.8-0.4,1.4-0.4c0.4,0,0.7,0,0.9,0.1c0.2,0.1,0.4,0.1,0.5,0.2l-0.2,0.6c-0.1,0-0.2-0.1-0.4-0.2
			c-0.2-0.1-0.5-0.1-0.9-0.1c-0.2,0-0.3,0-0.4,0c-0.1,0-0.3,0.1-0.4,0.1c-0.1,0.1-0.2,0.1-0.2,0.2c-0.1,0.1-0.1,0.2-0.1,0.4
			c0,0.1,0,0.3,0.1,0.4c0.1,0.1,0.1,0.2,0.2,0.3c0.1,0.1,0.2,0.2,0.4,0.2s0.3,0.1,0.5,0.2c0.2,0.1,0.4,0.2,0.6,0.3
			c0.2,0.1,0.4,0.2,0.5,0.3c0.1,0.1,0.3,0.3,0.4,0.4c0.1,0.2,0.1,0.4,0.1,0.6c0,0.5-0.2,0.8-0.5,1.1c-0.4,0.2-0.9,0.4-1.5,0.4
			c-0.5,0-0.8,0-1.1-0.1c-0.2-0.1-0.4-0.1-0.5-0.2l0.2-0.6c0,0,0.1,0,0.1,0.1c0.1,0,0.2,0.1,0.3,0.1c0.1,0,0.3,0.1,0.4,0.1
			C359.9,17.8,360.1,17.8,360.3,17.8z"/>
		<path d="M368.8,15.6c0,0.4-0.1,0.8-0.2,1.1c-0.1,0.3-0.3,0.6-0.5,0.9c-0.2,0.2-0.5,0.4-0.8,0.6s-0.6,0.2-1,0.2s-0.7-0.1-1-0.2
			s-0.6-0.3-0.8-0.6c-0.2-0.2-0.4-0.5-0.5-0.9c-0.1-0.3-0.2-0.7-0.2-1.1c0-0.4,0.1-0.8,0.2-1.2c0.1-0.3,0.3-0.6,0.5-0.9
			s0.5-0.4,0.8-0.6s0.6-0.2,1-0.2s0.7,0.1,1,0.2s0.6,0.3,0.8,0.6c0.2,0.2,0.4,0.5,0.5,0.9C368.8,14.8,368.8,15.2,368.8,15.6z
			 M368.1,15.6c0-0.7-0.2-1.2-0.5-1.6c-0.3-0.4-0.7-0.6-1.3-0.6s-1,0.2-1.3,0.6c-0.3,0.4-0.5,0.9-0.5,1.6s0.2,1.2,0.5,1.6
			c0.3,0.4,0.7,0.6,1.3,0.6s1-0.2,1.3-0.6C368,16.8,368.1,16.3,368.1,15.6z"/>
		<path d="M373.1,18.4c-0.4,0-0.8-0.1-1.1-0.2s-0.6-0.3-0.8-0.6c-0.2-0.2-0.4-0.5-0.5-0.9s-0.2-0.7-0.2-1.1c0-0.4,0.1-0.8,0.2-1.1
			c0.1-0.3,0.3-0.6,0.5-0.9c0.2-0.2,0.5-0.4,0.8-0.6s0.6-0.2,1-0.2c0.3,0,0.6,0,0.8,0.1c0.3,0,0.4,0.1,0.6,0.2l-0.2,0.6
			c-0.1-0.1-0.3-0.1-0.5-0.2c-0.2,0-0.4-0.1-0.7-0.1c-0.6,0-1,0.2-1.4,0.6c-0.3,0.4-0.5,0.9-0.5,1.6c0,0.3,0,0.6,0.1,0.9
			c0.1,0.3,0.2,0.5,0.3,0.7s0.4,0.3,0.6,0.4c0.2,0.1,0.5,0.2,0.9,0.2c0.3,0,0.5,0,0.7-0.1c0.2-0.1,0.3-0.1,0.4-0.2l0.1,0.6
			c-0.1,0.1-0.3,0.1-0.6,0.2C373.7,18.4,373.4,18.4,373.1,18.4z"/>
		<path d="M377.1,11.3c0,0.2,0,0.3-0.1,0.4c-0.1,0.1-0.2,0.1-0.4,0.1c-0.1,0-0.3,0-0.4-0.1c-0.1-0.1-0.1-0.2-0.1-0.4s0-0.3,0.1-0.4
			c0.1-0.1,0.2-0.1,0.4-0.1c0.1,0,0.3,0,0.4,0.1C377.1,11,377.1,11.1,377.1,11.3z M377,18.3h-0.7v-5.4h0.7V18.3z"/>
		<path d="M381,12.8c0.4,0,0.7,0,0.9,0.2c0.2,0.1,0.4,0.2,0.6,0.4c0.2,0.2,0.3,0.4,0.3,0.6c0.1,0.2,0.1,0.5,0.1,0.8v3.4
			c-0.1,0-0.2,0-0.3,0.1c-0.1,0-0.3,0.1-0.5,0.1c-0.2,0-0.4,0-0.6,0.1c-0.2,0-0.4,0-0.6,0c-0.3,0-0.5,0-0.8-0.1s-0.4-0.2-0.6-0.3
			c-0.2-0.1-0.3-0.3-0.4-0.5c-0.1-0.2-0.2-0.5-0.2-0.8c0-0.3,0.1-0.5,0.2-0.7s0.3-0.4,0.5-0.5s0.4-0.2,0.7-0.3
			c0.3-0.1,0.6-0.1,0.9-0.1c0.1,0,0.2,0,0.3,0c0.1,0,0.2,0,0.3,0c0.1,0,0.2,0,0.3,0.1c0.1,0,0.1,0,0.2,0v-0.3c0-0.2,0-0.4,0-0.5
			c0-0.2-0.1-0.3-0.2-0.5c-0.1-0.1-0.2-0.3-0.4-0.3c-0.2-0.1-0.4-0.1-0.7-0.1c-0.4,0-0.7,0-0.9,0.1s-0.3,0.1-0.4,0.1l-0.1-0.6
			c0.1-0.1,0.3-0.1,0.5-0.2C380.4,12.8,380.7,12.8,381,12.8z M381.1,17.8c0.3,0,0.5,0,0.7,0c0.2,0,0.4,0,0.5-0.1v-1.9
			c-0.1,0-0.2-0.1-0.4-0.1c-0.2,0-0.4-0.1-0.7-0.1c-0.2,0-0.3,0-0.5,0c-0.2,0-0.3,0.1-0.5,0.2c-0.2,0.1-0.3,0.2-0.4,0.3
			c-0.1,0.1-0.1,0.3-0.1,0.5c0,0.2,0,0.4,0.1,0.5c0.1,0.1,0.2,0.2,0.3,0.3s0.3,0.1,0.4,0.2C380.7,17.8,380.8,17.8,381.1,17.8z"/>
		<path d="M387.5,18.4c-0.4,0-0.8-0.1-1.1-0.2s-0.6-0.3-0.8-0.6c-0.2-0.2-0.4-0.5-0.5-0.9s-0.2-0.7-0.2-1.1c0-0.4,0.1-0.8,0.2-1.1
			c0.1-0.3,0.3-0.6,0.5-0.9c0.2-0.2,0.5-0.4,0.8-0.6s0.6-0.2,1-0.2c0.3,0,0.6,0,0.8,0.1c0.3,0,0.4,0.1,0.6,0.2l-0.2,0.6
			c-0.1-0.1-0.3-0.1-0.5-0.2c-0.2,0-0.4-0.1-0.7-0.1c-0.6,0-1,0.2-1.4,0.6c-0.3,0.4-0.5,0.9-0.5,1.6c0,0.3,0,0.6,0.1,0.9
			c0.1,0.3,0.2,0.5,0.3,0.7s0.4,0.3,0.6,0.4c0.2,0.1,0.5,0.2,0.9,0.2c0.3,0,0.5,0,0.7-0.1c0.2-0.1,0.3-0.1,0.4-0.2l0.1,0.6
			c-0.1,0.1-0.3,0.1-0.6,0.2C388,18.4,387.8,18.4,387.5,18.4z"/>
		<path d="M391.5,11.3c0,0.2,0,0.3-0.1,0.4c-0.1,0.1-0.2,0.1-0.4,0.1c-0.1,0-0.3,0-0.4-0.1c-0.1-0.1-0.1-0.2-0.1-0.4s0-0.3,0.1-0.4
			c0.1-0.1,0.2-0.1,0.4-0.1c0.1,0,0.3,0,0.4,0.1C391.4,11,391.5,11.1,391.5,11.3z M391.3,18.3h-0.7v-5.4h0.7V18.3z"/>
		<path d="M398.3,15.6c0,0.4-0.1,0.8-0.2,1.1c-0.1,0.3-0.3,0.6-0.5,0.9c-0.2,0.2-0.5,0.4-0.8,0.6s-0.6,0.2-1,0.2s-0.7-0.1-1-0.2
			s-0.6-0.3-0.8-0.6c-0.2-0.2-0.4-0.5-0.5-0.9c-0.1-0.3-0.2-0.7-0.2-1.1c0-0.4,0.1-0.8,0.2-1.2c0.1-0.3,0.3-0.6,0.5-0.9
			s0.5-0.4,0.8-0.6s0.6-0.2,1-0.2s0.7,0.1,1,0.2s0.6,0.3,0.8,0.6c0.2,0.2,0.4,0.5,0.5,0.9C398.2,14.8,398.3,15.2,398.3,15.6z
			 M397.6,15.6c0-0.7-0.2-1.2-0.5-1.6c-0.3-0.4-0.7-0.6-1.3-0.6s-1,0.2-1.3,0.6c-0.3,0.4-0.5,0.9-0.5,1.6s0.2,1.2,0.5,1.6
			c0.3,0.4,0.7,0.6,1.3,0.6s1-0.2,1.3-0.6C397.4,16.8,397.6,16.3,397.6,15.6z M397.3,10.8l-1.8,1.4l-0.3-0.4l1.6-1.6L397.3,10.8z"/>
		<path d="M400.4,13.1c0.2-0.1,0.5-0.1,0.8-0.2c0.3-0.1,0.8-0.1,1.2-0.1c0.4,0,0.7,0.1,1,0.2c0.3,0.1,0.5,0.3,0.7,0.5
			s0.3,0.5,0.3,0.8c0.1,0.3,0.1,0.6,0.1,1v3h-0.7v-2.8c0-0.4,0-0.7-0.1-1c-0.1-0.3-0.1-0.5-0.3-0.6c-0.1-0.2-0.3-0.3-0.5-0.4
			c-0.2-0.1-0.4-0.1-0.7-0.1c-0.3,0-0.6,0-0.8,0.1s-0.4,0.1-0.5,0.1v4.7h-0.7V13.1z"/>
		<path d="M412.9,18.4c-0.5,0-0.9-0.1-1.3-0.2c-0.4-0.2-0.7-0.4-1-0.7c-0.3-0.3-0.5-0.7-0.7-1.2c-0.2-0.5-0.3-1-0.3-1.6
			c0-0.6,0.1-1.1,0.3-1.6c0.2-0.5,0.4-0.9,0.7-1.2c0.3-0.3,0.7-0.6,1.1-0.7s0.8-0.2,1.3-0.2c0.3,0,0.5,0,0.7,0.1
			c0.2,0,0.4,0.1,0.6,0.1s0.3,0.1,0.4,0.2c0.1,0.1,0.2,0.1,0.3,0.1l-0.2,0.6c-0.2-0.1-0.4-0.2-0.7-0.3c-0.3-0.1-0.6-0.2-1-0.2
			c-0.4,0-0.8,0.1-1.2,0.2c-0.3,0.2-0.6,0.4-0.8,0.6c-0.2,0.3-0.4,0.6-0.5,1c-0.1,0.4-0.2,0.8-0.2,1.3c0,0.5,0.1,0.9,0.2,1.3
			c0.1,0.4,0.3,0.7,0.5,1c0.2,0.3,0.5,0.5,0.8,0.6c0.3,0.1,0.7,0.2,1.1,0.2c0.5,0,0.8,0,1.1-0.1c0.3-0.1,0.5-0.2,0.7-0.3L415,18
			c0,0-0.1,0.1-0.2,0.1s-0.3,0.1-0.4,0.1c-0.2,0-0.4,0.1-0.6,0.1C413.5,18.4,413.2,18.4,412.9,18.4z"/>
		<path d="M421.4,15.6c0,0.4-0.1,0.8-0.2,1.1c-0.1,0.3-0.3,0.6-0.5,0.9c-0.2,0.2-0.5,0.4-0.8,0.6s-0.6,0.2-1,0.2s-0.7-0.1-1-0.2
			s-0.6-0.3-0.8-0.6c-0.2-0.2-0.4-0.5-0.5-0.9c-0.1-0.3-0.2-0.7-0.2-1.1c0-0.4,0.1-0.8,0.2-1.2c0.1-0.3,0.3-0.6,0.5-0.9
			s0.5-0.4,0.8-0.6s0.6-0.2,1-0.2s0.7,0.1,1,0.2s0.6,0.3,0.8,0.6c0.2,0.2,0.4,0.5,0.5,0.9C421.3,14.8,421.4,15.2,421.4,15.6z
			 M420.7,15.6c0-0.7-0.2-1.2-0.5-1.6c-0.3-0.4-0.7-0.6-1.3-0.6s-1,0.2-1.3,0.6c-0.3,0.4-0.5,0.9-0.5,1.6s0.2,1.2,0.5,1.6
			c0.3,0.4,0.7,0.6,1.3,0.6s1-0.2,1.3-0.6C420.5,16.8,420.7,16.3,420.7,15.6z"/>
		<path d="M424.8,18.4c-0.2,0-0.4,0-0.6-0.1s-0.3-0.1-0.4-0.2s-0.2-0.2-0.3-0.4c-0.1-0.2-0.1-0.4-0.1-0.6v-6.6l0.7-0.1V17
			c0,0.2,0,0.3,0,0.4c0,0.1,0.1,0.2,0.1,0.2c0.1,0.1,0.1,0.1,0.2,0.1c0.1,0,0.2,0.1,0.4,0.1L424.8,18.4z"/>
		<path d="M431.3,15.6c0,0.4-0.1,0.8-0.2,1.1c-0.1,0.3-0.3,0.6-0.5,0.9c-0.2,0.2-0.5,0.4-0.8,0.6s-0.6,0.2-1,0.2s-0.7-0.1-1-0.2
			s-0.6-0.3-0.8-0.6c-0.2-0.2-0.4-0.5-0.5-0.9c-0.1-0.3-0.2-0.7-0.2-1.1c0-0.4,0.1-0.8,0.2-1.2c0.1-0.3,0.3-0.6,0.5-0.9
			s0.5-0.4,0.8-0.6s0.6-0.2,1-0.2s0.7,0.1,1,0.2s0.6,0.3,0.8,0.6c0.2,0.2,0.4,0.5,0.5,0.9C431.2,14.8,431.3,15.2,431.3,15.6z
			 M430.6,15.6c0-0.7-0.2-1.2-0.5-1.6c-0.3-0.4-0.7-0.6-1.3-0.6s-1,0.2-1.3,0.6c-0.3,0.4-0.5,0.9-0.5,1.6s0.2,1.2,0.5,1.6
			c0.3,0.4,0.7,0.6,1.3,0.6s1-0.2,1.3-0.6C430.4,16.8,430.6,16.3,430.6,15.6z"/>
		<path d="M433.4,13.1c0.2-0.1,0.5-0.1,0.8-0.2s0.7-0.1,1.2-0.1c0.7,0,1.2,0.2,1.5,0.6c0,0,0.1-0.1,0.2-0.1c0.1-0.1,0.2-0.1,0.4-0.2
			c0.2-0.1,0.3-0.1,0.5-0.2c0.2,0,0.4-0.1,0.7-0.1c0.4,0,0.7,0.1,1,0.2c0.3,0.1,0.4,0.3,0.6,0.5c0.1,0.2,0.2,0.5,0.3,0.8
			c0,0.3,0.1,0.6,0.1,1v3h-0.7v-2.8c0-0.4,0-0.7,0-0.9s-0.1-0.5-0.2-0.6c-0.1-0.2-0.2-0.3-0.4-0.4c-0.2-0.1-0.4-0.1-0.7-0.1
			c-0.2,0-0.4,0-0.6,0.1s-0.3,0.1-0.4,0.1c-0.1,0.1-0.2,0.1-0.3,0.2c-0.1,0.1-0.1,0.1-0.2,0.1c0.1,0.2,0.1,0.4,0.1,0.6
			c0,0.2,0,0.5,0,0.7v3h-0.7v-2.8c0-0.4,0-0.7,0-0.9s-0.1-0.5-0.2-0.6s-0.2-0.3-0.4-0.4c-0.2-0.1-0.4-0.1-0.7-0.1
			c-0.3,0-0.6,0-0.8,0.1s-0.4,0.1-0.4,0.1v4.7h-0.7V13.1z"/>
		<path d="M443.6,13.2c0.1-0.1,0.3-0.2,0.6-0.3c0.3-0.1,0.6-0.2,0.9-0.2c0.4,0,0.7,0.1,1,0.2c0.3,0.1,0.6,0.3,0.8,0.6
			c0.2,0.2,0.4,0.5,0.5,0.9s0.2,0.7,0.2,1.1c0,0.4-0.1,0.8-0.2,1.2c-0.1,0.3-0.3,0.6-0.5,0.9c-0.2,0.2-0.5,0.4-0.8,0.6
			s-0.7,0.2-1.1,0.2c-0.5,0-0.9,0-1.2-0.1c-0.3-0.1-0.6-0.1-0.8-0.2v-7.7l0.7-0.1V13.2z M443.6,17.6c0.1,0,0.3,0.1,0.5,0.1
			c0.2,0,0.5,0,0.8,0c0.6,0,1-0.2,1.4-0.6c0.4-0.4,0.5-0.9,0.5-1.6c0-0.3,0-0.6-0.1-0.8s-0.2-0.5-0.3-0.7c-0.1-0.2-0.3-0.4-0.5-0.5
			c-0.2-0.1-0.5-0.2-0.8-0.2c-0.2,0-0.3,0-0.5,0c-0.1,0-0.3,0.1-0.4,0.1c-0.1,0-0.2,0.1-0.3,0.2c-0.1,0.1-0.2,0.1-0.2,0.2V17.6z"/>
		<path d="M450.4,11.3c0,0.2,0,0.3-0.1,0.4c-0.1,0.1-0.2,0.1-0.4,0.1c-0.1,0-0.3,0-0.4-0.1c-0.1-0.1-0.1-0.2-0.1-0.4s0-0.3,0.1-0.4
			c0.1-0.1,0.2-0.1,0.4-0.1c0.1,0,0.3,0,0.4,0.1C450.4,11,450.4,11.1,450.4,11.3z M450.3,18.3h-0.7v-5.4h0.7V18.3z"/>
		<path d="M454.3,12.8c0.4,0,0.7,0,0.9,0.2c0.2,0.1,0.4,0.2,0.6,0.4c0.2,0.2,0.3,0.4,0.3,0.6c0.1,0.2,0.1,0.5,0.1,0.8v3.4
			c-0.1,0-0.2,0-0.3,0.1c-0.1,0-0.3,0.1-0.5,0.1c-0.2,0-0.4,0-0.6,0.1c-0.2,0-0.4,0-0.6,0c-0.3,0-0.5,0-0.8-0.1s-0.4-0.2-0.6-0.3
			c-0.2-0.1-0.3-0.3-0.4-0.5c-0.1-0.2-0.2-0.5-0.2-0.8c0-0.3,0.1-0.5,0.2-0.7s0.3-0.4,0.5-0.5s0.4-0.2,0.7-0.3
			c0.3-0.1,0.6-0.1,0.9-0.1c0.1,0,0.2,0,0.3,0c0.1,0,0.2,0,0.3,0c0.1,0,0.2,0,0.3,0.1c0.1,0,0.1,0,0.2,0v-0.3c0-0.2,0-0.4,0-0.5
			c0-0.2-0.1-0.3-0.2-0.5c-0.1-0.1-0.2-0.3-0.4-0.3c-0.2-0.1-0.4-0.1-0.7-0.1c-0.4,0-0.7,0-0.9,0.1s-0.3,0.1-0.4,0.1l-0.1-0.6
			c0.1-0.1,0.3-0.1,0.5-0.2C453.7,12.8,454,12.8,454.3,12.8z M454.4,17.8c0.3,0,0.5,0,0.7,0c0.2,0,0.4,0,0.5-0.1v-1.9
			c-0.1,0-0.2-0.1-0.4-0.1c-0.2,0-0.4-0.1-0.7-0.1c-0.2,0-0.3,0-0.5,0c-0.2,0-0.3,0.1-0.5,0.2c-0.2,0.1-0.3,0.2-0.4,0.3
			c-0.1,0.1-0.1,0.3-0.1,0.5c0,0.2,0,0.4,0.1,0.5c0.1,0.1,0.2,0.2,0.3,0.3s0.3,0.1,0.4,0.2C454,17.8,454.2,17.8,454.4,17.8z"/>
		<path d="M458.6,13.1c0.2-0.1,0.5-0.1,0.8-0.2c0.3-0.1,0.8-0.1,1.2-0.1c0.4,0,0.7,0.1,1,0.2c0.3,0.1,0.5,0.3,0.7,0.5
			s0.3,0.5,0.3,0.8c0.1,0.3,0.1,0.6,0.1,1v3h-0.7v-2.8c0-0.4,0-0.7-0.1-1c-0.1-0.3-0.1-0.5-0.3-0.6c-0.1-0.2-0.3-0.3-0.5-0.4
			c-0.2-0.1-0.4-0.1-0.7-0.1c-0.3,0-0.6,0-0.8,0.1s-0.4,0.1-0.5,0.1v4.7h-0.7V13.1z"/>
		<path d="M466.7,12.8c0.4,0,0.7,0,0.9,0.2c0.2,0.1,0.4,0.2,0.6,0.4c0.2,0.2,0.3,0.4,0.3,0.6c0.1,0.2,0.1,0.5,0.1,0.8v3.4
			c-0.1,0-0.2,0-0.3,0.1c-0.1,0-0.3,0.1-0.5,0.1c-0.2,0-0.4,0-0.6,0.1c-0.2,0-0.4,0-0.6,0c-0.3,0-0.5,0-0.8-0.1s-0.4-0.2-0.6-0.3
			c-0.2-0.1-0.3-0.3-0.4-0.5c-0.1-0.2-0.2-0.5-0.2-0.8c0-0.3,0.1-0.5,0.2-0.7s0.3-0.4,0.5-0.5s0.4-0.2,0.7-0.3
			c0.3-0.1,0.6-0.1,0.9-0.1c0.1,0,0.2,0,0.3,0c0.1,0,0.2,0,0.3,0c0.1,0,0.2,0,0.3,0.1c0.1,0,0.1,0,0.2,0v-0.3c0-0.2,0-0.4,0-0.5
			c0-0.2-0.1-0.3-0.2-0.5c-0.1-0.1-0.2-0.3-0.4-0.3c-0.2-0.1-0.4-0.1-0.7-0.1c-0.4,0-0.7,0-0.9,0.1s-0.3,0.1-0.4,0.1l-0.1-0.6
			c0.1-0.1,0.3-0.1,0.5-0.2C466.1,12.8,466.4,12.8,466.7,12.8z M466.8,17.8c0.3,0,0.5,0,0.7,0c0.2,0,0.4,0,0.5-0.1v-1.9
			c-0.1,0-0.2-0.1-0.4-0.1c-0.2,0-0.4-0.1-0.7-0.1c-0.2,0-0.3,0-0.5,0c-0.2,0-0.3,0.1-0.5,0.2c-0.2,0.1-0.3,0.2-0.4,0.3
			c-0.1,0.1-0.1,0.3-0.1,0.5c0,0.2,0,0.4,0.1,0.5c0.1,0.1,0.2,0.2,0.3,0.3s0.3,0.1,0.4,0.2C466.4,17.8,466.6,17.8,466.8,17.8z"/>
		<path d="M16.8,31.7c-0.2,0.1-0.5,0.1-0.8,0.2c-0.3,0.1-0.7,0.1-1.2,0.1c-0.4,0-0.8-0.1-1.1-0.2s-0.6-0.3-0.8-0.6
			c-0.2-0.2-0.4-0.5-0.5-0.9c-0.1-0.3-0.2-0.7-0.2-1.2c0-0.4,0.1-0.8,0.2-1.1c0.1-0.3,0.3-0.6,0.5-0.9c0.2-0.2,0.5-0.4,0.8-0.6
			c0.3-0.1,0.6-0.2,1-0.2c0.4,0,0.7,0.1,0.9,0.2c0.3,0.1,0.4,0.2,0.6,0.3v-2.9l0.7-0.1V31.7z M16.1,27.4c-0.1,0-0.1-0.1-0.2-0.2
			c-0.1-0.1-0.2-0.1-0.3-0.2c-0.1,0-0.3-0.1-0.4-0.1c-0.1,0-0.3,0-0.5,0c-0.3,0-0.6,0.1-0.8,0.2c-0.2,0.1-0.4,0.3-0.5,0.5
			c-0.1,0.2-0.2,0.4-0.3,0.7s-0.1,0.5-0.1,0.8c0,0.7,0.2,1.2,0.5,1.6c0.4,0.4,0.8,0.6,1.4,0.6c0.3,0,0.6,0,0.8,0
			c0.2,0,0.4-0.1,0.5-0.1V27.4z"/>
		<path d="M18.8,29.1c0-0.5,0.1-0.9,0.2-1.2s0.3-0.6,0.5-0.9c0.2-0.2,0.5-0.4,0.7-0.5c0.3-0.1,0.6-0.2,0.9-0.2
			c0.7,0,1.2,0.2,1.6,0.6c0.4,0.4,0.6,1.1,0.6,2c0,0.1,0,0.1,0,0.2c0,0.1,0,0.1,0,0.2h-3.8c0,0.7,0.2,1.2,0.5,1.5
			c0.3,0.4,0.8,0.5,1.5,0.5c0.4,0,0.7,0,0.9-0.1c0.2-0.1,0.4-0.1,0.5-0.2l0.1,0.6c-0.1,0.1-0.3,0.1-0.5,0.2
			c-0.3,0.1-0.6,0.1-0.9,0.1c-0.5,0-0.9-0.1-1.2-0.2c-0.3-0.1-0.6-0.3-0.8-0.6c-0.2-0.2-0.4-0.5-0.5-0.9S18.8,29.5,18.8,29.1z
			 M22.6,28.7c0-0.6-0.1-1-0.4-1.3c-0.2-0.3-0.6-0.5-1.1-0.5c-0.2,0-0.5,0-0.6,0.1c-0.2,0.1-0.4,0.2-0.5,0.4
			c-0.1,0.2-0.3,0.4-0.3,0.6c-0.1,0.2-0.1,0.4-0.1,0.7H22.6z"/>
		<path d="M28.5,31.8v-7.2h4.1v0.6h-3.4v2.5h3.1v0.6h-3.1v2.9h3.7v0.6H28.5z"/>
		<path d="M34.8,26.7c0.2-0.1,0.5-0.1,0.8-0.2c0.3-0.1,0.8-0.1,1.2-0.1c0.4,0,0.7,0.1,1,0.2c0.3,0.1,0.5,0.3,0.7,0.5
			s0.3,0.5,0.3,0.8c0.1,0.3,0.1,0.6,0.1,1v3h-0.7V29c0-0.4,0-0.7-0.1-1c-0.1-0.3-0.1-0.5-0.3-0.6c-0.1-0.2-0.3-0.3-0.5-0.4
			C37.3,27,37.1,27,36.8,27c-0.3,0-0.6,0-0.8,0.1s-0.4,0.1-0.5,0.1v4.7h-0.7V26.7z"/>
		<path d="M45.6,31.7c-0.2,0.1-0.5,0.1-0.8,0.2c-0.3,0.1-0.7,0.1-1.2,0.1c-0.4,0-0.8-0.1-1.1-0.2s-0.6-0.3-0.8-0.6
			c-0.2-0.2-0.4-0.5-0.5-0.9C41.1,30,41,29.6,41,29.1c0-0.4,0.1-0.8,0.2-1.1c0.1-0.3,0.3-0.6,0.5-0.9c0.2-0.2,0.5-0.4,0.8-0.6
			c0.3-0.1,0.6-0.2,1-0.2c0.4,0,0.7,0.1,0.9,0.2c0.3,0.1,0.4,0.2,0.6,0.3v-2.9l0.7-0.1V31.7z M44.9,27.4c-0.1,0-0.1-0.1-0.2-0.2
			c-0.1-0.1-0.2-0.1-0.3-0.2c-0.1,0-0.3-0.1-0.4-0.1c-0.1,0-0.3,0-0.5,0c-0.3,0-0.6,0.1-0.8,0.2c-0.2,0.1-0.4,0.3-0.5,0.5
			c-0.1,0.2-0.2,0.4-0.3,0.7s-0.1,0.5-0.1,0.8c0,0.7,0.2,1.2,0.5,1.6c0.4,0.4,0.8,0.6,1.4,0.6c0.3,0,0.6,0,0.8,0
			c0.2,0,0.4-0.1,0.5-0.1V27.4z"/>
		<path d="M52.6,29.1c0,0.4-0.1,0.8-0.2,1.1c-0.1,0.3-0.3,0.6-0.5,0.9c-0.2,0.2-0.5,0.4-0.8,0.6s-0.6,0.2-1,0.2s-0.7-0.1-1-0.2
			s-0.6-0.3-0.8-0.6c-0.2-0.2-0.4-0.5-0.5-0.9c-0.1-0.3-0.2-0.7-0.2-1.1c0-0.4,0.1-0.8,0.2-1.2c0.1-0.3,0.3-0.6,0.5-0.9
			s0.5-0.4,0.8-0.6s0.6-0.2,1-0.2s0.7,0.1,1,0.2s0.6,0.3,0.8,0.6c0.2,0.2,0.4,0.5,0.5,0.9C52.5,28.3,52.6,28.7,52.6,29.1z
			 M51.9,29.1c0-0.7-0.2-1.2-0.5-1.6c-0.3-0.4-0.7-0.6-1.3-0.6s-1,0.2-1.3,0.6c-0.3,0.4-0.5,0.9-0.5,1.6s0.2,1.2,0.5,1.6
			c0.3,0.4,0.7,0.6,1.3,0.6s1-0.2,1.3-0.6C51.7,30.3,51.9,29.8,51.9,29.1z"/>
		<path d="M56.9,31.9c-0.4,0-0.8-0.1-1.1-0.2s-0.6-0.3-0.8-0.6c-0.2-0.2-0.4-0.5-0.5-0.9s-0.2-0.7-0.2-1.1c0-0.4,0.1-0.8,0.2-1.1
			c0.1-0.3,0.3-0.6,0.5-0.9c0.2-0.2,0.5-0.4,0.8-0.6s0.6-0.2,1-0.2c0.3,0,0.6,0,0.8,0.1c0.3,0,0.4,0.1,0.6,0.2L58,27.2
			c-0.1-0.1-0.3-0.1-0.5-0.2c-0.2,0-0.4-0.1-0.7-0.1c-0.6,0-1,0.2-1.4,0.6c-0.3,0.4-0.5,0.9-0.5,1.6c0,0.3,0,0.6,0.1,0.9
			c0.1,0.3,0.2,0.5,0.3,0.7s0.4,0.3,0.6,0.4c0.2,0.1,0.5,0.2,0.9,0.2c0.3,0,0.5,0,0.7-0.1c0.2-0.1,0.3-0.1,0.4-0.2l0.1,0.6
			c-0.1,0.1-0.3,0.1-0.6,0.2C57.4,31.9,57.2,31.9,56.9,31.9z"/>
		<path d="M61.9,26.4c0.2,0,0.4,0,0.6,0.1c0.2,0,0.3,0.1,0.4,0.1l-0.1,0.6c-0.1,0-0.2-0.1-0.3-0.1c-0.2,0-0.4,0-0.7,0
			c-0.3,0-0.5,0-0.7,0.1c-0.2,0-0.3,0.1-0.3,0.1v4.7H60v-5.1c0.2-0.1,0.4-0.2,0.7-0.2S61.4,26.4,61.9,26.4z"/>
		<path d="M65.4,24.8c0,0.2,0,0.3-0.1,0.4c-0.1,0.1-0.2,0.1-0.4,0.1c-0.1,0-0.3,0-0.4-0.1c-0.1-0.1-0.1-0.2-0.1-0.4s0-0.3,0.1-0.4
			c0.1-0.1,0.2-0.1,0.4-0.1c0.1,0,0.3,0,0.4,0.1C65.3,24.6,65.4,24.7,65.4,24.8z M65.2,31.8h-0.7v-5.4h0.7V31.8z"/>
		<path d="M67.6,26.7c0.2-0.1,0.5-0.1,0.8-0.2c0.3-0.1,0.8-0.1,1.2-0.1c0.4,0,0.7,0.1,1,0.2c0.3,0.1,0.5,0.3,0.7,0.5
			s0.3,0.5,0.3,0.8c0.1,0.3,0.1,0.6,0.1,1v3h-0.7V29c0-0.4,0-0.7-0.1-1c-0.1-0.3-0.1-0.5-0.3-0.6c-0.1-0.2-0.3-0.3-0.5-0.4
			C70.1,27,69.9,27,69.6,27c-0.3,0-0.6,0-0.8,0.1s-0.4,0.1-0.5,0.1v4.7h-0.7V26.7z"/>
		<path d="M78.7,29.1c0,0.4-0.1,0.8-0.2,1.1c-0.1,0.3-0.3,0.6-0.5,0.9c-0.2,0.2-0.5,0.4-0.8,0.6s-0.6,0.2-1,0.2s-0.7-0.1-1-0.2
			s-0.6-0.3-0.8-0.6c-0.2-0.2-0.4-0.5-0.5-0.9c-0.1-0.3-0.2-0.7-0.2-1.1c0-0.4,0.1-0.8,0.2-1.2c0.1-0.3,0.3-0.6,0.5-0.9
			s0.5-0.4,0.8-0.6s0.6-0.2,1-0.2s0.7,0.1,1,0.2s0.6,0.3,0.8,0.6c0.2,0.2,0.4,0.5,0.5,0.9C78.6,28.3,78.7,28.7,78.7,29.1z M78,29.1
			c0-0.7-0.2-1.2-0.5-1.6c-0.3-0.4-0.7-0.6-1.3-0.6s-1,0.2-1.3,0.6c-0.3,0.4-0.5,0.9-0.5,1.6s0.2,1.2,0.5,1.6
			c0.3,0.4,0.7,0.6,1.3,0.6s1-0.2,1.3-0.6C77.8,30.3,78,29.8,78,29.1z"/>
		<path d="M82.1,31.9c-0.2,0-0.4,0-0.6-0.1s-0.3-0.1-0.4-0.2s-0.2-0.2-0.3-0.4c-0.1-0.2-0.1-0.4-0.1-0.6v-6.6l0.7-0.1v6.7
			c0,0.2,0,0.3,0,0.4c0,0.1,0.1,0.2,0.1,0.2c0.1,0.1,0.1,0.1,0.2,0.1c0.1,0,0.2,0.1,0.4,0.1L82.1,31.9z"/>
		<path d="M88.6,29.1c0,0.4-0.1,0.8-0.2,1.1c-0.1,0.3-0.3,0.6-0.5,0.9c-0.2,0.2-0.5,0.4-0.8,0.6s-0.6,0.2-1,0.2s-0.7-0.1-1-0.2
			s-0.6-0.3-0.8-0.6c-0.2-0.2-0.4-0.5-0.5-0.9c-0.1-0.3-0.2-0.7-0.2-1.1c0-0.4,0.1-0.8,0.2-1.2c0.1-0.3,0.3-0.6,0.5-0.9
			s0.5-0.4,0.8-0.6s0.6-0.2,1-0.2s0.7,0.1,1,0.2s0.6,0.3,0.8,0.6c0.2,0.2,0.4,0.5,0.5,0.9C88.5,28.3,88.6,28.7,88.6,29.1z
			 M87.9,29.1c0-0.7-0.2-1.2-0.5-1.6c-0.3-0.4-0.7-0.6-1.3-0.6s-1,0.2-1.3,0.6c-0.3,0.4-0.5,0.9-0.5,1.6s0.2,1.2,0.5,1.6
			c0.3,0.4,0.7,0.6,1.3,0.6s1-0.2,1.3-0.6C87.7,30.3,87.9,29.8,87.9,29.1z"/>
		<path d="M94.2,31.2c0,0-0.1,0.1-0.2,0.1c-0.1,0-0.2,0.1-0.3,0.1c-0.1,0-0.3,0.1-0.4,0.1c-0.2,0-0.3,0-0.5,0c-0.3,0-0.6,0-0.9-0.1
			c-0.3-0.1-0.5-0.2-0.8-0.5s-0.4-0.5-0.5-0.8s-0.2-0.7-0.2-1.2c0-0.4,0.1-0.7,0.2-1.1c0.1-0.3,0.3-0.6,0.5-0.8
			c0.2-0.2,0.5-0.4,0.8-0.6s0.7-0.2,1.1-0.2c0.5,0,0.9,0,1.2,0.1s0.5,0.1,0.7,0.2v4.9c0,0.8-0.2,1.4-0.6,1.7s-1,0.5-1.9,0.5
			c-0.3,0-0.7,0-0.9-0.1c-0.3-0.1-0.5-0.1-0.7-0.2l0.1-0.6c0.2,0.1,0.4,0.1,0.7,0.2c0.3,0.1,0.6,0.1,0.9,0.1c0.6,0,1.1-0.1,1.4-0.4
			c0.3-0.2,0.4-0.7,0.4-1.3V31.2z M94.2,27.1c-0.1,0-0.3-0.1-0.5-0.1c-0.2,0-0.5,0-0.8,0c-0.3,0-0.5,0-0.8,0.2
			c-0.2,0.1-0.4,0.2-0.6,0.4c-0.2,0.2-0.3,0.4-0.4,0.7s-0.1,0.5-0.1,0.8c0,0.4,0,0.7,0.1,0.9c0.1,0.3,0.2,0.5,0.4,0.6
			c0.2,0.2,0.3,0.3,0.5,0.3c0.2,0.1,0.4,0.1,0.6,0.1c0.3,0,0.6,0,0.8-0.1c0.3-0.1,0.4-0.2,0.6-0.3V27.1z"/>
		<path d="M99,24.3l-1.8,1.4l-0.3-0.4l1.6-1.6L99,24.3z M97.9,31.8h-0.7v-5.4h0.7V31.8z"/>
		<path d="M102,26.3c0.4,0,0.7,0,0.9,0.2c0.2,0.1,0.4,0.2,0.6,0.4c0.2,0.2,0.3,0.4,0.3,0.6c0.1,0.2,0.1,0.5,0.1,0.8v3.4
			c-0.1,0-0.2,0-0.3,0.1c-0.1,0-0.3,0.1-0.5,0.1c-0.2,0-0.4,0-0.6,0.1c-0.2,0-0.4,0-0.6,0c-0.3,0-0.5,0-0.8-0.1s-0.4-0.2-0.6-0.3
			c-0.2-0.1-0.3-0.3-0.4-0.5c-0.1-0.2-0.2-0.5-0.2-0.8c0-0.3,0.1-0.5,0.2-0.7s0.3-0.4,0.5-0.5s0.4-0.2,0.7-0.3
			c0.3-0.1,0.6-0.1,0.9-0.1c0.1,0,0.2,0,0.3,0c0.1,0,0.2,0,0.3,0c0.1,0,0.2,0,0.3,0.1c0.1,0,0.1,0,0.2,0v-0.3c0-0.2,0-0.4,0-0.5
			c0-0.2-0.1-0.3-0.2-0.5c-0.1-0.1-0.2-0.3-0.4-0.3c-0.2-0.1-0.4-0.1-0.7-0.1c-0.4,0-0.7,0-0.9,0.1s-0.3,0.1-0.4,0.1l-0.1-0.6
			c0.1-0.1,0.3-0.1,0.5-0.2C101.3,26.4,101.6,26.3,102,26.3z M102,31.3c0.3,0,0.5,0,0.7,0c0.2,0,0.4,0,0.5-0.1v-1.9
			c-0.1,0-0.2-0.1-0.4-0.1c-0.2,0-0.4-0.1-0.7-0.1c-0.2,0-0.3,0-0.5,0c-0.2,0-0.3,0.1-0.5,0.2c-0.2,0.1-0.3,0.2-0.4,0.3
			c-0.1,0.1-0.1,0.3-0.1,0.5c0,0.2,0,0.4,0.1,0.5c0.1,0.1,0.2,0.2,0.3,0.3s0.3,0.1,0.4,0.2C101.6,31.3,101.8,31.3,102,31.3z"/>
		<path d="M107,30.8c0,0.1,0,0.1,0,0.2c0,0,0,0.1,0,0.1c0,0.4-0.1,0.8-0.2,1.2c-0.1,0.4-0.3,0.8-0.5,1.1l-0.5-0.2
			c0.2-0.3,0.3-0.6,0.3-1c0.1-0.3,0.1-0.7,0.1-1c0-0.1,0-0.2,0-0.2c0-0.1,0-0.1,0-0.2H107z"/>
		<path d="M118.1,28.2c0,0.6-0.1,1.1-0.3,1.6c-0.2,0.5-0.5,0.8-0.8,1.1s-0.8,0.5-1.2,0.7c-0.5,0.2-1,0.2-1.6,0.2c-0.3,0-0.6,0-0.9,0
			c-0.3,0-0.6-0.1-0.8-0.1v-6.9c0.2-0.1,0.5-0.1,0.8-0.2s0.6,0,0.9,0c0.6,0,1.1,0.1,1.6,0.2c0.5,0.2,0.9,0.4,1.2,0.7
			s0.6,0.7,0.8,1.1C118,27.1,118.1,27.6,118.1,28.2z M113.1,31.2c0,0,0.1,0,0.3,0c0.2,0,0.4,0,0.8,0c0.5,0,1-0.1,1.4-0.2
			s0.7-0.3,1-0.6c0.3-0.3,0.5-0.6,0.6-1c0.1-0.4,0.2-0.8,0.2-1.3s-0.1-0.9-0.2-1.3s-0.3-0.7-0.6-1c-0.3-0.3-0.6-0.5-1-0.6
			s-0.8-0.2-1.4-0.2c-0.4,0-0.6,0-0.8,0c-0.2,0-0.3,0-0.3,0V31.2z"/>
		<path d="M121.1,24.8c0,0.2,0,0.3-0.1,0.4c-0.1,0.1-0.2,0.1-0.4,0.1c-0.1,0-0.3,0-0.4-0.1c-0.1-0.1-0.1-0.2-0.1-0.4s0-0.3,0.1-0.4
			c0.1-0.1,0.2-0.1,0.4-0.1c0.1,0,0.3,0,0.4,0.1C121,24.6,121.1,24.7,121.1,24.8z M120.9,31.8h-0.7v-5.4h0.7V31.8z"/>
		<path d="M125,26.3c0.4,0,0.7,0,0.9,0.2c0.2,0.1,0.4,0.2,0.6,0.4c0.2,0.2,0.3,0.4,0.3,0.6c0.1,0.2,0.1,0.5,0.1,0.8v3.4
			c-0.1,0-0.2,0-0.3,0.1c-0.1,0-0.3,0.1-0.5,0.1c-0.2,0-0.4,0-0.6,0.1c-0.2,0-0.4,0-0.6,0c-0.3,0-0.5,0-0.8-0.1s-0.4-0.2-0.6-0.3
			c-0.2-0.1-0.3-0.3-0.4-0.5c-0.1-0.2-0.2-0.5-0.2-0.8c0-0.3,0.1-0.5,0.2-0.7s0.3-0.4,0.5-0.5s0.4-0.2,0.7-0.3
			c0.3-0.1,0.6-0.1,0.9-0.1c0.1,0,0.2,0,0.3,0c0.1,0,0.2,0,0.3,0c0.1,0,0.2,0,0.3,0.1c0.1,0,0.1,0,0.2,0v-0.3c0-0.2,0-0.4,0-0.5
			c0-0.2-0.1-0.3-0.2-0.5c-0.1-0.1-0.2-0.3-0.4-0.3c-0.2-0.1-0.4-0.1-0.7-0.1c-0.4,0-0.7,0-0.9,0.1s-0.3,0.1-0.4,0.1l-0.1-0.6
			c0.1-0.1,0.3-0.1,0.5-0.2C124.3,26.4,124.6,26.3,125,26.3z M125,31.3c0.3,0,0.5,0,0.7,0c0.2,0,0.4,0,0.5-0.1v-1.9
			c-0.1,0-0.2-0.1-0.4-0.1c-0.2,0-0.4-0.1-0.7-0.1c-0.2,0-0.3,0-0.5,0c-0.2,0-0.3,0.1-0.5,0.2c-0.2,0.1-0.3,0.2-0.4,0.3
			c-0.1,0.1-0.1,0.3-0.1,0.5c0,0.2,0,0.4,0.1,0.5c0.1,0.1,0.2,0.2,0.3,0.3s0.3,0.1,0.4,0.2C124.6,31.3,124.8,31.3,125,31.3z"/>
		<path d="M129.9,26.8c0.1-0.1,0.3-0.2,0.6-0.3c0.3-0.1,0.6-0.2,0.9-0.2c0.4,0,0.7,0.1,1,0.2c0.3,0.1,0.6,0.3,0.8,0.6
			c0.2,0.2,0.4,0.5,0.5,0.9s0.2,0.7,0.2,1.1c0,0.4-0.1,0.8-0.2,1.2c-0.1,0.3-0.3,0.6-0.5,0.9c-0.2,0.2-0.5,0.4-0.8,0.6
			s-0.7,0.2-1.1,0.2c-0.5,0-0.9,0-1.2-0.1c-0.3-0.1-0.6-0.1-0.8-0.2v-7.7l0.7-0.1V26.8z M129.9,31.2c0.1,0,0.3,0.1,0.5,0.1
			c0.2,0,0.5,0,0.8,0c0.6,0,1-0.2,1.4-0.6c0.4-0.4,0.5-0.9,0.5-1.6c0-0.3,0-0.6-0.1-0.8s-0.2-0.5-0.3-0.7c-0.1-0.2-0.3-0.4-0.5-0.5
			c-0.2-0.1-0.5-0.2-0.8-0.2c-0.2,0-0.3,0-0.5,0c-0.1,0-0.3,0.1-0.4,0.1c-0.1,0-0.2,0.1-0.3,0.2c-0.1,0.1-0.2,0.1-0.2,0.2V31.2z"/>
		<path d="M135.6,29.1c0-0.5,0.1-0.9,0.2-1.2s0.3-0.6,0.5-0.9c0.2-0.2,0.5-0.4,0.7-0.5c0.3-0.1,0.6-0.2,0.9-0.2
			c0.7,0,1.2,0.2,1.6,0.6c0.4,0.4,0.6,1.1,0.6,2c0,0.1,0,0.1,0,0.2c0,0.1,0,0.1,0,0.2h-3.8c0,0.7,0.2,1.2,0.5,1.5
			c0.3,0.4,0.8,0.5,1.5,0.5c0.4,0,0.7,0,0.9-0.1c0.2-0.1,0.4-0.1,0.5-0.2l0.1,0.6c-0.1,0.1-0.3,0.1-0.5,0.2
			c-0.3,0.1-0.6,0.1-0.9,0.1c-0.5,0-0.9-0.1-1.2-0.2c-0.3-0.1-0.6-0.3-0.8-0.6c-0.2-0.2-0.4-0.5-0.5-0.9S135.6,29.5,135.6,29.1z
			 M139.4,28.7c0-0.6-0.1-1-0.4-1.3c-0.2-0.3-0.6-0.5-1.1-0.5c-0.2,0-0.5,0-0.6,0.1c-0.2,0.1-0.4,0.2-0.5,0.4
			c-0.1,0.2-0.3,0.4-0.3,0.6c-0.1,0.2-0.1,0.4-0.1,0.7H139.4z"/>
		<path d="M142.8,26.5h2.1V27h-2.1v2.8c0,0.3,0,0.6,0.1,0.7c0.1,0.2,0.1,0.3,0.2,0.4s0.2,0.2,0.4,0.2c0.1,0,0.3,0.1,0.5,0.1
			c0.3,0,0.5,0,0.7-0.1c0.2-0.1,0.3-0.1,0.4-0.2l0.2,0.6c-0.1,0.1-0.3,0.1-0.5,0.2c-0.2,0.1-0.5,0.1-0.8,0.1c-0.3,0-0.6,0-0.8-0.1
			c-0.2-0.1-0.4-0.2-0.5-0.4c-0.1-0.2-0.2-0.4-0.3-0.7c-0.1-0.3-0.1-0.6-0.1-0.9v-4.9l0.7-0.1V26.5z"/>
		<path d="M146.5,29.1c0-0.5,0.1-0.9,0.2-1.2s0.3-0.6,0.5-0.9c0.2-0.2,0.5-0.4,0.7-0.5c0.3-0.1,0.6-0.2,0.9-0.2
			c0.7,0,1.2,0.2,1.6,0.6c0.4,0.4,0.6,1.1,0.6,2c0,0.1,0,0.1,0,0.2c0,0.1,0,0.1,0,0.2h-3.8c0,0.7,0.2,1.2,0.5,1.5
			c0.3,0.4,0.8,0.5,1.5,0.5c0.4,0,0.7,0,0.9-0.1c0.2-0.1,0.4-0.1,0.5-0.2l0.1,0.6c-0.1,0.1-0.3,0.1-0.5,0.2
			c-0.3,0.1-0.6,0.1-0.9,0.1c-0.5,0-0.9-0.1-1.2-0.2c-0.3-0.1-0.6-0.3-0.8-0.6c-0.2-0.2-0.4-0.5-0.5-0.9S146.5,29.5,146.5,29.1z
			 M150.3,28.7c0-0.6-0.1-1-0.4-1.3c-0.2-0.3-0.6-0.5-1.1-0.5c-0.2,0-0.5,0-0.6,0.1c-0.2,0.1-0.4,0.2-0.5,0.4
			c-0.1,0.2-0.3,0.4-0.3,0.6c-0.1,0.2-0.1,0.4-0.1,0.7H150.3z"/>
		<path d="M154.2,31.3c0.4,0,0.7-0.1,1-0.2c0.3-0.1,0.4-0.3,0.4-0.6c0-0.1,0-0.3-0.1-0.4c0-0.1-0.1-0.2-0.2-0.3s-0.2-0.2-0.4-0.2
			c-0.2-0.1-0.4-0.2-0.6-0.3c-0.2-0.1-0.4-0.2-0.6-0.3c-0.2-0.1-0.3-0.2-0.5-0.3c-0.1-0.1-0.2-0.3-0.3-0.4c-0.1-0.2-0.1-0.4-0.1-0.6
			c0-0.4,0.2-0.8,0.5-1.1c0.3-0.3,0.8-0.4,1.4-0.4c0.4,0,0.7,0,0.9,0.1c0.2,0.1,0.4,0.1,0.5,0.2l-0.2,0.6c-0.1,0-0.2-0.1-0.4-0.2
			c-0.2-0.1-0.5-0.1-0.9-0.1c-0.2,0-0.3,0-0.4,0c-0.1,0-0.3,0.1-0.4,0.1c-0.1,0.1-0.2,0.1-0.2,0.2c-0.1,0.1-0.1,0.2-0.1,0.4
			c0,0.1,0,0.3,0.1,0.4c0.1,0.1,0.1,0.2,0.2,0.3c0.1,0.1,0.2,0.2,0.4,0.2s0.3,0.1,0.5,0.2c0.2,0.1,0.4,0.2,0.6,0.3
			c0.2,0.1,0.4,0.2,0.5,0.3c0.1,0.1,0.3,0.3,0.4,0.4c0.1,0.2,0.1,0.4,0.1,0.6c0,0.5-0.2,0.8-0.5,1.1c-0.4,0.2-0.9,0.4-1.5,0.4
			c-0.5,0-0.8,0-1.1-0.1c-0.2-0.1-0.4-0.1-0.5-0.2l0.2-0.6c0,0,0.1,0,0.1,0.1c0.1,0,0.2,0.1,0.3,0.1c0.1,0,0.3,0.1,0.4,0.1
			C153.8,31.3,154,31.3,154.2,31.3z"/>
		<path d="M162.6,31.9c-0.2-0.4-0.4-0.9-0.7-1.3c-0.2-0.5-0.4-0.9-0.6-1.4s-0.4-0.9-0.5-1.4c-0.2-0.5-0.3-0.9-0.4-1.4h0.7
			c0.1,0.3,0.2,0.7,0.3,1.1c0.1,0.4,0.2,0.8,0.4,1.2c0.1,0.4,0.3,0.8,0.5,1.3c0.2,0.4,0.4,0.8,0.6,1.3c0.2-0.4,0.3-0.8,0.4-1.2
			c0.1-0.4,0.2-0.8,0.3-1.1c0.1-0.4,0.2-0.8,0.3-1.2c0.1-0.4,0.2-0.8,0.3-1.3h0.7c-0.2,1-0.5,2-0.8,2.9c-0.3,0.9-0.6,1.8-0.9,2.6
			c-0.1,0.3-0.3,0.6-0.4,0.8c-0.1,0.2-0.3,0.4-0.5,0.6c-0.2,0.1-0.4,0.3-0.6,0.3s-0.5,0.1-0.8,0.1c-0.2,0-0.3,0-0.5-0.1
			c-0.1,0-0.2-0.1-0.3-0.1l0.1-0.6c0,0,0.1,0,0.2,0.1s0.3,0.1,0.4,0.1c0.2,0,0.4,0,0.5-0.1c0.2,0,0.3-0.1,0.4-0.2
			c0.1-0.1,0.2-0.2,0.3-0.4C162.4,32.4,162.5,32.2,162.6,31.9z"/>
		<path d="M173,30.8c-0.1-0.2-0.2-0.4-0.3-0.7s-0.3-0.6-0.4-0.9c-0.2-0.3-0.3-0.7-0.5-1c-0.2-0.4-0.3-0.7-0.5-1
			c-0.2-0.3-0.3-0.6-0.4-0.8c-0.1-0.2-0.2-0.4-0.3-0.5c-0.1,0.9-0.2,1.8-0.2,2.8s-0.1,2.1-0.1,3.2h-0.7c0.1-1.3,0.1-2.6,0.2-3.8
			c0.1-1.2,0.2-2.3,0.3-3.4h0.6c0.2,0.3,0.4,0.7,0.7,1.2c0.2,0.5,0.5,0.9,0.7,1.4c0.2,0.5,0.5,1,0.7,1.4c0.2,0.5,0.4,0.9,0.6,1.3
			c0.2-0.4,0.4-0.8,0.6-1.3c0.2-0.5,0.4-1,0.7-1.4c0.2-0.5,0.5-1,0.7-1.4c0.2-0.5,0.5-0.9,0.7-1.2h0.6c0.1,1.1,0.2,2.2,0.3,3.4
			c0.1,1.2,0.2,2.4,0.2,3.8h-0.7c0-1.1-0.1-2.2-0.1-3.2c-0.1-1-0.1-2-0.2-2.8c-0.1,0.1-0.1,0.3-0.3,0.5c-0.1,0.2-0.3,0.5-0.4,0.8
			c-0.2,0.3-0.3,0.6-0.5,1c-0.2,0.4-0.3,0.7-0.5,1c-0.2,0.3-0.3,0.6-0.4,0.9s-0.2,0.5-0.3,0.7H173z"/>
		<path d="M178.9,29.1c0-0.5,0.1-0.9,0.2-1.2s0.3-0.6,0.5-0.9c0.2-0.2,0.5-0.4,0.7-0.5c0.3-0.1,0.6-0.2,0.9-0.2
			c0.7,0,1.2,0.2,1.6,0.6c0.4,0.4,0.6,1.1,0.6,2c0,0.1,0,0.1,0,0.2c0,0.1,0,0.1,0,0.2h-3.8c0,0.7,0.2,1.2,0.5,1.5
			c0.3,0.4,0.8,0.5,1.5,0.5c0.4,0,0.7,0,0.9-0.1c0.2-0.1,0.4-0.1,0.5-0.2l0.1,0.6c-0.1,0.1-0.3,0.1-0.5,0.2
			c-0.3,0.1-0.6,0.1-0.9,0.1c-0.5,0-0.9-0.1-1.2-0.2c-0.3-0.1-0.6-0.3-0.8-0.6c-0.2-0.2-0.4-0.5-0.5-0.9S178.9,29.5,178.9,29.1z
			 M182.8,28.7c0-0.6-0.1-1-0.4-1.3c-0.2-0.3-0.6-0.5-1.1-0.5c-0.2,0-0.5,0-0.6,0.1c-0.2,0.1-0.4,0.2-0.5,0.4
			c-0.1,0.2-0.3,0.4-0.3,0.6c-0.1,0.2-0.1,0.4-0.1,0.7H182.8z"/>
		<path d="M186.2,26.5h2.1V27h-2.1v2.8c0,0.3,0,0.6,0.1,0.7c0.1,0.2,0.1,0.3,0.2,0.4s0.2,0.2,0.4,0.2c0.1,0,0.3,0.1,0.5,0.1
			c0.3,0,0.5,0,0.7-0.1c0.2-0.1,0.3-0.1,0.4-0.2l0.2,0.6c-0.1,0.1-0.3,0.1-0.5,0.2c-0.2,0.1-0.5,0.1-0.8,0.1c-0.3,0-0.6,0-0.8-0.1
			c-0.2-0.1-0.4-0.2-0.5-0.4c-0.1-0.2-0.2-0.4-0.3-0.7c-0.1-0.3-0.1-0.6-0.1-0.9v-4.9l0.7-0.1V26.5z"/>
		<path d="M191.8,26.3c0.4,0,0.7,0,0.9,0.2c0.2,0.1,0.4,0.2,0.6,0.4c0.2,0.2,0.3,0.4,0.3,0.6c0.1,0.2,0.1,0.5,0.1,0.8v3.4
			c-0.1,0-0.2,0-0.3,0.1c-0.1,0-0.3,0.1-0.5,0.1c-0.2,0-0.4,0-0.6,0.1c-0.2,0-0.4,0-0.6,0c-0.3,0-0.5,0-0.8-0.1s-0.4-0.2-0.6-0.3
			c-0.2-0.1-0.3-0.3-0.4-0.5c-0.1-0.2-0.2-0.5-0.2-0.8c0-0.3,0.1-0.5,0.2-0.7s0.3-0.4,0.5-0.5s0.4-0.2,0.7-0.3
			c0.3-0.1,0.6-0.1,0.9-0.1c0.1,0,0.2,0,0.3,0c0.1,0,0.2,0,0.3,0c0.1,0,0.2,0,0.3,0.1c0.1,0,0.1,0,0.2,0v-0.3c0-0.2,0-0.4,0-0.5
			c0-0.2-0.1-0.3-0.2-0.5c-0.1-0.1-0.2-0.3-0.4-0.3c-0.2-0.1-0.4-0.1-0.7-0.1c-0.4,0-0.7,0-0.9,0.1s-0.3,0.1-0.4,0.1l-0.1-0.6
			c0.1-0.1,0.3-0.1,0.5-0.2C191.2,26.4,191.5,26.3,191.8,26.3z M191.9,31.3c0.3,0,0.5,0,0.7,0c0.2,0,0.4,0,0.5-0.1v-1.9
			c-0.1,0-0.2-0.1-0.4-0.1c-0.2,0-0.4-0.1-0.7-0.1c-0.2,0-0.3,0-0.5,0c-0.2,0-0.3,0.1-0.5,0.2c-0.2,0.1-0.3,0.2-0.4,0.3
			c-0.1,0.1-0.1,0.3-0.1,0.5c0,0.2,0,0.4,0.1,0.5c0.1,0.1,0.2,0.2,0.3,0.3s0.3,0.1,0.4,0.2C191.5,31.3,191.7,31.3,191.9,31.3z"/>
		<path d="M196.8,26.8c0.1-0.1,0.3-0.2,0.6-0.3c0.3-0.1,0.6-0.2,0.9-0.2c0.4,0,0.7,0.1,1,0.2c0.3,0.1,0.6,0.3,0.8,0.6
			c0.2,0.2,0.4,0.5,0.5,0.9s0.2,0.7,0.2,1.1c0,0.4-0.1,0.8-0.2,1.2c-0.1,0.3-0.3,0.6-0.5,0.9c-0.2,0.2-0.5,0.4-0.8,0.6
			s-0.7,0.2-1.1,0.2c-0.5,0-0.9,0-1.2-0.1c-0.3-0.1-0.6-0.1-0.8-0.2v-7.7l0.7-0.1V26.8z M196.8,31.2c0.1,0,0.3,0.1,0.5,0.1
			c0.2,0,0.5,0,0.8,0c0.6,0,1-0.2,1.4-0.6c0.4-0.4,0.5-0.9,0.5-1.6c0-0.3,0-0.6-0.1-0.8s-0.2-0.5-0.3-0.7c-0.1-0.2-0.3-0.4-0.5-0.5
			c-0.2-0.1-0.5-0.2-0.8-0.2c-0.2,0-0.3,0-0.5,0c-0.1,0-0.3,0.1-0.4,0.1c-0.1,0-0.2,0.1-0.3,0.2c-0.1,0.1-0.2,0.1-0.2,0.2V31.2z"/>
		<path d="M207.3,29.1c0,0.4-0.1,0.8-0.2,1.1c-0.1,0.3-0.3,0.6-0.5,0.9c-0.2,0.2-0.5,0.4-0.8,0.6s-0.6,0.2-1,0.2s-0.7-0.1-1-0.2
			s-0.6-0.3-0.8-0.6c-0.2-0.2-0.4-0.5-0.5-0.9c-0.1-0.3-0.2-0.7-0.2-1.1c0-0.4,0.1-0.8,0.2-1.2c0.1-0.3,0.3-0.6,0.5-0.9
			s0.5-0.4,0.8-0.6s0.6-0.2,1-0.2s0.7,0.1,1,0.2s0.6,0.3,0.8,0.6c0.2,0.2,0.4,0.5,0.5,0.9C207.3,28.3,207.3,28.7,207.3,29.1z
			 M206.6,29.1c0-0.7-0.2-1.2-0.5-1.6c-0.3-0.4-0.7-0.6-1.3-0.6s-1,0.2-1.3,0.6c-0.3,0.4-0.5,0.9-0.5,1.6s0.2,1.2,0.5,1.6
			c0.3,0.4,0.7,0.6,1.3,0.6s1-0.2,1.3-0.6C206.5,30.3,206.6,29.8,206.6,29.1z"/>
		<path d="M210.8,31.9c-0.2,0-0.4,0-0.6-0.1s-0.3-0.1-0.4-0.2s-0.2-0.2-0.3-0.4c-0.1-0.2-0.1-0.4-0.1-0.6v-6.6l0.7-0.1v6.7
			c0,0.2,0,0.3,0,0.4c0,0.1,0.1,0.2,0.1,0.2c0.1,0.1,0.1,0.1,0.2,0.1c0.1,0,0.2,0.1,0.4,0.1L210.8,31.9z"/>
		<path d="M213.5,24.8c0,0.2,0,0.3-0.1,0.4c-0.1,0.1-0.2,0.1-0.4,0.1c-0.1,0-0.3,0-0.4-0.1c-0.1-0.1-0.1-0.2-0.1-0.4s0-0.3,0.1-0.4
			c0.1-0.1,0.2-0.1,0.4-0.1c0.1,0,0.3,0,0.4,0.1C213.4,24.6,213.5,24.7,213.5,24.8z M213.3,31.8h-0.7v-5.4h0.7V31.8z"/>
		<path d="M216.8,31.3c0.4,0,0.7-0.1,1-0.2c0.3-0.1,0.4-0.3,0.4-0.6c0-0.1,0-0.3-0.1-0.4c0-0.1-0.1-0.2-0.2-0.3s-0.2-0.2-0.4-0.2
			c-0.2-0.1-0.4-0.2-0.6-0.3c-0.2-0.1-0.4-0.2-0.6-0.3c-0.2-0.1-0.3-0.2-0.5-0.3c-0.1-0.1-0.2-0.3-0.3-0.4c-0.1-0.2-0.1-0.4-0.1-0.6
			c0-0.4,0.2-0.8,0.5-1.1c0.3-0.3,0.8-0.4,1.4-0.4c0.4,0,0.7,0,0.9,0.1c0.2,0.1,0.4,0.1,0.5,0.2l-0.2,0.6c-0.1,0-0.2-0.1-0.4-0.2
			c-0.2-0.1-0.5-0.1-0.9-0.1c-0.2,0-0.3,0-0.4,0c-0.1,0-0.3,0.1-0.4,0.1c-0.1,0.1-0.2,0.1-0.2,0.2c-0.1,0.1-0.1,0.2-0.1,0.4
			c0,0.1,0,0.3,0.1,0.4c0.1,0.1,0.1,0.2,0.2,0.3c0.1,0.1,0.2,0.2,0.4,0.2s0.3,0.1,0.5,0.2c0.2,0.1,0.4,0.2,0.6,0.3
			c0.2,0.1,0.4,0.2,0.5,0.3c0.1,0.1,0.3,0.3,0.4,0.4c0.1,0.2,0.1,0.4,0.1,0.6c0,0.5-0.2,0.8-0.5,1.1c-0.4,0.2-0.9,0.4-1.5,0.4
			c-0.5,0-0.8,0-1.1-0.1c-0.2-0.1-0.4-0.1-0.5-0.2l0.2-0.6c0,0,0.1,0,0.1,0.1c0.1,0,0.2,0.1,0.3,0.1c0.1,0,0.3,0.1,0.4,0.1
			C216.4,31.3,216.6,31.3,216.8,31.3z"/>
		<path d="M220.8,26.7c0.2-0.1,0.5-0.1,0.8-0.2s0.7-0.1,1.2-0.1c0.7,0,1.2,0.2,1.5,0.6c0,0,0.1-0.1,0.2-0.1c0.1-0.1,0.2-0.1,0.4-0.2
			c0.2-0.1,0.3-0.1,0.5-0.2c0.2,0,0.4-0.1,0.7-0.1c0.4,0,0.7,0.1,1,0.2c0.3,0.1,0.4,0.3,0.6,0.5c0.1,0.2,0.2,0.5,0.3,0.8
			c0,0.3,0.1,0.6,0.1,1v3h-0.7V29c0-0.4,0-0.7,0-0.9s-0.1-0.5-0.2-0.6c-0.1-0.2-0.2-0.3-0.4-0.4c-0.2-0.1-0.4-0.1-0.7-0.1
			c-0.2,0-0.4,0-0.6,0.1s-0.3,0.1-0.4,0.1c-0.1,0.1-0.2,0.1-0.3,0.2c-0.1,0.1-0.1,0.1-0.2,0.1c0.1,0.2,0.1,0.4,0.1,0.6
			c0,0.2,0,0.5,0,0.7v3h-0.7V29c0-0.4,0-0.7,0-0.9s-0.1-0.5-0.2-0.6s-0.2-0.3-0.4-0.4c-0.2-0.1-0.4-0.1-0.7-0.1
			c-0.3,0-0.6,0-0.8,0.1s-0.4,0.1-0.4,0.1v4.7h-0.7V26.7z"/>
		<path d="M234.9,29.1c0,0.4-0.1,0.8-0.2,1.1c-0.1,0.3-0.3,0.6-0.5,0.9c-0.2,0.2-0.5,0.4-0.8,0.6s-0.6,0.2-1,0.2s-0.7-0.1-1-0.2
			s-0.6-0.3-0.8-0.6c-0.2-0.2-0.4-0.5-0.5-0.9c-0.1-0.3-0.2-0.7-0.2-1.1c0-0.4,0.1-0.8,0.2-1.2c0.1-0.3,0.3-0.6,0.5-0.9
			s0.5-0.4,0.8-0.6s0.6-0.2,1-0.2s0.7,0.1,1,0.2s0.6,0.3,0.8,0.6c0.2,0.2,0.4,0.5,0.5,0.9C234.9,28.3,234.9,28.7,234.9,29.1z
			 M234.2,29.1c0-0.7-0.2-1.2-0.5-1.6c-0.3-0.4-0.7-0.6-1.3-0.6s-1,0.2-1.3,0.6c-0.3,0.4-0.5,0.9-0.5,1.6s0.2,1.2,0.5,1.6
			c0.3,0.4,0.7,0.6,1.3,0.6s1-0.2,1.3-0.6C234.1,30.3,234.2,29.8,234.2,29.1z"/>
		<path d="M237.8,30.8c0,0.1,0,0.1,0,0.2c0,0,0,0.1,0,0.1c0,0.4-0.1,0.8-0.2,1.2c-0.1,0.4-0.3,0.8-0.5,1.1l-0.5-0.2
			c0.2-0.3,0.3-0.6,0.3-1c0.1-0.3,0.1-0.7,0.1-1c0-0.1,0-0.2,0-0.2c0-0.1,0-0.1,0-0.2H237.8z"/>
		<path d="M244.6,31.9c-0.2-0.4-0.4-0.9-0.7-1.3c-0.2-0.5-0.4-0.9-0.6-1.4s-0.4-0.9-0.5-1.4c-0.2-0.5-0.3-0.9-0.4-1.4h0.7
			c0.1,0.3,0.2,0.7,0.3,1.1c0.1,0.4,0.2,0.8,0.4,1.2c0.1,0.4,0.3,0.8,0.5,1.3c0.2,0.4,0.4,0.8,0.6,1.3c0.2-0.4,0.3-0.8,0.4-1.2
			c0.1-0.4,0.2-0.8,0.3-1.1c0.1-0.4,0.2-0.8,0.3-1.2c0.1-0.4,0.2-0.8,0.3-1.3h0.7c-0.2,1-0.5,2-0.8,2.9c-0.3,0.9-0.6,1.8-0.9,2.6
			c-0.1,0.3-0.3,0.6-0.4,0.8c-0.1,0.2-0.3,0.4-0.5,0.6c-0.2,0.1-0.4,0.3-0.6,0.3s-0.5,0.1-0.8,0.1c-0.2,0-0.3,0-0.5-0.1
			c-0.1,0-0.2-0.1-0.3-0.1l0.1-0.6c0,0,0.1,0,0.2,0.1s0.3,0.1,0.4,0.1c0.2,0,0.4,0,0.5-0.1c0.2,0,0.3-0.1,0.4-0.2
			c0.1-0.1,0.2-0.2,0.3-0.4C244.4,32.4,244.5,32.2,244.6,31.9z"/>
		<path d="M253.9,31.9c-0.4,0-0.8-0.1-1.1-0.2s-0.6-0.3-0.8-0.6c-0.2-0.2-0.4-0.5-0.5-0.9s-0.2-0.7-0.2-1.1c0-0.4,0.1-0.8,0.2-1.1
			c0.1-0.3,0.3-0.6,0.5-0.9c0.2-0.2,0.5-0.4,0.8-0.6s0.6-0.2,1-0.2c0.3,0,0.6,0,0.8,0.1c0.3,0,0.4,0.1,0.6,0.2l-0.2,0.6
			c-0.1-0.1-0.3-0.1-0.5-0.2c-0.2,0-0.4-0.1-0.7-0.1c-0.6,0-1,0.2-1.4,0.6c-0.3,0.4-0.5,0.9-0.5,1.6c0,0.3,0,0.6,0.1,0.9
			c0.1,0.3,0.2,0.5,0.3,0.7s0.4,0.3,0.6,0.4c0.2,0.1,0.5,0.2,0.9,0.2c0.3,0,0.5,0,0.7-0.1c0.2-0.1,0.3-0.1,0.4-0.2l0.1,0.6
			c-0.1,0.1-0.3,0.1-0.6,0.2C254.5,31.9,254.2,31.9,253.9,31.9z"/>
		<path d="M261.2,31.6c-0.2,0.1-0.5,0.1-0.8,0.2c-0.3,0.1-0.8,0.1-1.2,0.1c-0.4,0-0.7-0.1-1-0.2c-0.3-0.1-0.5-0.3-0.7-0.5
			c-0.2-0.2-0.3-0.5-0.4-0.8c-0.1-0.3-0.1-0.6-0.1-1v-3h0.7v2.8c0,0.4,0,0.7,0.1,1c0.1,0.3,0.1,0.5,0.3,0.6s0.3,0.3,0.5,0.4
			c0.2,0.1,0.4,0.1,0.7,0.1c0.3,0,0.6,0,0.8-0.1c0.2,0,0.4-0.1,0.4-0.1v-4.7h0.7V31.6z"/>
		<path d="M263.3,29.1c0-0.5,0.1-0.9,0.2-1.2s0.3-0.6,0.5-0.9c0.2-0.2,0.5-0.4,0.7-0.5c0.3-0.1,0.6-0.2,0.9-0.2
			c0.7,0,1.2,0.2,1.6,0.6c0.4,0.4,0.6,1.1,0.6,2c0,0.1,0,0.1,0,0.2c0,0.1,0,0.1,0,0.2H264c0,0.7,0.2,1.2,0.5,1.5
			c0.3,0.4,0.8,0.5,1.5,0.5c0.4,0,0.7,0,0.9-0.1c0.2-0.1,0.4-0.1,0.5-0.2l0.1,0.6c-0.1,0.1-0.3,0.1-0.5,0.2
			c-0.3,0.1-0.6,0.1-0.9,0.1c-0.5,0-0.9-0.1-1.2-0.2c-0.3-0.1-0.6-0.3-0.8-0.6c-0.2-0.2-0.4-0.5-0.5-0.9S263.3,29.5,263.3,29.1z
			 M267.1,28.7c0-0.6-0.1-1-0.4-1.3c-0.2-0.3-0.6-0.5-1.1-0.5c-0.2,0-0.5,0-0.6,0.1c-0.2,0.1-0.4,0.2-0.5,0.4
			c-0.1,0.2-0.3,0.4-0.3,0.6c-0.1,0.2-0.1,0.4-0.1,0.7H267.1z"/>
		<path d="M269.9,26.7c0.2-0.1,0.5-0.1,0.8-0.2c0.3-0.1,0.8-0.1,1.2-0.1c0.4,0,0.7,0.1,1,0.2c0.3,0.1,0.5,0.3,0.7,0.5
			s0.3,0.5,0.3,0.8c0.1,0.3,0.1,0.6,0.1,1v3h-0.7V29c0-0.4,0-0.7-0.1-1c-0.1-0.3-0.1-0.5-0.3-0.6c-0.1-0.2-0.3-0.3-0.5-0.4
			c-0.2-0.1-0.4-0.1-0.7-0.1c-0.3,0-0.6,0-0.8,0.1s-0.4,0.1-0.5,0.1v4.7h-0.7V26.7z"/>
		<path d="M277,26.5h2.1V27H277v2.8c0,0.3,0,0.6,0.1,0.7c0.1,0.2,0.1,0.3,0.2,0.4s0.2,0.2,0.4,0.2c0.1,0,0.3,0.1,0.5,0.1
			c0.3,0,0.5,0,0.7-0.1c0.2-0.1,0.3-0.1,0.4-0.2l0.2,0.6c-0.1,0.1-0.3,0.1-0.5,0.2c-0.2,0.1-0.5,0.1-0.8,0.1c-0.3,0-0.6,0-0.8-0.1
			c-0.2-0.1-0.4-0.2-0.5-0.4c-0.1-0.2-0.2-0.4-0.3-0.7c-0.1-0.3-0.1-0.6-0.1-0.9v-4.9l0.7-0.1V26.5z"/>
		<path d="M282.7,26.3c0.4,0,0.7,0,0.9,0.2c0.2,0.1,0.4,0.2,0.6,0.4c0.2,0.2,0.3,0.4,0.3,0.6c0.1,0.2,0.1,0.5,0.1,0.8v3.4
			c-0.1,0-0.2,0-0.3,0.1c-0.1,0-0.3,0.1-0.5,0.1c-0.2,0-0.4,0-0.6,0.1c-0.2,0-0.4,0-0.6,0c-0.3,0-0.5,0-0.8-0.1s-0.4-0.2-0.6-0.3
			c-0.2-0.1-0.3-0.3-0.4-0.5c-0.1-0.2-0.2-0.5-0.2-0.8c0-0.3,0.1-0.5,0.2-0.7s0.3-0.4,0.5-0.5s0.4-0.2,0.7-0.3
			c0.3-0.1,0.6-0.1,0.9-0.1c0.1,0,0.2,0,0.3,0c0.1,0,0.2,0,0.3,0c0.1,0,0.2,0,0.3,0.1c0.1,0,0.1,0,0.2,0v-0.3c0-0.2,0-0.4,0-0.5
			c0-0.2-0.1-0.3-0.2-0.5c-0.1-0.1-0.2-0.3-0.4-0.3c-0.2-0.1-0.4-0.1-0.7-0.1c-0.4,0-0.7,0-0.9,0.1s-0.3,0.1-0.4,0.1l-0.1-0.6
			c0.1-0.1,0.3-0.1,0.5-0.2C282,26.4,282.3,26.3,282.7,26.3z M282.7,31.3c0.3,0,0.5,0,0.7,0c0.2,0,0.4,0,0.5-0.1v-1.9
			c-0.1,0-0.2-0.1-0.4-0.1c-0.2,0-0.4-0.1-0.7-0.1c-0.2,0-0.3,0-0.5,0c-0.2,0-0.3,0.1-0.5,0.2c-0.2,0.1-0.3,0.2-0.4,0.3
			c-0.1,0.1-0.1,0.3-0.1,0.5c0,0.2,0,0.4,0.1,0.5c0.1,0.1,0.2,0.2,0.3,0.3s0.3,0.1,0.4,0.2C282.3,31.3,282.5,31.3,282.7,31.3z"/>
		<path d="M292.1,31.9c-0.4,0-0.8-0.1-1.1-0.2s-0.6-0.3-0.8-0.6c-0.2-0.2-0.4-0.5-0.5-0.9s-0.2-0.7-0.2-1.1c0-0.4,0.1-0.8,0.2-1.1
			c0.1-0.3,0.3-0.6,0.5-0.9c0.2-0.2,0.5-0.4,0.8-0.6s0.6-0.2,1-0.2c0.3,0,0.6,0,0.8,0.1c0.3,0,0.4,0.1,0.6,0.2l-0.2,0.6
			c-0.1-0.1-0.3-0.1-0.5-0.2c-0.2,0-0.4-0.1-0.7-0.1c-0.6,0-1,0.2-1.4,0.6c-0.3,0.4-0.5,0.9-0.5,1.6c0,0.3,0,0.6,0.1,0.9
			c0.1,0.3,0.2,0.5,0.3,0.7s0.4,0.3,0.6,0.4c0.2,0.1,0.5,0.2,0.9,0.2c0.3,0,0.5,0,0.7-0.1c0.2-0.1,0.3-0.1,0.4-0.2l0.1,0.6
			c-0.1,0.1-0.3,0.1-0.6,0.2C292.7,31.9,292.4,31.9,292.1,31.9z"/>
		<path d="M299.9,29.1c0,0.4-0.1,0.8-0.2,1.1c-0.1,0.3-0.3,0.6-0.5,0.9c-0.2,0.2-0.5,0.4-0.8,0.6s-0.6,0.2-1,0.2s-0.7-0.1-1-0.2
			s-0.6-0.3-0.8-0.6c-0.2-0.2-0.4-0.5-0.5-0.9c-0.1-0.3-0.2-0.7-0.2-1.1c0-0.4,0.1-0.8,0.2-1.2c0.1-0.3,0.3-0.6,0.5-0.9
			s0.5-0.4,0.8-0.6s0.6-0.2,1-0.2s0.7,0.1,1,0.2s0.6,0.3,0.8,0.6c0.2,0.2,0.4,0.5,0.5,0.9C299.8,28.3,299.9,28.7,299.9,29.1z
			 M299.2,29.1c0-0.7-0.2-1.2-0.5-1.6c-0.3-0.4-0.7-0.6-1.3-0.6s-1,0.2-1.3,0.6c-0.3,0.4-0.5,0.9-0.5,1.6s0.2,1.2,0.5,1.6
			c0.3,0.4,0.7,0.6,1.3,0.6s1-0.2,1.3-0.6C299,30.3,299.2,29.8,299.2,29.1z"/>
		<path d="M302,26.7c0.2-0.1,0.5-0.1,0.8-0.2c0.3-0.1,0.8-0.1,1.2-0.1c0.4,0,0.7,0.1,1,0.2c0.3,0.1,0.5,0.3,0.7,0.5s0.3,0.5,0.3,0.8
			c0.1,0.3,0.1,0.6,0.1,1v3h-0.7V29c0-0.4,0-0.7-0.1-1c-0.1-0.3-0.1-0.5-0.3-0.6c-0.1-0.2-0.3-0.3-0.5-0.4c-0.2-0.1-0.4-0.1-0.7-0.1
			c-0.3,0-0.6,0-0.8,0.1s-0.4,0.1-0.5,0.1v4.7H302V26.7z"/>
		<path d="M311.1,29.1c0-0.5,0.1-0.9,0.2-1.2s0.3-0.6,0.5-0.9c0.2-0.2,0.5-0.4,0.7-0.5c0.3-0.1,0.6-0.2,0.9-0.2
			c0.7,0,1.2,0.2,1.6,0.6c0.4,0.4,0.6,1.1,0.6,2c0,0.1,0,0.1,0,0.2c0,0.1,0,0.1,0,0.2h-3.8c0,0.7,0.2,1.2,0.5,1.5
			c0.3,0.4,0.8,0.5,1.5,0.5c0.4,0,0.7,0,0.9-0.1c0.2-0.1,0.4-0.1,0.5-0.2l0.1,0.6c-0.1,0.1-0.3,0.1-0.5,0.2
			c-0.3,0.1-0.6,0.1-0.9,0.1c-0.5,0-0.9-0.1-1.2-0.2c-0.3-0.1-0.6-0.3-0.8-0.6c-0.2-0.2-0.4-0.5-0.5-0.9S311.1,29.5,311.1,29.1z
			 M314.9,28.7c0-0.6-0.1-1-0.4-1.3c-0.2-0.3-0.6-0.5-1.1-0.5c-0.2,0-0.5,0-0.6,0.1c-0.2,0.1-0.4,0.2-0.5,0.4
			c-0.1,0.2-0.3,0.4-0.3,0.6c-0.1,0.2-0.1,0.4-0.1,0.7H314.9z"/>
		<path d="M319.1,31.9c-0.2,0-0.4,0-0.6-0.1s-0.3-0.1-0.4-0.2s-0.2-0.2-0.3-0.4c-0.1-0.2-0.1-0.4-0.1-0.6v-6.6l0.7-0.1v6.7
			c0,0.2,0,0.3,0,0.4c0,0.1,0.1,0.2,0.1,0.2c0.1,0.1,0.1,0.1,0.2,0.1c0.1,0,0.2,0.1,0.4,0.1L319.1,31.9z"/>
		<path d="M325.6,26.3c0.4,0,0.7,0,0.9,0.2c0.2,0.1,0.4,0.2,0.6,0.4c0.2,0.2,0.3,0.4,0.3,0.6c0.1,0.2,0.1,0.5,0.1,0.8v3.4
			c-0.1,0-0.2,0-0.3,0.1c-0.1,0-0.3,0.1-0.5,0.1c-0.2,0-0.4,0-0.6,0.1c-0.2,0-0.4,0-0.6,0c-0.3,0-0.5,0-0.8-0.1s-0.4-0.2-0.6-0.3
			c-0.2-0.1-0.3-0.3-0.4-0.5c-0.1-0.2-0.2-0.5-0.2-0.8c0-0.3,0.1-0.5,0.2-0.7s0.3-0.4,0.5-0.5s0.4-0.2,0.7-0.3
			c0.3-0.1,0.6-0.1,0.9-0.1c0.1,0,0.2,0,0.3,0c0.1,0,0.2,0,0.3,0c0.1,0,0.2,0,0.3,0.1c0.1,0,0.1,0,0.2,0v-0.3c0-0.2,0-0.4,0-0.5
			c0-0.2-0.1-0.3-0.2-0.5c-0.1-0.1-0.2-0.3-0.4-0.3c-0.2-0.1-0.4-0.1-0.7-0.1c-0.4,0-0.7,0-0.9,0.1s-0.3,0.1-0.4,0.1l-0.1-0.6
			c0.1-0.1,0.3-0.1,0.5-0.2C325,26.4,325.3,26.3,325.6,26.3z M325.7,31.3c0.3,0,0.5,0,0.7,0c0.2,0,0.4,0,0.5-0.1v-1.9
			c-0.1,0-0.2-0.1-0.4-0.1c-0.2,0-0.4-0.1-0.7-0.1c-0.2,0-0.3,0-0.5,0c-0.2,0-0.3,0.1-0.5,0.2c-0.2,0.1-0.3,0.2-0.4,0.3
			c-0.1,0.1-0.1,0.3-0.1,0.5c0,0.2,0,0.4,0.1,0.5c0.1,0.1,0.2,0.2,0.3,0.3s0.3,0.1,0.4,0.2C325.3,31.3,325.5,31.3,325.7,31.3z"/>
		<path d="M330.6,33.7h-0.7v-7.1c0.2-0.1,0.5-0.1,0.8-0.2c0.3-0.1,0.7-0.1,1.2-0.1c0.4,0,0.8,0.1,1.1,0.2s0.6,0.3,0.8,0.6
			c0.2,0.2,0.4,0.5,0.5,0.9c0.1,0.3,0.2,0.7,0.2,1.2c0,0.4-0.1,0.8-0.2,1.1s-0.3,0.6-0.5,0.9s-0.5,0.4-0.8,0.6
			c-0.3,0.1-0.6,0.2-1,0.2c-0.4,0-0.7,0-0.9-0.2c-0.3-0.1-0.4-0.2-0.6-0.3V33.7z M330.6,30.9c0.1,0,0.1,0.1,0.2,0.2
			c0.1,0.1,0.2,0.1,0.3,0.2c0.1,0,0.3,0.1,0.4,0.1c0.1,0,0.3,0,0.5,0c0.3,0,0.6-0.1,0.8-0.2s0.4-0.3,0.5-0.5
			c0.1-0.2,0.2-0.4,0.3-0.7s0.1-0.5,0.1-0.8c0-0.7-0.2-1.2-0.5-1.6c-0.4-0.4-0.8-0.6-1.4-0.6c-0.3,0-0.6,0-0.8,0
			c-0.2,0-0.4,0.1-0.5,0.1V30.9z"/>
		<path d="M341.1,29.1c0,0.4-0.1,0.8-0.2,1.1c-0.1,0.3-0.3,0.6-0.5,0.9c-0.2,0.2-0.5,0.4-0.8,0.6s-0.6,0.2-1,0.2s-0.7-0.1-1-0.2
			s-0.6-0.3-0.8-0.6c-0.2-0.2-0.4-0.5-0.5-0.9c-0.1-0.3-0.2-0.7-0.2-1.1c0-0.4,0.1-0.8,0.2-1.2c0.1-0.3,0.3-0.6,0.5-0.9
			s0.5-0.4,0.8-0.6s0.6-0.2,1-0.2s0.7,0.1,1,0.2s0.6,0.3,0.8,0.6c0.2,0.2,0.4,0.5,0.5,0.9C341.1,28.3,341.1,28.7,341.1,29.1z
			 M340.4,29.1c0-0.7-0.2-1.2-0.5-1.6c-0.3-0.4-0.7-0.6-1.3-0.6s-1,0.2-1.3,0.6c-0.3,0.4-0.5,0.9-0.5,1.6s0.2,1.2,0.5,1.6
			c0.3,0.4,0.7,0.6,1.3,0.6s1-0.2,1.3-0.6C340.3,30.3,340.4,29.8,340.4,29.1z"/>
		<path d="M344.7,31.9c-0.2-0.4-0.4-0.9-0.7-1.3c-0.2-0.5-0.4-0.9-0.6-1.4s-0.4-0.9-0.5-1.4c-0.2-0.5-0.3-0.9-0.4-1.4h0.7
			c0.1,0.3,0.2,0.7,0.3,1.1c0.1,0.4,0.2,0.8,0.4,1.2c0.1,0.4,0.3,0.8,0.5,1.3c0.2,0.4,0.4,0.8,0.6,1.3c0.2-0.4,0.3-0.8,0.4-1.2
			c0.1-0.4,0.2-0.8,0.3-1.1c0.1-0.4,0.2-0.8,0.3-1.2c0.1-0.4,0.2-0.8,0.3-1.3h0.7c-0.2,1-0.5,2-0.8,2.9c-0.3,0.9-0.6,1.8-0.9,2.6
			c-0.1,0.3-0.3,0.6-0.4,0.8c-0.1,0.2-0.3,0.4-0.5,0.6c-0.2,0.1-0.4,0.3-0.6,0.3s-0.5,0.1-0.8,0.1c-0.2,0-0.3,0-0.5-0.1
			c-0.1,0-0.2-0.1-0.3-0.1l0.1-0.6c0,0,0.1,0,0.2,0.1s0.3,0.1,0.4,0.1c0.2,0,0.4,0,0.5-0.1c0.2,0,0.3-0.1,0.4-0.2
			c0.1-0.1,0.2-0.2,0.3-0.4C344.5,32.4,344.6,32.2,344.7,31.9z"/>
		<path d="M353.3,29.1c0,0.4-0.1,0.8-0.2,1.1c-0.1,0.3-0.3,0.6-0.5,0.9c-0.2,0.2-0.5,0.4-0.8,0.6s-0.6,0.2-1,0.2s-0.7-0.1-1-0.2
			s-0.6-0.3-0.8-0.6c-0.2-0.2-0.4-0.5-0.5-0.9c-0.1-0.3-0.2-0.7-0.2-1.1c0-0.4,0.1-0.8,0.2-1.2c0.1-0.3,0.3-0.6,0.5-0.9
			s0.5-0.4,0.8-0.6s0.6-0.2,1-0.2s0.7,0.1,1,0.2s0.6,0.3,0.8,0.6c0.2,0.2,0.4,0.5,0.5,0.9C353.2,28.3,353.3,28.7,353.3,29.1z
			 M352.6,29.1c0-0.7-0.2-1.2-0.5-1.6c-0.3-0.4-0.7-0.6-1.3-0.6s-1,0.2-1.3,0.6c-0.3,0.4-0.5,0.9-0.5,1.6s0.2,1.2,0.5,1.6
			c0.3,0.4,0.7,0.6,1.3,0.6s1-0.2,1.3-0.6C352.4,30.3,352.6,29.8,352.6,29.1z"/>
		<path d="M358.4,26.7c0.2-0.1,0.5-0.1,0.8-0.2c0.3-0.1,0.8-0.1,1.2-0.1c0.4,0,0.7,0.1,1,0.2c0.3,0.1,0.5,0.3,0.7,0.5
			s0.3,0.5,0.3,0.8c0.1,0.3,0.1,0.6,0.1,1v3h-0.7V29c0-0.4,0-0.7-0.1-1c-0.1-0.3-0.1-0.5-0.3-0.6c-0.1-0.2-0.3-0.3-0.5-0.4
			c-0.2-0.1-0.4-0.1-0.7-0.1c-0.3,0-0.6,0-0.8,0.1s-0.4,0.1-0.5,0.1v4.7h-0.7V26.7z"/>
		<path d="M369.5,29.1c0,0.4-0.1,0.8-0.2,1.1c-0.1,0.3-0.3,0.6-0.5,0.9c-0.2,0.2-0.5,0.4-0.8,0.6s-0.6,0.2-1,0.2s-0.7-0.1-1-0.2
			s-0.6-0.3-0.8-0.6c-0.2-0.2-0.4-0.5-0.5-0.9c-0.1-0.3-0.2-0.7-0.2-1.1c0-0.4,0.1-0.8,0.2-1.2c0.1-0.3,0.3-0.6,0.5-0.9
			s0.5-0.4,0.8-0.6s0.6-0.2,1-0.2s0.7,0.1,1,0.2s0.6,0.3,0.8,0.6c0.2,0.2,0.4,0.5,0.5,0.9C369.4,28.3,369.5,28.7,369.5,29.1z
			 M368.7,29.1c0-0.7-0.2-1.2-0.5-1.6c-0.3-0.4-0.7-0.6-1.3-0.6s-1,0.2-1.3,0.6c-0.3,0.4-0.5,0.9-0.5,1.6s0.2,1.2,0.5,1.6
			c0.3,0.4,0.7,0.6,1.3,0.6s1-0.2,1.3-0.6C368.6,30.3,368.7,29.8,368.7,29.1z"/>
		<path d="M375.2,33.7h-0.7v-7.1c0.2-0.1,0.5-0.1,0.8-0.2c0.3-0.1,0.7-0.1,1.2-0.1c0.4,0,0.8,0.1,1.1,0.2s0.6,0.3,0.8,0.6
			c0.2,0.2,0.4,0.5,0.5,0.9c0.1,0.3,0.2,0.7,0.2,1.2c0,0.4-0.1,0.8-0.2,1.1s-0.3,0.6-0.5,0.9s-0.5,0.4-0.8,0.6
			c-0.3,0.1-0.6,0.2-1,0.2c-0.4,0-0.7,0-0.9-0.2c-0.3-0.1-0.4-0.2-0.6-0.3V33.7z M375.2,30.9c0.1,0,0.1,0.1,0.2,0.2
			c0.1,0.1,0.2,0.1,0.3,0.2c0.1,0,0.3,0.1,0.4,0.1c0.1,0,0.3,0,0.5,0c0.3,0,0.6-0.1,0.8-0.2s0.4-0.3,0.5-0.5
			c0.1-0.2,0.2-0.4,0.3-0.7s0.1-0.5,0.1-0.8c0-0.7-0.2-1.2-0.5-1.6c-0.4-0.4-0.8-0.6-1.4-0.6c-0.3,0-0.6,0-0.8,0
			c-0.2,0-0.4,0.1-0.5,0.1V30.9z"/>
		<path d="M383,26.4c0.2,0,0.4,0,0.6,0.1c0.2,0,0.3,0.1,0.4,0.1l-0.1,0.6c-0.1,0-0.2-0.1-0.3-0.1c-0.2,0-0.4,0-0.7,0
			c-0.3,0-0.5,0-0.7,0.1c-0.2,0-0.3,0.1-0.3,0.1v4.7h-0.7v-5.1c0.2-0.1,0.4-0.2,0.7-0.2S382.6,26.4,383,26.4z"/>
		<path d="M390.2,29.1c0,0.4-0.1,0.8-0.2,1.1c-0.1,0.3-0.3,0.6-0.5,0.9c-0.2,0.2-0.5,0.4-0.8,0.6s-0.6,0.2-1,0.2s-0.7-0.1-1-0.2
			s-0.6-0.3-0.8-0.6c-0.2-0.2-0.4-0.5-0.5-0.9c-0.1-0.3-0.2-0.7-0.2-1.1c0-0.4,0.1-0.8,0.2-1.2c0.1-0.3,0.3-0.6,0.5-0.9
			s0.5-0.4,0.8-0.6s0.6-0.2,1-0.2s0.7,0.1,1,0.2s0.6,0.3,0.8,0.6c0.2,0.2,0.4,0.5,0.5,0.9C390.2,28.3,390.2,28.7,390.2,29.1z
			 M389.5,29.1c0-0.7-0.2-1.2-0.5-1.6c-0.3-0.4-0.7-0.6-1.3-0.6s-1,0.2-1.3,0.6c-0.3,0.4-0.5,0.9-0.5,1.6s0.2,1.2,0.5,1.6
			c0.3,0.4,0.7,0.6,1.3,0.6s1-0.2,1.3-0.6C389.4,30.3,389.5,29.8,389.5,29.1z"/>
		<path d="M392.3,26.7c0.2-0.1,0.5-0.1,0.8-0.2s0.7-0.1,1.2-0.1c0.7,0,1.2,0.2,1.5,0.6c0,0,0.1-0.1,0.2-0.1c0.1-0.1,0.2-0.1,0.4-0.2
			c0.2-0.1,0.3-0.1,0.5-0.2c0.2,0,0.4-0.1,0.7-0.1c0.4,0,0.7,0.1,1,0.2c0.3,0.1,0.4,0.3,0.6,0.5c0.1,0.2,0.2,0.5,0.3,0.8
			c0,0.3,0.1,0.6,0.1,1v3h-0.7V29c0-0.4,0-0.7,0-0.9s-0.1-0.5-0.2-0.6c-0.1-0.2-0.2-0.3-0.4-0.4c-0.2-0.1-0.4-0.1-0.7-0.1
			c-0.2,0-0.4,0-0.6,0.1s-0.3,0.1-0.4,0.1c-0.1,0.1-0.2,0.1-0.3,0.2c-0.1,0.1-0.1,0.1-0.2,0.1c0.1,0.2,0.1,0.4,0.1,0.6
			c0,0.2,0,0.5,0,0.7v3h-0.7V29c0-0.4,0-0.7,0-0.9s-0.1-0.5-0.2-0.6s-0.2-0.3-0.4-0.4c-0.2-0.1-0.4-0.1-0.7-0.1
			c-0.3,0-0.6,0-0.8,0.1s-0.4,0.1-0.4,0.1v4.7h-0.7V26.7z"/>
		<path d="M406.5,29.1c0,0.4-0.1,0.8-0.2,1.1c-0.1,0.3-0.3,0.6-0.5,0.9c-0.2,0.2-0.5,0.4-0.8,0.6s-0.6,0.2-1,0.2s-0.7-0.1-1-0.2
			s-0.6-0.3-0.8-0.6c-0.2-0.2-0.4-0.5-0.5-0.9c-0.1-0.3-0.2-0.7-0.2-1.1c0-0.4,0.1-0.8,0.2-1.2c0.1-0.3,0.3-0.6,0.5-0.9
			s0.5-0.4,0.8-0.6s0.6-0.2,1-0.2s0.7,0.1,1,0.2s0.6,0.3,0.8,0.6c0.2,0.2,0.4,0.5,0.5,0.9C406.4,28.3,406.5,28.7,406.5,29.1z
			 M405.7,29.1c0-0.7-0.2-1.2-0.5-1.6c-0.3-0.4-0.7-0.6-1.3-0.6s-1,0.2-1.3,0.6c-0.3,0.4-0.5,0.9-0.5,1.6s0.2,1.2,0.5,1.6
			c0.3,0.4,0.7,0.6,1.3,0.6s1-0.2,1.3-0.6C405.6,30.3,405.7,29.8,405.7,29.1z"/>
		<path d="M410.8,31.9c-0.4,0-0.8-0.1-1.1-0.2s-0.6-0.3-0.8-0.6c-0.2-0.2-0.4-0.5-0.5-0.9s-0.2-0.7-0.2-1.1c0-0.4,0.1-0.8,0.2-1.1
			c0.1-0.3,0.3-0.6,0.5-0.9c0.2-0.2,0.5-0.4,0.8-0.6s0.6-0.2,1-0.2c0.3,0,0.6,0,0.8,0.1c0.3,0,0.4,0.1,0.6,0.2l-0.2,0.6
			c-0.1-0.1-0.3-0.1-0.5-0.2c-0.2,0-0.4-0.1-0.7-0.1c-0.6,0-1,0.2-1.4,0.6c-0.3,0.4-0.5,0.9-0.5,1.6c0,0.3,0,0.6,0.1,0.9
			c0.1,0.3,0.2,0.5,0.3,0.7s0.4,0.3,0.6,0.4c0.2,0.1,0.5,0.2,0.9,0.2c0.3,0,0.5,0,0.7-0.1c0.2-0.1,0.3-0.1,0.4-0.2l0.1,0.6
			c-0.1,0.1-0.3,0.1-0.6,0.2C411.3,31.9,411.1,31.9,410.8,31.9z"/>
		<path d="M414.8,24.8c0,0.2,0,0.3-0.1,0.4c-0.1,0.1-0.2,0.1-0.4,0.1c-0.1,0-0.3,0-0.4-0.1c-0.1-0.1-0.1-0.2-0.1-0.4s0-0.3,0.1-0.4
			c0.1-0.1,0.2-0.1,0.4-0.1c0.1,0,0.3,0,0.4,0.1C414.7,24.6,414.8,24.7,414.8,24.8z M414.6,31.8h-0.7v-5.4h0.7V31.8z"/>
		<path d="M421.6,29.1c0,0.4-0.1,0.8-0.2,1.1c-0.1,0.3-0.3,0.6-0.5,0.9c-0.2,0.2-0.5,0.4-0.8,0.6s-0.6,0.2-1,0.2s-0.7-0.1-1-0.2
			s-0.6-0.3-0.8-0.6c-0.2-0.2-0.4-0.5-0.5-0.9c-0.1-0.3-0.2-0.7-0.2-1.1c0-0.4,0.1-0.8,0.2-1.2c0.1-0.3,0.3-0.6,0.5-0.9
			s0.5-0.4,0.8-0.6s0.6-0.2,1-0.2s0.7,0.1,1,0.2s0.6,0.3,0.8,0.6c0.2,0.2,0.4,0.5,0.5,0.9C421.5,28.3,421.6,28.7,421.6,29.1z
			 M420.9,29.1c0-0.7-0.2-1.2-0.5-1.6c-0.3-0.4-0.7-0.6-1.3-0.6s-1,0.2-1.3,0.6c-0.3,0.4-0.5,0.9-0.5,1.6s0.2,1.2,0.5,1.6
			c0.3,0.4,0.7,0.6,1.3,0.6s1-0.2,1.3-0.6C420.7,30.3,420.9,29.8,420.9,29.1z"/>
		<path d="M423.7,26.7c0.2-0.1,0.5-0.1,0.8-0.2c0.3-0.1,0.8-0.1,1.2-0.1c0.4,0,0.7,0.1,1,0.2c0.3,0.1,0.5,0.3,0.7,0.5
			s0.3,0.5,0.3,0.8c0.1,0.3,0.1,0.6,0.1,1v3h-0.7V29c0-0.4,0-0.7-0.1-1c-0.1-0.3-0.1-0.5-0.3-0.6c-0.1-0.2-0.3-0.3-0.5-0.4
			c-0.2-0.1-0.4-0.1-0.7-0.1c-0.3,0-0.6,0-0.8,0.1s-0.4,0.1-0.5,0.1v4.7h-0.7V26.7z"/>
		<path d="M431.8,26.3c0.4,0,0.7,0,0.9,0.2c0.2,0.1,0.4,0.2,0.6,0.4c0.2,0.2,0.3,0.4,0.3,0.6c0.1,0.2,0.1,0.5,0.1,0.8v3.4
			c-0.1,0-0.2,0-0.3,0.1c-0.1,0-0.3,0.1-0.5,0.1c-0.2,0-0.4,0-0.6,0.1c-0.2,0-0.4,0-0.6,0c-0.3,0-0.5,0-0.8-0.1s-0.4-0.2-0.6-0.3
			c-0.2-0.1-0.3-0.3-0.4-0.5c-0.1-0.2-0.2-0.5-0.2-0.8c0-0.3,0.1-0.5,0.2-0.7s0.3-0.4,0.5-0.5s0.4-0.2,0.7-0.3
			c0.3-0.1,0.6-0.1,0.9-0.1c0.1,0,0.2,0,0.3,0c0.1,0,0.2,0,0.3,0c0.1,0,0.2,0,0.3,0.1c0.1,0,0.1,0,0.2,0v-0.3c0-0.2,0-0.4,0-0.5
			c0-0.2-0.1-0.3-0.2-0.5c-0.1-0.1-0.2-0.3-0.4-0.3c-0.2-0.1-0.4-0.1-0.7-0.1c-0.4,0-0.7,0-0.9,0.1s-0.3,0.1-0.4,0.1l-0.1-0.6
			c0.1-0.1,0.3-0.1,0.5-0.2C431.2,26.4,431.5,26.3,431.8,26.3z M431.9,31.3c0.3,0,0.5,0,0.7,0c0.2,0,0.4,0,0.5-0.1v-1.9
			c-0.1,0-0.2-0.1-0.4-0.1c-0.2,0-0.4-0.1-0.7-0.1c-0.2,0-0.3,0-0.5,0c-0.2,0-0.3,0.1-0.5,0.2c-0.2,0.1-0.3,0.2-0.4,0.3
			c-0.1,0.1-0.1,0.3-0.1,0.5c0,0.2,0,0.4,0.1,0.5c0.1,0.1,0.2,0.2,0.3,0.3s0.3,0.1,0.4,0.2C431.5,31.3,431.6,31.3,431.9,31.3z"/>
		<path d="M437.4,31.9c-0.2,0-0.4,0-0.6-0.1s-0.3-0.1-0.4-0.2s-0.2-0.2-0.3-0.4c-0.1-0.2-0.1-0.4-0.1-0.6v-6.6l0.7-0.1v6.7
			c0,0.2,0,0.3,0,0.4c0,0.1,0.1,0.2,0.1,0.2c0.1,0.1,0.1,0.1,0.2,0.1c0.1,0,0.2,0.1,0.4,0.1L437.4,31.9z"/>
		<path d="M446.6,31.7c-0.2,0.1-0.5,0.1-0.8,0.2c-0.3,0.1-0.7,0.1-1.2,0.1c-0.4,0-0.8-0.1-1.1-0.2s-0.6-0.3-0.8-0.6
			c-0.2-0.2-0.4-0.5-0.5-0.9c-0.1-0.3-0.2-0.7-0.2-1.2c0-0.4,0.1-0.8,0.2-1.1c0.1-0.3,0.3-0.6,0.5-0.9c0.2-0.2,0.5-0.4,0.8-0.6
			c0.3-0.1,0.6-0.2,1-0.2c0.4,0,0.7,0.1,0.9,0.2c0.3,0.1,0.4,0.2,0.6,0.3v-2.9l0.7-0.1V31.7z M445.9,27.4c-0.1,0-0.1-0.1-0.2-0.2
			c-0.1-0.1-0.2-0.1-0.3-0.2c-0.1,0-0.3-0.1-0.4-0.1c-0.1,0-0.3,0-0.5,0c-0.3,0-0.6,0.1-0.8,0.2c-0.2,0.1-0.4,0.3-0.5,0.5
			c-0.1,0.2-0.2,0.4-0.3,0.7s-0.1,0.5-0.1,0.8c0,0.7,0.2,1.2,0.5,1.6c0.4,0.4,0.8,0.6,1.4,0.6c0.3,0,0.6,0,0.8,0
			c0.2,0,0.4-0.1,0.5-0.1V27.4z"/>
		<path d="M448.7,29.1c0-0.5,0.1-0.9,0.2-1.2s0.3-0.6,0.5-0.9c0.2-0.2,0.5-0.4,0.7-0.5c0.3-0.1,0.6-0.2,0.9-0.2
			c0.7,0,1.2,0.2,1.6,0.6c0.4,0.4,0.6,1.1,0.6,2c0,0.1,0,0.1,0,0.2c0,0.1,0,0.1,0,0.2h-3.8c0,0.7,0.2,1.2,0.5,1.5
			c0.3,0.4,0.8,0.5,1.5,0.5c0.4,0,0.7,0,0.9-0.1c0.2-0.1,0.4-0.1,0.5-0.2l0.1,0.6c-0.1,0.1-0.3,0.1-0.5,0.2
			c-0.3,0.1-0.6,0.1-0.9,0.1c-0.5,0-0.9-0.1-1.2-0.2c-0.3-0.1-0.6-0.3-0.8-0.6c-0.2-0.2-0.4-0.5-0.5-0.9S448.7,29.5,448.7,29.1z
			 M452.5,28.7c0-0.6-0.1-1-0.4-1.3c-0.2-0.3-0.6-0.5-1.1-0.5c-0.2,0-0.5,0-0.6,0.1c-0.2,0.1-0.4,0.2-0.5,0.4
			c-0.1,0.2-0.3,0.4-0.3,0.6c-0.1,0.2-0.1,0.4-0.1,0.7H452.5z"/>
		<path d="M456.2,27c0,0.2,0,0.3-0.1,0.4c-0.1,0.1-0.2,0.2-0.4,0.2s-0.3-0.1-0.4-0.2c-0.1-0.1-0.2-0.2-0.2-0.4
			c0-0.2,0.1-0.3,0.2-0.4c0.1-0.1,0.2-0.2,0.4-0.2s0.3,0.1,0.4,0.2C456.2,26.7,456.2,26.9,456.2,27z M456.2,31.4
			c0,0.2,0,0.3-0.1,0.4c-0.1,0.1-0.2,0.2-0.4,0.2s-0.3-0.1-0.4-0.2c-0.1-0.1-0.2-0.2-0.2-0.4c0-0.2,0.1-0.3,0.2-0.4
			c0.1-0.1,0.2-0.2,0.4-0.2s0.3,0.1,0.4,0.2C456.2,31.1,456.2,31.2,456.2,31.4z"/>
	</g>
	<g id="Logo_x5F_Abbott_x5F_signature_x5F_horizontal_x5F_2c_x5F_bk_x5F_pan_x5F_u.tif_1_">
		<g>
			<path class="st0" d="M505.6,15.4c0.1,0,0.1,0.1,0.2,0.1c0.9,0.3,1.3,0.9,1.3,1.9c0,3.5,0,7,0,10.5c0,0.5-0.2,0.7-0.6,0.6
				c-0.4,0-0.8,0-1.2,0c-1-0.1-1.7-0.8-1.7-1.8c0-0.7,0-1.5,0-2.2c0-1.5-1.1-2.3-2.6-2c-0.9,0.2-1.7,0.8-2.3,1.4
				c-0.9,0.8-1.9,1.7-2.8,2.5c-0.3,0.2-0.5,0.4-0.8,0.6c-1.1,0.7-2.2,0.8-3.3,0c-1.1-0.8-2.1-1.8-3.2-2.7c-0.9-0.8-1.7-1.5-2.9-1.8
				c-1.4-0.3-2.5,0.5-2.6,2c0,1.1,0,2.2,0,3.3c0,0.6-0.1,0.7-0.7,0.7c-0.1,0-0.2,0-0.4,0c-1.2,0.1-2.1-0.3-2.5-1.5
				c0-3.9,0-7.7,0-11.6c1.1,0,2.2,0,3.3,0c1.2,0.3,2.1,1.1,2.9,2c0.7,0.7,1.4,1.4,2.2,2c3,2.7,7.8,2.7,10.8,0c1.4-1.3,2.8-2.7,4.3-4
				C503.8,15.4,504.7,15.4,505.6,15.4z"/>
			<path class="st0" d="M514.8,15.4c0.8,0.3,1.7,0.5,2.5,0.9c1.7,0.8,2.9,2.1,3.7,3.8c0.4,0.8,0.6,1.6,0.4,2.5
				c-0.1,0.7-0.5,1.1-1.2,1.1c-1.5,0-3,0.1-4.5,0c-1.2-0.1-2.2-1.1-2.3-2.2c0-0.4,0.1-0.6,0.5-0.6c1.2,0,2.5,0,3.8,0
				c-0.8-1-1.6-1.7-2.8-2c-0.4-0.1-0.8-0.1-1.2-0.1c-1.4,0.1-2.1,0.9-2.1,2.3c0.1,2.3,1.9,4.1,4.2,4.1c1.2,0,2.3,0,3.5,0
				c1.3,0,1.9,0.7,2,1.9c0,0.3,0,0.6,0,0.9c0,0.4-0.1,0.5-0.5,0.5c-1.9,0-3.9,0.1-5.8,0c-3.5-0.2-6.6-3.2-6.8-6.6
				c-0.1-2-0.1-4-0.1-6c0-0.2,0.1-0.3,0.2-0.5C510.6,15.4,512.7,15.4,514.8,15.4z"/>
			<path class="st0" d="M529.1,15.4c0.3,0.1,0.6,0.1,0.9,0.2c2,0.5,3.8,1.4,5,3.1c1.5,2,1,4.2-1.2,5.5c-0.2,0.1-0.3,0.2-0.5,0.3
				c1.1,0.8,2,1.7,3.2,2.3c0.4,0.2,0.7,1.1,0.4,1.5c-0.1,0.1-0.3,0.1-0.4,0.1c-0.9,0-1.9,0.1-2.8,0c-0.4,0-0.9-0.2-1.3-0.5
				c-1.4-1.1-2.8-2.2-4.2-3.3c-0.3-0.2-0.5-0.7-0.6-1.1c-0.1-0.5,0-1,0-1.4c0-0.4,0.1-0.5,0.5-0.4c0.7,0.2,1.4,0.3,2.1,0.4
				c0.2,0,0.5,0,0.7-0.1c1.1-0.3,1.4-1.3,0.7-2.1c-0.9-1.1-2.1-1.4-3.4-1.4c-0.3,0-0.7,0.1-1,0.2c-0.8,0.2-1,0.6-1,1.4
				c0,1.7,0,3.5,0,5.2c0,0.5-0.1,1-0.2,1.5c-0.4,1.2-1.6,1.9-2.9,1.6c-0.3-0.1-0.4-0.3-0.4-0.5c0-1,0-2,0-2.9c0-3,0-5.9,0-8.9
				c0-0.2,0.1-0.5,0.1-0.7C524.9,15.4,527,15.4,529.1,15.4z"/>
			<path class="st0" d="M563.8,15.4c0.8,0.5,1.1,1,0.7,1.9c-0.1,0.4-0.4,0.7-0.7,1c-1,1-2,2-3,3c-0.8,0.8-0.7,1.6,0.2,2.2
				c0.6,0.4,1.2,0.7,1.9,0.9c1.2,0.5,1.7,1.2,1.7,2.6c0,0.1,0,0.3,0,0.4c0,1,0,1-1,0.9c-0.5,0-1-0.2-1.4-0.4
				c-1.3-0.5-2.6-1.1-3.8-1.6c-0.4-0.2-0.9-0.3-1.3-0.4c-0.6-0.1-1.1,0.1-1.6,0.5c-0.3,0.3-0.6,0.6-0.9,0.8c-0.8,0.8-1.7,1-2.7,1
				c-0.3,0-0.4-0.1-0.4-0.4c0-0.1,0-0.2,0-0.3c0-3.9,0-7.8,0-11.7c0-0.2,0.2-0.5,0.2-0.7c0.6,0,1.2,0,1.8,0c0,0,0.1,0.1,0.1,0.1
				c1,0.3,1.4,1.1,1.4,2.1c0,1,0,2.1,0,3.1c0,0.4,0,0.8,0,1.4c0.2-0.2,0.4-0.3,0.5-0.5c1.5-1.5,3-3,4.5-4.5c0.7-0.7,1.5-1.4,2.5-1.6
				C563,15.4,563.4,15.4,563.8,15.4z"/>
			<path class="st0" d="M543.6,15.4c0.2,0,0.3,0.1,0.5,0.1c1.4,0.3,2.6,0.9,3.7,1.8c0.3,0.3,0.3,0.5,0,0.8c-0.4,0.4-0.8,0.8-1.2,1.2
				c-0.6,0.5-1.1,0.5-1.8,0.1c-0.5-0.3-1-0.5-1.5-0.7c-1.4-0.3-2.5,0.6-2.6,2c-0.1,1.9,1.8,4.2,3.7,4.5c1,0.1,1.8-0.2,2.2-1.2
				c0.3-0.8,0.8-1.1,1.6-1.1c0.5,0,1.1,0,1.7,0c0.3,0,0.5,0.1,0.4,0.4c-0.2,2.9-2.2,4.8-4.8,5.2c-4.4,0.6-8.5-3.5-8.4-7.6
				c0.1-1.7,0-3.3,0-5c0-0.2,0.1-0.4,0.1-0.6C539.4,15.4,541.5,15.4,543.6,15.4z"/>
		</g>
	</g>
</g>
</svg>
