<?xml version="1.0" encoding="utf-8"?>
<!-- Generator: Adobe Illustrator 25.4.1, SVG Export Plug-In . SVG Version: 6.00 Build 0)  -->
<svg version="1.1" id="Capa_1" xmlns="http://www.w3.org/2000/svg" xmlns:xlink="http://www.w3.org/1999/xlink" x="0px" y="0px"
	 viewBox="0 0 150 60" style="enable-background:new 0 0 150 60;" xml:space="preserve">
<style type="text/css">
	.st0{clip-path:url(#SVGID_00000160890965831178539850000002102913892484627330_);}
	.st1{fill:#646464;}
	.st2{fill:#00A8CC;}
	.st3{fill:#838383;stroke:#838383;stroke-width:0.3977;stroke-linecap:round;}
	.st4{fill:#00A8CC;stroke:#00A8CC;stroke-width:0.4068;stroke-linecap:round;}
	.st5{fill:#00A8CC;stroke:#00A8CC;stroke-width:0.3977;stroke-linecap:round;}
</style>
<g transform="translate(13485 630)">
	<g transform="translate(-13485 -630)">
		<g>
			<defs>
				<rect id="SVGID_1_" width="150" height="60"/>
			</defs>
			<clipPath id="SVGID_00000101800491208983201500000014422501606077886864_">
				<use xlink:href="#SVGID_1_"  style="overflow:visible;"/>
			</clipPath>
			<g style="clip-path:url(#SVGID_00000101800491208983201500000014422501606077886864_);">
				<path class="st1" d="M15,2C7.8,2,2,7.8,2,15s5.8,13,13,13s13-5.8,13-13l0,0C28,7.8,22.2,2,15,2C15,2,15,2,15,2z M17.9,9.4
					c0.9,0,1.6,0.7,1.6,1.6s-0.7,1.6-1.6,1.6s-1.6-0.7-1.6-1.6C16.3,10.1,17,9.4,17.9,9.4C17.9,9.4,17.9,9.4,17.9,9.4z M21.1,20.1
					H8.9c-0.5,0-0.9-0.4-0.9-0.9c0-0.2,0.1-0.4,0.2-0.5l4.5-6.3c0.3-0.4,0.9-0.5,1.3-0.2c0.1,0.1,0.2,0.1,0.2,0.2l2.6,3.7
					c0.1,0.1,0.3,0.2,0.4,0.1c0.1,0,0.1,0,0.1-0.1l0,0l0.6-0.8c0.3-0.4,0.9-0.5,1.3-0.2c0.1,0.1,0.2,0.1,0.2,0.2l2.5,3.5
					c0.3,0.4,0.2,1-0.2,1.3C21.5,20,21.3,20.1,21.1,20.1z"/>
				<path class="st2" d="M15,32C7.8,32,2,37.8,2,45s5.8,13,13,13s13-5.8,13-13l0,0C28,37.8,22.2,32,15,32C15,32,15,32,15,32z
					 M17.9,39.4c0.9,0,1.6,0.7,1.6,1.6s-0.7,1.6-1.6,1.6s-1.6-0.7-1.6-1.6l0,0C16.3,40.1,17,39.4,17.9,39.4
					C17.9,39.4,17.9,39.4,17.9,39.4z M21.1,50.1H8.9c-0.5,0-0.9-0.4-0.9-0.9l0,0c0-0.2,0.1-0.4,0.2-0.5l4.5-6.3
					c0.3-0.4,0.9-0.5,1.3-0.2c0.1,0.1,0.2,0.1,0.2,0.2l2.6,3.7c0.1,0.1,0.3,0.2,0.4,0.1c0.1,0,0.1,0,0.1-0.1l0.6-0.8
					c0.3-0.4,0.9-0.5,1.3-0.2c0.1,0.1,0.2,0.1,0.2,0.2l2.5,3.5c0.3,0.4,0.2,1-0.2,1.3C21.5,50,21.3,50.1,21.1,50.1z"/>
				<g transform="translate(36.073 5.077)">
					<path class="st1" d="M9.6,0L0.1,7.1C0,7.2-0.1,7.3-0.1,7.5v12.7c0,0.3,0.2,0.5,0.4,0.5c0,0,0,0,0.1,0h6.4
						c0.3,0,0.5-0.2,0.5-0.4c0,0,0,0,0-0.1v-7.6h5.2v7.6c0,0.3,0.2,0.5,0.4,0.5c0,0,0,0,0.1,0h6.4c0.3,0,0.5-0.2,0.5-0.4
						c0,0,0,0,0-0.1V7.5c0-0.2-0.1-0.3-0.2-0.4L10.1,0C9.9-0.1,9.8-0.1,9.6,0z M9.8,1l9,6.7v12h-5.4v-7.6c0-0.3-0.2-0.5-0.4-0.5
						c0,0,0,0-0.1,0H6.8c-0.3,0-0.5,0.2-0.5,0.4c0,0,0,0,0,0.1v7.6H0.9v-12L9.8,1z"/>
				</g>
				<g transform="translate(36.073 35.077)">
					<path class="st2" d="M9.6,0L0.1,7.1C0,7.2-0.1,7.3-0.1,7.5v12.7c0,0.3,0.2,0.5,0.4,0.5c0,0,0,0,0.1,0h6.4
						c0.3,0,0.5-0.2,0.5-0.4c0,0,0,0,0-0.1v-7.6h5.2v7.6c0,0.3,0.2,0.5,0.4,0.5c0,0,0,0,0.1,0h6.4c0.3,0,0.5-0.2,0.5-0.4
						c0,0,0,0,0-0.1V7.5c0-0.2-0.1-0.3-0.2-0.4L10.1,0C9.9-0.1,9.8-0.1,9.6,0z M9.8,1l9,6.7v12h-5.4v-7.6c0-0.3-0.2-0.5-0.4-0.5
						c0,0,0,0-0.1,0H6.8c-0.3,0-0.5,0.2-0.5,0.4c0,0,0,0,0,0.1v7.6H0.9v-12L9.8,1z"/>
				</g>
				<g transform="translate(66 6)">
					<path class="st1" d="M19.2,18.1L14.1,13c2.8-3.4,2.3-8.4-1.1-11.2S4.6-0.5,1.8,2.9s-2.3,8.4,1.1,11.2c0,0,0,0,0,0
						c2.9,2.4,7.1,2.4,10,0l5.1,5.1c0.4,0.3,0.9,0.2,1.2-0.2C19.4,18.8,19.4,18.4,19.2,18.1z M3.4,12.4C1,9.9,1,5.9,3.4,3.4
						c2.5-2.5,6.5-2.5,9,0c2.5,2.5,2.5,6.5,0,9l0,0C10,14.9,6,15,3.6,12.6C3.5,12.5,3.5,12.5,3.4,12.4z"/>
				</g>
				<g transform="translate(66 36)">
					<path class="st2" d="M19.2,18.1L14.1,13c2.8-3.4,2.3-8.4-1.1-11.2S4.6-0.5,1.8,2.9s-2.3,8.4,1.1,11.2c0,0,0,0,0,0
						c2.9,2.4,7.1,2.4,10,0l5.1,5.1c0.4,0.3,0.9,0.2,1.2-0.2C19.4,18.8,19.4,18.4,19.2,18.1z M3.4,12.4C1,9.9,1,5.9,3.4,3.4
						c2.5-2.5,6.5-2.5,9,0c2.5,2.5,2.5,6.5,0,9l0,0C10,14.9,6,15,3.6,12.6C3.5,12.5,3.5,12.5,3.4,12.4z"/>
				</g>
				<g transform="translate(92 5)">
					<path class="st1" d="M26.2,0H0.5C0.2,0,0,0.2,0,0.4c0,0,0,0,0,0.1v17.8c0,0.3,0.2,0.5,0.4,0.5c0,0,0,0,0.1,0h25.7
						c0.3,0,0.5-0.2,0.5-0.4c0,0,0,0,0-0.1V0.5C26.7,0.2,26.5,0,26.2,0C26.2,0,26.2,0,26.2,0z M25.7,17.8H1V1h24.7V17.8z"/>
					<path class="st1" d="M20.3,19.8H7.4c-0.3,0-0.5,0.2-0.5,0.5s0.2,0.5,0.5,0.5h12.9c0.3,0,0.5-0.2,0.5-0.4c0,0,0,0,0-0.1
						C20.8,20,20.6,19.8,20.3,19.8z"/>
					<path class="st1" d="M10.1,12.8c0.2,0.1,0.3,0.1,0.5,0l5.9-3c0.2-0.2,0.3-0.4,0.2-0.7c0-0.1-0.1-0.2-0.2-0.2l-5.9-3
						c-0.3-0.1-0.5,0-0.7,0.2c0,0.1-0.1,0.1-0.1,0.2v5.9C9.9,12.4,10,12.6,10.1,12.8z M10.9,7.2l4.3,2.2l-4.3,2.2V7.2z"/>
				</g>
				<g transform="translate(92 35)">
					<path class="st2" d="M26.2,0H0.5C0.2,0,0,0.2,0,0.4c0,0,0,0,0,0.1v17.8c0,0.3,0.2,0.5,0.4,0.5c0,0,0,0,0.1,0h25.7
						c0.3,0,0.5-0.2,0.5-0.4c0,0,0,0,0-0.1V0.5C26.7,0.2,26.5,0,26.2,0C26.2,0,26.2,0,26.2,0z M25.7,17.8H1V1h24.7V17.8z"/>
					<path class="st2" d="M20.3,19.8H7.4c-0.3,0-0.5,0.2-0.5,0.5s0.2,0.5,0.5,0.5h12.9c0.3,0,0.5-0.2,0.5-0.4c0,0,0,0,0-0.1
						C20.8,20,20.6,19.8,20.3,19.8z"/>
					<path class="st2" d="M10.1,12.8c0.2,0.1,0.3,0.1,0.5,0l5.9-3c0.2-0.2,0.3-0.4,0.2-0.7c0-0.1-0.1-0.2-0.2-0.2l-5.9-3
						c-0.3-0.1-0.5,0-0.7,0.2c0,0.1-0.1,0.1-0.1,0.2v5.9C9.9,12.4,10,12.6,10.1,12.8z M10.9,7.2l4.3,2.2l-4.3,2.2V7.2z"/>
				</g>
				<g transform="translate(-1963.81 -1455.258)">
					<g transform="translate(2032.81 1462.258)">
						<g transform="translate(2.776 0)">
							<path class="st3" d="M63.5,6.4c-2.5,0-4.4-1.8-4.4-4.1s1.9-4.1,4.4-4.1c2.5,0,4.4,1.8,4.4,4.1S66,6.4,63.5,6.4z M63.5-1.1
								c-2.1,0-3.7,1.5-3.7,3.4s1.7,3.4,3.7,3.4c2.1,0,3.7-1.5,3.7-3.4l0,0C67.2,0.5,65.6-1.1,63.5-1.1L63.5-1.1z"/>
						</g>
						<g transform="translate(0 7.478)">
							<path class="st3" d="M74.6,10.2H58V7.9c0-4.2,3.7-7.6,8.3-7.6c4.6,0,8.3,3.4,8.3,7.6V10.2z M58.7,9.6h15.1V7.9
								c0-3.8-3.3-7-7.5-7c-4.2,0-7.6,3-7.6,6.9v0.1V9.6z"/>
						</g>
					</g>
				</g>
				<g transform="translate(-1963.81 -1455.258)">
					<g transform="translate(2032.81 1462.258)">
						<g transform="translate(2.776 0)">
							<path class="st4" d="M63.5,37.3c-2.5,0-4.4-1.9-4.4-4.3s1.9-4.3,4.4-4.3c2.5,0,4.4,1.9,4.4,4.3S66,37.3,63.5,37.3z
								 M63.5,29.6c-2.1,0-3.7,1.5-3.7,3.4c0,1.9,1.7,3.4,3.7,3.4c2.1,0,3.7-1.5,3.7-3.4l0,0C67.2,31.2,65.6,29.6,63.5,29.6
								L63.5,29.6z"/>
						</g>
						<g transform="translate(0 7.478)">
							<path class="st5" d="M75,40.5H58v-2.3c0-4.2,3.8-7.6,8.5-7.6S75,34,75,38.2V40.5z M59,40.5h15v-1.7c0-3.8-3.3-7-7.4-7
								s-7.6,3-7.6,6.9v0.1V40.5z"/>
						</g>
					</g>
				</g>
			</g>
		</g>
	</g>
</g>
</svg>
